ISO-10303-21;
HEADER;

/* File generated by Shapr3D Version 26.70.0.10837 */

FILE_DESCRIPTION(('HOOPS Exchange Step'),'2;1');

FILE_NAME('/private/var/mobile/Containers/Data/Application/B920794F-3AFD-4D1B-B25D-647AFDE9D567/tmp/export/temp_export',
'2026-06-17T23:36:08+17:00',
('mobile'),
('Shapr3D Limited'),
'HOOPS Exchange 2025.9',
'Shapr3D',
'Authorized');

FILE_SCHEMA( ('AP242_MANAGED_MODEL_BASED_3D_ENGINEERING_MIM_LF {1 0 10303 442 1 1 4}') );

ENDSEC;

DATA;
#3=(NAMED_UNIT(*)PLANE_ANGLE_UNIT()SI_UNIT($,.RADIAN.));
#4=PLANE_ANGLE_MEASURE_WITH_UNIT(PLANE_ANGLE_MEASURE(0.0174532925),#3);
#5=(CONVERSION_BASED_UNIT('DEGREE',#4)NAMED_UNIT(#6)PLANE_ANGLE_UNIT());
#6=DIMENSIONAL_EXPONENTS(0.,0.,0.,0.,0.,0.,0.);
#7=(NAMED_UNIT(*)SI_UNIT($,.STERADIAN.)SOLID_ANGLE_UNIT());
#8=(LENGTH_UNIT()NAMED_UNIT(*)SI_UNIT(.MILLI.,.METRE.));
#9=UNCERTAINTY_MEASURE_WITH_UNIT(LENGTH_MEASURE(1.000000E-05),#8,'DISTANCE_ACCURACY_VALUE','Maximum Tolerance applied to model');
#10=(GEOMETRIC_REPRESENTATION_CONTEXT(3)GLOBAL_UNCERTAINTY_ASSIGNED_CONTEXT((#9))GLOBAL_UNIT_ASSIGNED_CONTEXT((#8,#5,#7))REPRESENTATION_CONTEXT('','root'));
#12=CARTESIAN_POINT('',(0.,0.,0.));
#13=DIRECTION('',(0.,0.,1.));
#14=DIRECTION('',(1.,0.,0.));
#15=AXIS2_PLACEMENT_3D('TS3D_PRODUCT_CSYS',#12,#13,#14);
#27=CARTESIAN_POINT('',(-711.,573.,1244.5));
#28=DIRECTION('',(0.,0.,-1.));
#29=DIRECTION('',(1.,0.,0.));
#30=AXIS2_PLACEMENT_3D('',#27,#28,#29);
#31=PLANE('',#30);
#32=CARTESIAN_POINT('',(-757.,587.485281374,1244.5));
#33=VERTEX_POINT('',#32);
#34=CARTESIAN_POINT('',(-781.,587.485281374,1244.5));
#35=VERTEX_POINT('',#34);
#36=CARTESIAN_POINT('',(-757.,587.485281374,1244.5));
#37=DIRECTION('',(-1.,-0.,0.));
#38=VECTOR('',#37,24.);
#39=LINE('',#36,#38);
#40=EDGE_CURVE('',#33,#35,#39,.T.);
#41=ORIENTED_EDGE('',*,*,#40,.F.);
#42=CARTESIAN_POINT('',(-757.,610.7,1244.5));
#43=VERTEX_POINT('',#42);
#44=CARTESIAN_POINT('',(-757.,610.7,1244.5));
#45=DIRECTION('',(0.,-1.,0.));
#46=VECTOR('',#45,23.214718626);
#47=LINE('',#44,#46);
#48=EDGE_CURVE('',#43,#33,#47,.T.);
#49=ORIENTED_EDGE('',*,*,#48,.F.);
#50=CARTESIAN_POINT('',(-781.,610.7,1244.5));
#51=VERTEX_POINT('',#50);
#52=CARTESIAN_POINT('',(-781.,610.7,1244.5));
#53=DIRECTION('',(1.,0.,-0.));
#54=VECTOR('',#53,24.);
#55=LINE('',#52,#54);
#56=EDGE_CURVE('',#51,#43,#55,.T.);
#57=ORIENTED_EDGE('',*,*,#56,.F.);
#58=CARTESIAN_POINT('',(-781.,587.485281374,1244.5));
#59=DIRECTION('',(0.,1.,0.));
#60=VECTOR('',#59,23.214718626);
#61=LINE('',#58,#60);
#62=EDGE_CURVE('',#35,#51,#61,.T.);
#63=ORIENTED_EDGE('',*,*,#62,.F.);
#64=EDGE_LOOP('',(#41,#49,#57,#63));
#65=FACE_BOUND('',#64,.T.);
#66=CARTESIAN_POINT('',(-758.9,608.9,1244.5));
#67=VERTEX_POINT('',#66);
#68=CARTESIAN_POINT('',(-758.9,591.5,1244.5));
#69=VERTEX_POINT('',#68);
#70=CARTESIAN_POINT('',(-758.9,608.9,1244.5));
#71=DIRECTION('',(0.,-1.,0.));
#72=VECTOR('',#71,17.4);
#73=LINE('',#70,#72);
#74=EDGE_CURVE('',#67,#69,#73,.T.);
#75=ORIENTED_EDGE('',*,*,#74,.T.);
#76=CARTESIAN_POINT('',(-761.425,591.5,1244.5));
#77=VERTEX_POINT('',#76);
#78=CARTESIAN_POINT('',(-761.425,591.5,1244.5));
#79=DIRECTION('',(1.,0.,-0.));
#80=VECTOR('',#79,2.525);
#81=LINE('',#78,#80);
#82=EDGE_CURVE('',#77,#69,#81,.T.);
#83=ORIENTED_EDGE('',*,*,#82,.F.);
#84=CARTESIAN_POINT('',(-765.05,595.806930693,1244.5));
#85=VERTEX_POINT('',#84);
#86=CARTESIAN_POINT('',(-761.425,591.5,1244.5));
#87=DIRECTION('',(-0.643939392,0.765076505,0.));
#88=VECTOR('',#87,5.629411781);
#89=LINE('',#86,#88);
#90=EDGE_CURVE('',#77,#85,#89,.T.);
#91=ORIENTED_EDGE('',*,*,#90,.T.);
#92=CARTESIAN_POINT('',(-765.05,604.88019802,1244.5));
#93=VERTEX_POINT('',#92);
#94=CARTESIAN_POINT('',(-765.05,595.806930693,1244.5));
#95=DIRECTION('',(0.,1.,0.));
#96=VECTOR('',#95,9.073267327);
#97=LINE('',#94,#96);
#98=EDGE_CURVE('',#85,#93,#97,.T.);
#99=ORIENTED_EDGE('',*,*,#98,.T.);
#100=CARTESIAN_POINT('',(-761.425,608.9,1244.5));
#101=VERTEX_POINT('',#100);
#102=CARTESIAN_POINT('',(-761.425,608.9,1244.5));
#103=DIRECTION('',(-0.669697077,-0.742634382,0.));
#104=VECTOR('',#103,5.412895063);
#105=LINE('',#102,#104);
#106=EDGE_CURVE('',#101,#93,#105,.T.);
#107=ORIENTED_EDGE('',*,*,#106,.F.);
#108=CARTESIAN_POINT('',(-761.425,608.9,1244.5));
#109=DIRECTION('',(1.,0.,-0.));
#110=VECTOR('',#109,2.525);
#111=LINE('',#108,#110);
#112=EDGE_CURVE('',#101,#67,#111,.T.);
#113=ORIENTED_EDGE('',*,*,#112,.T.);
#114=EDGE_LOOP('',(#75,#83,#91,#99,#107,#113));
#115=FACE_BOUND('',#114,.T.);
#116=ADVANCED_FACE('',(#65,#115),#31,.F.);
#117=CARTESIAN_POINT('',(-711.,573.,1242.5));
#118=DIRECTION('',(0.,0.,-1.));
#119=DIRECTION('',(1.,0.,0.));
#120=AXIS2_PLACEMENT_3D('',#117,#118,#119);
#121=PLANE('',#120);
#122=CARTESIAN_POINT('',(-761.425,608.9,1242.5));
#123=VERTEX_POINT('',#122);
#124=CARTESIAN_POINT('',(-765.05,604.88019802,1242.5));
#125=VERTEX_POINT('',#124);
#126=CARTESIAN_POINT('',(-761.425,608.9,1242.5));
#127=DIRECTION('',(-0.669697077,-0.742634382,0.));
#128=VECTOR('',#127,5.412895063);
#129=LINE('',#126,#128);
#130=EDGE_CURVE('',#123,#125,#129,.T.);
#131=ORIENTED_EDGE('',*,*,#130,.T.);
#132=CARTESIAN_POINT('',(-765.05,595.806930693,1242.5));
#133=VERTEX_POINT('',#132);
#134=CARTESIAN_POINT('',(-765.05,595.806930693,1242.5));
#135=DIRECTION('',(0.,1.,0.));
#136=VECTOR('',#135,9.073267327);
#137=LINE('',#134,#136);
#138=EDGE_CURVE('',#133,#125,#137,.T.);
#139=ORIENTED_EDGE('',*,*,#138,.F.);
#140=CARTESIAN_POINT('',(-761.425,591.5,1242.5));
#141=VERTEX_POINT('',#140);
#142=CARTESIAN_POINT('',(-761.425,591.5,1242.5));
#143=DIRECTION('',(-0.643939392,0.765076505,0.));
#144=VECTOR('',#143,5.629411781);
#145=LINE('',#142,#144);
#146=EDGE_CURVE('',#141,#133,#145,.T.);
#147=ORIENTED_EDGE('',*,*,#146,.F.);
#148=CARTESIAN_POINT('',(-758.9,591.5,1242.5));
#149=VERTEX_POINT('',#148);
#150=CARTESIAN_POINT('',(-761.425,591.5,1242.5));
#151=DIRECTION('',(1.,0.,-0.));
#152=VECTOR('',#151,2.525);
#153=LINE('',#150,#152);
#154=EDGE_CURVE('',#141,#149,#153,.T.);
#155=ORIENTED_EDGE('',*,*,#154,.T.);
#156=CARTESIAN_POINT('',(-758.9,589.3,1242.5));
#157=VERTEX_POINT('',#156);
#158=CARTESIAN_POINT('',(-758.9,591.5,1242.5));
#159=DIRECTION('',(0.,-1.,0.));
#160=VECTOR('',#159,2.2);
#161=LINE('',#158,#160);
#162=EDGE_CURVE('',#149,#157,#161,.T.);
#163=ORIENTED_EDGE('',*,*,#162,.T.);
#164=CARTESIAN_POINT('',(-759.700004023,588.5,1242.5));
#165=VERTEX_POINT('',#164);
#166=CARTESIAN_POINT('',(-759.7,589.3,1242.5));
#167=DIRECTION('',(0.,0.,1.));
#168=DIRECTION('',(1.,0.,-0.));
#169=AXIS2_PLACEMENT_3D('',#166,#167,#168);
#170=CIRCLE('',#169,0.8);
#171=EDGE_CURVE('',#165,#157,#170,.T.);
#172=ORIENTED_EDGE('',*,*,#171,.F.);
#173=CARTESIAN_POINT('',(-778.300004023,588.5,1242.5));
#174=VERTEX_POINT('',#173);
#175=CARTESIAN_POINT('',(-759.700004023,588.5,1242.5));
#176=DIRECTION('',(-1.,0.,0.));
#177=VECTOR('',#176,18.6);
#178=LINE('',#175,#177);
#179=EDGE_CURVE('',#165,#174,#178,.T.);
#180=ORIENTED_EDGE('',*,*,#179,.T.);
#181=CARTESIAN_POINT('',(-779.1,589.3,1242.5));
#182=VERTEX_POINT('',#181);
#183=CARTESIAN_POINT('',(-778.3,589.3,1242.5));
#184=DIRECTION('',(0.,0.,1.));
#185=DIRECTION('',(1.,0.,-0.));
#186=AXIS2_PLACEMENT_3D('',#183,#184,#185);
#187=CIRCLE('',#186,0.8);
#188=EDGE_CURVE('',#182,#174,#187,.T.);
#189=ORIENTED_EDGE('',*,*,#188,.F.);
#190=CARTESIAN_POINT('',(-779.1,611.7,1242.5));
#191=VERTEX_POINT('',#190);
#192=CARTESIAN_POINT('',(-779.1,611.7,1242.5));
#193=DIRECTION('',(0.,-1.,0.));
#194=VECTOR('',#193,22.4);
#195=LINE('',#192,#194);
#196=EDGE_CURVE('',#191,#182,#195,.T.);
#197=ORIENTED_EDGE('',*,*,#196,.F.);
#198=CARTESIAN_POINT('',(-758.9,611.7,1242.5));
#199=VERTEX_POINT('',#198);
#200=CARTESIAN_POINT('',(-758.9,611.7,1242.5));
#201=DIRECTION('',(-1.,0.,0.));
#202=VECTOR('',#201,20.2);
#203=LINE('',#200,#202);
#204=EDGE_CURVE('',#199,#191,#203,.T.);
#205=ORIENTED_EDGE('',*,*,#204,.F.);
#206=CARTESIAN_POINT('',(-758.9,608.9,1242.5));
#207=VERTEX_POINT('',#206);
#208=CARTESIAN_POINT('',(-758.9,611.7,1242.5));
#209=DIRECTION('',(0.,-1.,0.));
#210=VECTOR('',#209,2.8);
#211=LINE('',#208,#210);
#212=EDGE_CURVE('',#199,#207,#211,.T.);
#213=ORIENTED_EDGE('',*,*,#212,.T.);
#214=CARTESIAN_POINT('',(-761.425,608.9,1242.5));
#215=DIRECTION('',(1.,0.,-0.));
#216=VECTOR('',#215,2.525);
#217=LINE('',#214,#216);
#218=EDGE_CURVE('',#123,#207,#217,.T.);
#219=ORIENTED_EDGE('',*,*,#218,.F.);
#220=EDGE_LOOP('',(#131,#139,#147,#155,#163,#172,#180,#189,#197,#205,#213,#219));
#221=FACE_BOUND('',#220,.T.);
#222=ADVANCED_FACE('',(#221),#121,.T.);
#223=CARTESIAN_POINT('',(-769.,611.7,1230.));
#224=DIRECTION('',(0.,1.,0.));
#225=DIRECTION('',(0.,0.,-1.));
#226=AXIS2_PLACEMENT_3D('',#223,#224,#225);
#227=PLANE('',#226);
#228=CARTESIAN_POINT('',(-757.,611.7,1201.434314575));
#229=VERTEX_POINT('',#228);
#230=CARTESIAN_POINT('',(-757.,611.7,1243.5));
#231=VERTEX_POINT('',#230);
#232=CARTESIAN_POINT('',(-757.,611.7,1201.434314575));
#233=DIRECTION('',(0.,0.,1.));
#234=VECTOR('',#233,42.065685425);
#235=LINE('',#232,#234);
#236=EDGE_CURVE('',#229,#231,#235,.T.);
#237=ORIENTED_EDGE('',*,*,#236,.F.);
#238=CARTESIAN_POINT('',(-758.9,611.7,1201.434314575));
#239=VERTEX_POINT('',#238);
#240=CARTESIAN_POINT('',(-758.9,611.7,1201.434314575));
#241=DIRECTION('',(1.,0.,-0.));
#242=VECTOR('',#241,1.9);
#243=LINE('',#240,#242);
#244=EDGE_CURVE('',#239,#229,#243,.T.);
#245=ORIENTED_EDGE('',*,*,#244,.F.);
#246=CARTESIAN_POINT('',(-758.9,611.7,1242.5));
#247=DIRECTION('',(-0.,0.,-1.));
#248=VECTOR('',#247,41.065685425);
#249=LINE('',#246,#248);
#250=EDGE_CURVE('',#199,#239,#249,.T.);
#251=ORIENTED_EDGE('',*,*,#250,.F.);
#252=ORIENTED_EDGE('',*,*,#204,.T.);
#253=CARTESIAN_POINT('',(-779.1,611.7,1201.434314575));
#254=VERTEX_POINT('',#253);
#255=CARTESIAN_POINT('',(-779.1,611.7,1242.5));
#256=DIRECTION('',(-0.,0.,-1.));
#257=VECTOR('',#256,41.065685425);
#258=LINE('',#255,#257);
#259=EDGE_CURVE('',#191,#254,#258,.T.);
#260=ORIENTED_EDGE('',*,*,#259,.T.);
#261=CARTESIAN_POINT('',(-781.,611.7,1201.434314575));
#262=VERTEX_POINT('',#261);
#263=CARTESIAN_POINT('',(-781.,611.7,1201.434314575));
#264=DIRECTION('',(1.,0.,-0.));
#265=VECTOR('',#264,1.9);
#266=LINE('',#263,#265);
#267=EDGE_CURVE('',#262,#254,#266,.T.);
#268=ORIENTED_EDGE('',*,*,#267,.F.);
#269=CARTESIAN_POINT('',(-781.,611.7,1243.5));
#270=VERTEX_POINT('',#269);
#271=CARTESIAN_POINT('',(-781.,611.7,1243.5));
#272=DIRECTION('',(0.,0.,-1.));
#273=VECTOR('',#272,42.065685425);
#274=LINE('',#271,#273);
#275=EDGE_CURVE('',#270,#262,#274,.T.);
#276=ORIENTED_EDGE('',*,*,#275,.F.);
#277=CARTESIAN_POINT('',(-757.,611.7,1243.5));
#278=DIRECTION('',(-1.,0.,0.));
#279=VECTOR('',#278,24.);
#280=LINE('',#277,#279);
#281=EDGE_CURVE('',#231,#270,#280,.T.);
#282=ORIENTED_EDGE('',*,*,#281,.F.);
#283=EDGE_LOOP('',(#237,#245,#251,#252,#260,#268,#276,#282));
#284=FACE_BOUND('',#283,.T.);
#285=ADVANCED_FACE('',(#284),#227,.T.);
#286=CARTESIAN_POINT('',(-754.,608.7,1207.75));
#287=DIRECTION('',(0.707106781,0.707106781,0.));
#288=DIRECTION('',(0.,0.,1.));
#289=AXIS2_PLACEMENT_3D('',#286,#287,#288);
#290=PLANE('',#289);
#291=CARTESIAN_POINT('',(-756.,610.7,1243.5));
#292=VERTEX_POINT('',#291);
#293=CARTESIAN_POINT('',(-756.,610.7,1200.434314575));
#294=VERTEX_POINT('',#293);
#295=CARTESIAN_POINT('',(-756.,610.7,1243.5));
#296=DIRECTION('',(0.,0.,-1.));
#297=VECTOR('',#296,43.065685425);
#298=LINE('',#295,#297);
#299=EDGE_CURVE('',#292,#294,#298,.T.);
#300=ORIENTED_EDGE('',*,*,#299,.T.);
#301=CARTESIAN_POINT('',(-757.,611.7,1201.434314575));
#302=DIRECTION('',(0.577350269,-0.577350269,-0.577350269));
#303=VECTOR('',#302,1.732050808);
#304=LINE('',#301,#303);
#305=EDGE_CURVE('',#229,#294,#304,.T.);
#306=ORIENTED_EDGE('',*,*,#305,.F.);
#307=ORIENTED_EDGE('',*,*,#236,.T.);
#308=CARTESIAN_POINT('',(-756.5,611.2,1244.));
#309=VERTEX_POINT('',#308);
#310=CARTESIAN_POINT('',(-756.5,611.2,1244.));
#311=DIRECTION('',(-0.577350269,0.577350269,-0.577350269));
#312=VECTOR('',#311,0.866025404);
#313=LINE('',#310,#312);
#314=EDGE_CURVE('',#309,#231,#313,.T.);
#315=ORIENTED_EDGE('',*,*,#314,.F.);
#316=CARTESIAN_POINT('',(-756.,610.7,1243.5));
#317=DIRECTION('',(-0.577350269,0.577350269,0.577350269));
#318=VECTOR('',#317,0.866025404);
#319=LINE('',#316,#318);
#320=EDGE_CURVE('',#292,#309,#319,.T.);
#321=ORIENTED_EDGE('',*,*,#320,.F.);
#322=EDGE_LOOP('',(#300,#306,#307,#315,#321));
#323=FACE_BOUND('',#322,.T.);
#324=ADVANCED_FACE('',(#323),#290,.T.);
#325=CARTESIAN_POINT('',(-756.,608.,1207.75));
#326=DIRECTION('',(-1.,0.,0.));
#327=DIRECTION('',(0.,0.,-1.));
#328=AXIS2_PLACEMENT_3D('',#325,#326,#327);
#329=PLANE('',#328);
#330=CARTESIAN_POINT('',(-756.,598.5,1206.25));
#331=VERTEX_POINT('',#330);
#332=CARTESIAN_POINT('',(-756.,598.5,1215.25));
#333=VERTEX_POINT('',#332);
#334=CARTESIAN_POINT('',(-756.,598.5,1210.75));
#335=DIRECTION('',(-1.,-0.,-0.));
#336=DIRECTION('',(0.,0.,-1.));
#337=AXIS2_PLACEMENT_3D('',#334,#335,#336);
#338=CIRCLE('',#337,4.5);
#339=EDGE_CURVE('',#331,#333,#338,.T.);
#340=ORIENTED_EDGE('',*,*,#339,.T.);
#341=CARTESIAN_POINT('',(-756.,598.5,1210.75));
#342=DIRECTION('',(-1.,-0.,-0.));
#343=DIRECTION('',(0.,0.,-1.));
#344=AXIS2_PLACEMENT_3D('',#341,#342,#343);
#345=CIRCLE('',#344,4.5);
#346=EDGE_CURVE('',#333,#331,#345,.T.);
#347=ORIENTED_EDGE('',*,*,#346,.T.);
#348=EDGE_LOOP('',(#340,#347));
#349=FACE_BOUND('',#348,.T.);
#350=CARTESIAN_POINT('',(-756.,565.,1222.014718626));
#351=VERTEX_POINT('',#350);
#352=CARTESIAN_POINT('',(-756.,586.485281374,1243.5));
#353=VERTEX_POINT('',#352);
#354=CARTESIAN_POINT('',(-756.,565.,1222.014718626));
#355=DIRECTION('',(-0.,0.707106781,0.707106781));
#356=VECTOR('',#355,30.384776311);
#357=LINE('',#354,#356);
#358=EDGE_CURVE('',#351,#353,#357,.T.);
#359=ORIENTED_EDGE('',*,*,#358,.F.);
#360=CARTESIAN_POINT('',(-756.,565.,1220.415262827));
#361=VERTEX_POINT('',#360);
#362=CARTESIAN_POINT('',(-756.,565.,1220.415262827));
#363=DIRECTION('',(0.,0.,1.));
#364=VECTOR('',#363,1.599455799);
#365=LINE('',#362,#364);
#366=EDGE_CURVE('',#361,#351,#365,.T.);
#367=ORIENTED_EDGE('',*,*,#366,.F.);
#368=CARTESIAN_POINT('',(-756.,567.533499733,1218.7));
#369=VERTEX_POINT('',#368);
#370=CARTESIAN_POINT('',(-756.,565.,1220.415262827));
#371=DIRECTION('',(0.,0.82806723,-0.560628809));
#372=VECTOR('',#371,3.059533864);
#373=LINE('',#370,#372);
#374=EDGE_CURVE('',#361,#369,#373,.T.);
#375=ORIENTED_EDGE('',*,*,#374,.T.);
#376=CARTESIAN_POINT('',(-756.,575.,1218.7));
#377=VERTEX_POINT('',#376);
#378=CARTESIAN_POINT('',(-756.,575.,1218.7));
#379=DIRECTION('',(0.,-1.,0.));
#380=VECTOR('',#379,7.466500267);
#381=LINE('',#378,#380);
#382=EDGE_CURVE('',#377,#369,#381,.T.);
#383=ORIENTED_EDGE('',*,*,#382,.F.);
#384=CARTESIAN_POINT('',(-756.,585.,1208.7));
#385=VERTEX_POINT('',#384);
#386=CARTESIAN_POINT('',(-756.,575.,1208.7));
#387=DIRECTION('',(1.,0.,0.));
#388=DIRECTION('',(0.,0.,-1.));
#389=AXIS2_PLACEMENT_3D('',#386,#387,#388);
#390=CIRCLE('',#389,10.);
#391=EDGE_CURVE('',#385,#377,#390,.T.);
#392=ORIENTED_EDGE('',*,*,#391,.F.);
#393=CARTESIAN_POINT('',(-756.,585.,1207.));
#394=VERTEX_POINT('',#393);
#395=CARTESIAN_POINT('',(-756.,585.,1207.));
#396=DIRECTION('',(0.,0.,1.));
#397=VECTOR('',#396,1.7);
#398=LINE('',#395,#397);
#399=EDGE_CURVE('',#394,#385,#398,.T.);
#400=ORIENTED_EDGE('',*,*,#399,.F.);
#401=CARTESIAN_POINT('',(-756.,575.,1197.));
#402=VERTEX_POINT('',#401);
#403=CARTESIAN_POINT('',(-756.,575.,1207.));
#404=DIRECTION('',(1.,0.,0.));
#405=DIRECTION('',(0.,0.,-1.));
#406=AXIS2_PLACEMENT_3D('',#403,#404,#405);
#407=CIRCLE('',#406,10.);
#408=EDGE_CURVE('',#402,#394,#407,.T.);
#409=ORIENTED_EDGE('',*,*,#408,.F.);
#410=CARTESIAN_POINT('',(-756.,568.389051666,1197.));
#411=VERTEX_POINT('',#410);
#412=CARTESIAN_POINT('',(-756.,568.389051666,1197.));
#413=DIRECTION('',(0.,1.,0.));
#414=VECTOR('',#413,6.610948334);
#415=LINE('',#412,#414);
#416=EDGE_CURVE('',#411,#402,#415,.T.);
#417=ORIENTED_EDGE('',*,*,#416,.F.);
#418=CARTESIAN_POINT('',(-756.,565.,1194.705500314));
#419=VERTEX_POINT('',#418);
#420=CARTESIAN_POINT('',(-756.,565.,1194.705500314));
#421=DIRECTION('',(0.,0.82806723,0.560628809));
#422=VECTOR('',#421,4.092725254);
#423=LINE('',#420,#422);
#424=EDGE_CURVE('',#419,#411,#423,.T.);
#425=ORIENTED_EDGE('',*,*,#424,.F.);
#426=CARTESIAN_POINT('',(-756.,565.,1191.));
#427=VERTEX_POINT('',#426);
#428=CARTESIAN_POINT('',(-756.,565.,1191.));
#429=DIRECTION('',(0.,0.,1.));
#430=VECTOR('',#429,3.705500314);
#431=LINE('',#428,#430);
#432=EDGE_CURVE('',#427,#419,#431,.T.);
#433=ORIENTED_EDGE('',*,*,#432,.F.);
#434=CARTESIAN_POINT('',(-756.,601.265685425,1191.));
#435=VERTEX_POINT('',#434);
#436=CARTESIAN_POINT('',(-756.,601.265685425,1191.));
#437=DIRECTION('',(0.,-1.,0.));
#438=VECTOR('',#437,36.265685425);
#439=LINE('',#436,#438);
#440=EDGE_CURVE('',#435,#427,#439,.T.);
#441=ORIENTED_EDGE('',*,*,#440,.F.);
#442=CARTESIAN_POINT('',(-756.,610.7,1200.434314575));
#443=DIRECTION('',(0.,-0.707106781,-0.707106781));
#444=VECTOR('',#443,13.342135624);
#445=LINE('',#442,#444);
#446=EDGE_CURVE('',#294,#435,#445,.T.);
#447=ORIENTED_EDGE('',*,*,#446,.F.);
#448=ORIENTED_EDGE('',*,*,#299,.F.);
#449=CARTESIAN_POINT('',(-756.,586.485281374,1243.5));
#450=DIRECTION('',(0.,1.,0.));
#451=VECTOR('',#450,24.214718626);
#452=LINE('',#449,#451);
#453=EDGE_CURVE('',#353,#292,#452,.T.);
#454=ORIENTED_EDGE('',*,*,#453,.F.);
#455=EDGE_LOOP('',(#359,#367,#375,#383,#392,#400,#409,#417,#425,#433,#441,#447,#448,#454));
#456=FACE_BOUND('',#455,.T.);
#457=ADVANCED_FACE('',(#349,#456),#329,.F.);
#458=CARTESIAN_POINT('',(-758.9,612.5,1220.625));
#459=DIRECTION('',(1.,0.,-0.));
#460=DIRECTION('',(0.,0.,1.));
#461=AXIS2_PLACEMENT_3D('',#458,#459,#460);
#462=PLANE('',#461);
#463=CARTESIAN_POINT('',(-758.9,598.5,1208.1));
#464=VERTEX_POINT('',#463);
#465=CARTESIAN_POINT('',(-758.9,598.5,1213.4));
#466=VERTEX_POINT('',#465);
#467=CARTESIAN_POINT('',(-758.9,598.5,1210.75));
#468=DIRECTION('',(-1.,0.,0.));
#469=DIRECTION('',(0.,0.,1.));
#470=AXIS2_PLACEMENT_3D('',#467,#468,#469);
#471=CIRCLE('',#470,2.65);
#472=EDGE_CURVE('',#464,#466,#471,.T.);
#473=ORIENTED_EDGE('',*,*,#472,.F.);
#474=CARTESIAN_POINT('',(-758.9,598.5,1210.75));
#475=DIRECTION('',(-1.,0.,0.));
#476=DIRECTION('',(0.,0.,1.));
#477=AXIS2_PLACEMENT_3D('',#474,#475,#476);
#478=CIRCLE('',#477,2.65);
#479=EDGE_CURVE('',#466,#464,#478,.T.);
#480=ORIENTED_EDGE('',*,*,#479,.F.);
#481=EDGE_LOOP('',(#473,#480));
#482=FACE_BOUND('',#481,.T.);
#483=CARTESIAN_POINT('',(-758.9,601.265685425,1191.));
#484=VERTEX_POINT('',#483);
#485=CARTESIAN_POINT('',(-758.9,601.265685425,1191.));
#486=DIRECTION('',(0.,0.707106781,0.707106781));
#487=VECTOR('',#486,14.756349186);
#488=LINE('',#485,#487);
#489=EDGE_CURVE('',#484,#239,#488,.T.);
#490=ORIENTED_EDGE('',*,*,#489,.F.);
#491=CARTESIAN_POINT('',(-758.9,589.3,1191.));
#492=VERTEX_POINT('',#491);
#493=CARTESIAN_POINT('',(-758.9,601.265685425,1191.));
#494=DIRECTION('',(0.,-1.,0.));
#495=VECTOR('',#494,11.965685425);
#496=LINE('',#493,#495);
#497=EDGE_CURVE('',#484,#492,#496,.T.);
#498=ORIENTED_EDGE('',*,*,#497,.T.);
#499=CARTESIAN_POINT('',(-758.9,589.3,1242.5));
#500=DIRECTION('',(-0.,-0.,-1.));
#501=VECTOR('',#500,51.5);
#502=LINE('',#499,#501);
#503=EDGE_CURVE('',#157,#492,#502,.T.);
#504=ORIENTED_EDGE('',*,*,#503,.F.);
#505=ORIENTED_EDGE('',*,*,#162,.F.);
#506=CARTESIAN_POINT('',(-758.9,591.5,1244.5));
#507=DIRECTION('',(0.,0.,-1.));
#508=VECTOR('',#507,2.);
#509=LINE('',#506,#508);
#510=EDGE_CURVE('',#69,#149,#509,.T.);
#511=ORIENTED_EDGE('',*,*,#510,.F.);
#512=ORIENTED_EDGE('',*,*,#74,.F.);
#513=CARTESIAN_POINT('',(-758.9,608.9,1244.5));
#514=DIRECTION('',(0.,0.,-1.));
#515=VECTOR('',#514,2.);
#516=LINE('',#513,#515);
#517=EDGE_CURVE('',#67,#207,#516,.T.);
#518=ORIENTED_EDGE('',*,*,#517,.T.);
#519=ORIENTED_EDGE('',*,*,#212,.F.);
#520=ORIENTED_EDGE('',*,*,#250,.T.);
#521=EDGE_LOOP('',(#490,#498,#504,#505,#511,#512,#518,#519,#520));
#522=FACE_BOUND('',#521,.T.);
#523=ADVANCED_FACE('',(#482,#522),#462,.F.);
#524=CARTESIAN_POINT('',(-781.,611.7,1230.));
#525=DIRECTION('',(-0.707106781,0.707106781,0.));
#526=DIRECTION('',(0.,0.,1.));
#527=AXIS2_PLACEMENT_3D('',#524,#525,#526);
#528=PLANE('',#527);
#529=CARTESIAN_POINT('',(-781.5,611.2,1244.));
#530=VERTEX_POINT('',#529);
#531=CARTESIAN_POINT('',(-781.,611.7,1243.5));
#532=DIRECTION('',(-0.577350269,-0.577350269,0.577350269));
#533=VECTOR('',#532,0.866025404);
#534=LINE('',#531,#533);
#535=EDGE_CURVE('',#270,#530,#534,.T.);
#536=ORIENTED_EDGE('',*,*,#535,.F.);
#537=ORIENTED_EDGE('',*,*,#275,.T.);
#538=CARTESIAN_POINT('',(-782.,610.7,1200.434314575));
#539=VERTEX_POINT('',#538);
#540=CARTESIAN_POINT('',(-782.,610.7,1200.434314575));
#541=DIRECTION('',(0.577350269,0.577350269,0.577350269));
#542=VECTOR('',#541,1.732050808);
#543=LINE('',#540,#542);
#544=EDGE_CURVE('',#539,#262,#543,.T.);
#545=ORIENTED_EDGE('',*,*,#544,.F.);
#546=CARTESIAN_POINT('',(-782.,610.7,1243.5));
#547=VERTEX_POINT('',#546);
#548=CARTESIAN_POINT('',(-782.,610.7,1200.434314575));
#549=DIRECTION('',(0.,0.,1.));
#550=VECTOR('',#549,43.065685425);
#551=LINE('',#548,#550);
#552=EDGE_CURVE('',#539,#547,#551,.T.);
#553=ORIENTED_EDGE('',*,*,#552,.T.);
#554=CARTESIAN_POINT('',(-781.5,611.2,1244.));
#555=DIRECTION('',(-0.577350269,-0.577350269,-0.577350269));
#556=VECTOR('',#555,0.866025404);
#557=LINE('',#554,#556);
#558=EDGE_CURVE('',#530,#547,#557,.T.);
#559=ORIENTED_EDGE('',*,*,#558,.F.);
#560=EDGE_LOOP('',(#536,#537,#545,#553,#559));
#561=FACE_BOUND('',#560,.T.);
#562=ADVANCED_FACE('',(#561),#528,.T.);
#563=CARTESIAN_POINT('',(-779.1,612.5,1220.625));
#564=DIRECTION('',(-1.,0.,0.));
#565=DIRECTION('',(-0.,0.,-1.));
#566=AXIS2_PLACEMENT_3D('',#563,#564,#565);
#567=PLANE('',#566);
#568=ORIENTED_EDGE('',*,*,#259,.F.);
#569=ORIENTED_EDGE('',*,*,#196,.T.);
#570=CARTESIAN_POINT('',(-779.1,589.3,1191.));
#571=VERTEX_POINT('',#570);
#572=CARTESIAN_POINT('',(-779.1,589.3,1191.));
#573=DIRECTION('',(0.,-0.,1.));
#574=VECTOR('',#573,51.5);
#575=LINE('',#572,#574);
#576=EDGE_CURVE('',#571,#182,#575,.T.);
#577=ORIENTED_EDGE('',*,*,#576,.F.);
#578=CARTESIAN_POINT('',(-779.1,601.265685425,1191.));
#579=VERTEX_POINT('',#578);
#580=CARTESIAN_POINT('',(-779.1,601.265685425,1191.));
#581=DIRECTION('',(0.,-1.,0.));
#582=VECTOR('',#581,11.965685425);
#583=LINE('',#580,#582);
#584=EDGE_CURVE('',#579,#571,#583,.T.);
#585=ORIENTED_EDGE('',*,*,#584,.F.);
#586=CARTESIAN_POINT('',(-779.1,611.7,1201.434314575));
#587=DIRECTION('',(-0.,-0.707106781,-0.707106781));
#588=VECTOR('',#587,14.756349186);
#589=LINE('',#586,#588);
#590=EDGE_CURVE('',#254,#579,#589,.T.);
#591=ORIENTED_EDGE('',*,*,#590,.F.);
#592=EDGE_LOOP('',(#568,#569,#577,#585,#591));
#593=FACE_BOUND('',#592,.T.);
#594=ADVANCED_FACE('',(#593),#567,.F.);
#595=CARTESIAN_POINT('',(-782.,585.,1427.));
#596=DIRECTION('',(1.,0.,0.));
#597=DIRECTION('',(0.,0.,-1.));
#598=AXIS2_PLACEMENT_3D('',#595,#596,#597);
#599=PLANE('',#598);
#600=ORIENTED_EDGE('',*,*,#552,.F.);
#601=CARTESIAN_POINT('',(-782.,601.265685425,1191.));
#602=VERTEX_POINT('',#601);
#603=CARTESIAN_POINT('',(-782.,601.265685425,1191.));
#604=DIRECTION('',(0.,0.707106781,0.707106781));
#605=VECTOR('',#604,13.342135624);
#606=LINE('',#603,#605);
#607=EDGE_CURVE('',#602,#539,#606,.T.);
#608=ORIENTED_EDGE('',*,*,#607,.F.);
#609=CARTESIAN_POINT('',(-782.,565.,1191.));
#610=VERTEX_POINT('',#609);
#611=CARTESIAN_POINT('',(-782.,601.265685425,1191.));
#612=DIRECTION('',(0.,-1.,0.));
#613=VECTOR('',#612,36.265685425);
#614=LINE('',#611,#613);
#615=EDGE_CURVE('',#602,#610,#614,.T.);
#616=ORIENTED_EDGE('',*,*,#615,.T.);
#617=CARTESIAN_POINT('',(-782.,565.,1194.705500314));
#618=VERTEX_POINT('',#617);
#619=CARTESIAN_POINT('',(-782.,565.,1194.705500314));
#620=DIRECTION('',(0.,0.,-1.));
#621=VECTOR('',#620,3.705500314);
#622=LINE('',#619,#621);
#623=EDGE_CURVE('',#618,#610,#622,.T.);
#624=ORIENTED_EDGE('',*,*,#623,.F.);
#625=CARTESIAN_POINT('',(-782.,568.389051666,1197.));
#626=VERTEX_POINT('',#625);
#627=CARTESIAN_POINT('',(-782.,568.389051666,1197.));
#628=DIRECTION('',(0.,-0.82806723,-0.560628809));
#629=VECTOR('',#628,4.092725254);
#630=LINE('',#627,#629);
#631=EDGE_CURVE('',#626,#618,#630,.T.);
#632=ORIENTED_EDGE('',*,*,#631,.F.);
#633=CARTESIAN_POINT('',(-782.,575.,1197.));
#634=VERTEX_POINT('',#633);
#635=CARTESIAN_POINT('',(-782.,575.,1197.));
#636=DIRECTION('',(0.,-1.,0.));
#637=VECTOR('',#636,6.610948334);
#638=LINE('',#635,#637);
#639=EDGE_CURVE('',#634,#626,#638,.T.);
#640=ORIENTED_EDGE('',*,*,#639,.F.);
#641=CARTESIAN_POINT('',(-782.,585.,1207.));
#642=VERTEX_POINT('',#641);
#643=CARTESIAN_POINT('',(-782.,575.,1207.));
#644=DIRECTION('',(-1.,0.,0.));
#645=DIRECTION('',(0.,0.,1.));
#646=AXIS2_PLACEMENT_3D('',#643,#644,#645);
#647=CIRCLE('',#646,10.);
#648=EDGE_CURVE('',#642,#634,#647,.T.);
#649=ORIENTED_EDGE('',*,*,#648,.F.);
#650=CARTESIAN_POINT('',(-782.,585.,1208.7));
#651=VERTEX_POINT('',#650);
#652=CARTESIAN_POINT('',(-782.,585.,1208.7));
#653=DIRECTION('',(0.,0.,-1.));
#654=VECTOR('',#653,1.7);
#655=LINE('',#652,#654);
#656=EDGE_CURVE('',#651,#642,#655,.T.);
#657=ORIENTED_EDGE('',*,*,#656,.F.);
#658=CARTESIAN_POINT('',(-782.,575.,1218.7));
#659=VERTEX_POINT('',#658);
#660=CARTESIAN_POINT('',(-782.,575.,1208.7));
#661=DIRECTION('',(-1.,0.,0.));
#662=DIRECTION('',(0.,0.,1.));
#663=AXIS2_PLACEMENT_3D('',#660,#661,#662);
#664=CIRCLE('',#663,10.);
#665=EDGE_CURVE('',#659,#651,#664,.T.);
#666=ORIENTED_EDGE('',*,*,#665,.F.);
#667=CARTESIAN_POINT('',(-782.,567.533499733,1218.7));
#668=VERTEX_POINT('',#667);
#669=CARTESIAN_POINT('',(-782.,567.533499733,1218.7));
#670=DIRECTION('',(0.,1.,0.));
#671=VECTOR('',#670,7.466500267);
#672=LINE('',#669,#671);
#673=EDGE_CURVE('',#668,#659,#672,.T.);
#674=ORIENTED_EDGE('',*,*,#673,.F.);
#675=CARTESIAN_POINT('',(-782.,565.,1220.415262827));
#676=VERTEX_POINT('',#675);
#677=CARTESIAN_POINT('',(-782.,565.,1220.415262827));
#678=DIRECTION('',(0.,0.82806723,-0.560628809));
#679=VECTOR('',#678,3.059533864);
#680=LINE('',#677,#679);
#681=EDGE_CURVE('',#676,#668,#680,.T.);
#682=ORIENTED_EDGE('',*,*,#681,.F.);
#683=CARTESIAN_POINT('',(-782.,565.,1222.014718626));
#684=VERTEX_POINT('',#683);
#685=CARTESIAN_POINT('',(-782.,565.,1222.014718626));
#686=DIRECTION('',(0.,0.,-1.));
#687=VECTOR('',#686,1.599455799);
#688=LINE('',#685,#687);
#689=EDGE_CURVE('',#684,#676,#688,.T.);
#690=ORIENTED_EDGE('',*,*,#689,.F.);
#691=CARTESIAN_POINT('',(-782.,586.485281374,1243.5));
#692=VERTEX_POINT('',#691);
#693=CARTESIAN_POINT('',(-782.,586.485281374,1243.5));
#694=DIRECTION('',(-0.,-0.707106781,-0.707106781));
#695=VECTOR('',#694,30.384776311);
#696=LINE('',#693,#695);
#697=EDGE_CURVE('',#692,#684,#696,.T.);
#698=ORIENTED_EDGE('',*,*,#697,.F.);
#699=CARTESIAN_POINT('',(-782.,610.7,1243.5));
#700=DIRECTION('',(0.,-1.,0.));
#701=VECTOR('',#700,24.214718626);
#702=LINE('',#699,#701);
#703=EDGE_CURVE('',#547,#692,#702,.T.);
#704=ORIENTED_EDGE('',*,*,#703,.F.);
#705=EDGE_LOOP('',(#600,#608,#616,#624,#632,#640,#649,#657,#666,#674,#682,#690,#698,#704));
#706=FACE_BOUND('',#705,.T.);
#707=ADVANCED_FACE('',(#706),#599,.F.);
#708=CARTESIAN_POINT('',(-727.,598.5,1210.75));
#709=DIRECTION('',(-1.,0.,0.));
#710=DIRECTION('',(0.,0.,-1.));
#711=AXIS2_PLACEMENT_3D('',#708,#709,#710);
#712=CYLINDRICAL_SURFACE('',#711,2.65);
#713=CARTESIAN_POINT('',(-757.,598.5,1208.1));
#714=VERTEX_POINT('',#713);
#715=CARTESIAN_POINT('',(-758.9,598.5,1208.1));
#716=DIRECTION('',(1.,-0.,-0.));
#717=VECTOR('',#716,1.9);
#718=LINE('',#715,#717);
#719=EDGE_CURVE('',#464,#714,#718,.T.);
#720=ORIENTED_EDGE('',*,*,#719,.F.);
#721=ORIENTED_EDGE('',*,*,#472,.T.);
#722=ORIENTED_EDGE('',*,*,#479,.T.);
#723=ORIENTED_EDGE('',*,*,#719,.T.);
#724=CARTESIAN_POINT('',(-757.,598.5,1213.4));
#725=VERTEX_POINT('',#724);
#726=CARTESIAN_POINT('',(-757.,598.5,1210.75));
#727=DIRECTION('',(1.,0.,-0.));
#728=DIRECTION('',(0.,0.,1.));
#729=AXIS2_PLACEMENT_3D('',#726,#727,#728);
#730=CIRCLE('',#729,2.65);
#731=EDGE_CURVE('',#714,#725,#730,.T.);
#732=ORIENTED_EDGE('',*,*,#731,.T.);
#733=CARTESIAN_POINT('',(-757.,598.5,1210.75));
#734=DIRECTION('',(1.,0.,-0.));
#735=DIRECTION('',(0.,0.,1.));
#736=AXIS2_PLACEMENT_3D('',#733,#734,#735);
#737=CIRCLE('',#736,2.65);
#738=EDGE_CURVE('',#725,#714,#737,.T.);
#739=ORIENTED_EDGE('',*,*,#738,.T.);
#740=EDGE_LOOP('',(#720,#721,#722,#723,#732,#739));
#741=FACE_BOUND('',#740,.T.);
#742=ADVANCED_FACE('',(#741),#712,.F.);
#743=CARTESIAN_POINT('',(-693.,573.,1191.));
#744=DIRECTION('',(0.,0.,1.));
#745=DIRECTION('',(-1.,0.,0.));
#746=AXIS2_PLACEMENT_3D('',#743,#744,#745);
#747=PLANE('',#746);
#748=ORIENTED_EDGE('',*,*,#497,.F.);
#749=CARTESIAN_POINT('',(-756.,601.265685425,1191.));
#750=DIRECTION('',(-1.,0.,0.));
#751=VECTOR('',#750,2.9);
#752=LINE('',#749,#751);
#753=EDGE_CURVE('',#435,#484,#752,.T.);
#754=ORIENTED_EDGE('',*,*,#753,.F.);
#755=ORIENTED_EDGE('',*,*,#440,.T.);
#756=CARTESIAN_POINT('',(-756.,565.,1191.));
#757=DIRECTION('',(-1.,0.,0.));
#758=VECTOR('',#757,26.);
#759=LINE('',#756,#758);
#760=EDGE_CURVE('',#427,#610,#759,.T.);
#761=ORIENTED_EDGE('',*,*,#760,.T.);
#762=ORIENTED_EDGE('',*,*,#615,.F.);
#763=CARTESIAN_POINT('',(-779.1,601.265685425,1191.));
#764=DIRECTION('',(-1.,0.,0.));
#765=VECTOR('',#764,2.9);
#766=LINE('',#763,#765);
#767=EDGE_CURVE('',#579,#602,#766,.T.);
#768=ORIENTED_EDGE('',*,*,#767,.F.);
#769=ORIENTED_EDGE('',*,*,#584,.T.);
#770=CARTESIAN_POINT('',(-778.3,588.5,1191.));
#771=VERTEX_POINT('',#770);
#772=CARTESIAN_POINT('',(-778.3,589.3,1191.));
#773=DIRECTION('',(0.,0.,-1.));
#774=DIRECTION('',(-1.,0.,0.));
#775=AXIS2_PLACEMENT_3D('',#772,#773,#774);
#776=CIRCLE('',#775,0.8);
#777=EDGE_CURVE('',#771,#571,#776,.T.);
#778=ORIENTED_EDGE('',*,*,#777,.F.);
#779=CARTESIAN_POINT('',(-759.7,588.5,1191.));
#780=VERTEX_POINT('',#779);
#781=CARTESIAN_POINT('',(-759.7,588.5,1191.));
#782=DIRECTION('',(-1.,0.,0.));
#783=VECTOR('',#782,18.6);
#784=LINE('',#781,#783);
#785=EDGE_CURVE('',#780,#771,#784,.T.);
#786=ORIENTED_EDGE('',*,*,#785,.F.);
#787=CARTESIAN_POINT('',(-759.7,589.3,1191.));
#788=DIRECTION('',(0.,0.,-1.));
#789=DIRECTION('',(-1.,0.,0.));
#790=AXIS2_PLACEMENT_3D('',#787,#788,#789);
#791=CIRCLE('',#790,0.8);
#792=EDGE_CURVE('',#492,#780,#791,.T.);
#793=ORIENTED_EDGE('',*,*,#792,.F.);
#794=EDGE_LOOP('',(#748,#754,#755,#761,#762,#768,#769,#778,#786,#793));
#795=FACE_BOUND('',#794,.T.);
#796=ADVANCED_FACE('',(#795),#747,.F.);
#797=CARTESIAN_POINT('',(-671.5,565.,1235.));
#798=DIRECTION('',(0.,1.,0.));
#799=DIRECTION('',(0.,0.,-1.));
#800=AXIS2_PLACEMENT_3D('',#797,#798,#799);
#801=PLANE('',#800);
#802=ORIENTED_EDGE('',*,*,#760,.F.);
#803=ORIENTED_EDGE('',*,*,#432,.T.);
#804=CARTESIAN_POINT('',(-782.,565.,1194.705500314));
#805=DIRECTION('',(1.,0.,-0.));
#806=VECTOR('',#805,26.);
#807=LINE('',#804,#806);
#808=EDGE_CURVE('',#618,#419,#807,.T.);
#809=ORIENTED_EDGE('',*,*,#808,.F.);
#810=ORIENTED_EDGE('',*,*,#623,.T.);
#811=EDGE_LOOP('',(#802,#803,#809,#810));
#812=FACE_BOUND('',#811,.T.);
#813=ADVANCED_FACE('',(#812),#801,.F.);
#814=CARTESIAN_POINT('',(-663.5,565.,1235.));
#815=DIRECTION('',(0.,1.,0.));
#816=DIRECTION('',(0.,0.,-1.));
#817=AXIS2_PLACEMENT_3D('',#814,#815,#816);
#818=PLANE('',#817);
#819=CARTESIAN_POINT('',(-756.,565.,1220.415262827));
#820=DIRECTION('',(-1.,-0.,0.));
#821=VECTOR('',#820,26.);
#822=LINE('',#819,#821);
#823=EDGE_CURVE('',#361,#676,#822,.T.);
#824=ORIENTED_EDGE('',*,*,#823,.F.);
#825=ORIENTED_EDGE('',*,*,#366,.T.);
#826=CARTESIAN_POINT('',(-782.,565.,1222.014718626));
#827=DIRECTION('',(1.,-0.,-0.));
#828=VECTOR('',#827,26.);
#829=LINE('',#826,#828);
#830=EDGE_CURVE('',#684,#351,#829,.T.);
#831=ORIENTED_EDGE('',*,*,#830,.F.);
#832=ORIENTED_EDGE('',*,*,#689,.T.);
#833=EDGE_LOOP('',(#824,#825,#831,#832));
#834=FACE_BOUND('',#833,.T.);
#835=ADVANCED_FACE('',(#834),#818,.F.);
#836=CARTESIAN_POINT('',(-721.,588.5,1203.499105134));
#837=DIRECTION('',(0.,1.,0.));
#838=DIRECTION('',(-1.,0.,0.));
#839=AXIS2_PLACEMENT_3D('',#836,#837,#838);
#840=PLANE('',#839);
#841=ORIENTED_EDGE('',*,*,#785,.T.);
#842=CARTESIAN_POINT('',(-778.3,588.5,1242.5));
#843=DIRECTION('',(-0.,0.,-1.));
#844=VECTOR('',#843,51.5);
#845=LINE('',#842,#844);
#846=EDGE_CURVE('',#174,#771,#845,.T.);
#847=ORIENTED_EDGE('',*,*,#846,.F.);
#848=ORIENTED_EDGE('',*,*,#179,.F.);
#849=CARTESIAN_POINT('',(-759.7,588.5,1191.));
#850=DIRECTION('',(0.,0.,1.));
#851=VECTOR('',#850,51.5);
#852=LINE('',#849,#851);
#853=EDGE_CURVE('',#780,#165,#852,.T.);
#854=ORIENTED_EDGE('',*,*,#853,.F.);
#855=EDGE_LOOP('',(#841,#847,#848,#854));
#856=FACE_BOUND('',#855,.T.);
#857=ADVANCED_FACE('',(#856),#840,.T.);
#858=CARTESIAN_POINT('',(-749.,567.978211,1218.398915814));
#859=DIRECTION('',(0.,-0.560628809,-0.82806723));
#860=DIRECTION('',(-1.,0.,0.));
#861=AXIS2_PLACEMENT_3D('',#858,#859,#860);
#862=PLANE('',#861);
#863=CARTESIAN_POINT('',(-756.,567.533499733,1218.7));
#864=DIRECTION('',(-1.,0.,0.));
#865=VECTOR('',#864,26.);
#866=LINE('',#863,#865);
#867=EDGE_CURVE('',#369,#668,#866,.T.);
#868=ORIENTED_EDGE('',*,*,#867,.F.);
#869=ORIENTED_EDGE('',*,*,#374,.F.);
#870=ORIENTED_EDGE('',*,*,#823,.T.);
#871=ORIENTED_EDGE('',*,*,#681,.T.);
#872=EDGE_LOOP('',(#868,#869,#870,#871));
#873=FACE_BOUND('',#872,.T.);
#874=ADVANCED_FACE('',(#873),#862,.T.);
#875=CARTESIAN_POINT('',(-729.,579.,1218.7));
#876=DIRECTION('',(0.,0.,1.));
#877=DIRECTION('',(-1.,0.,0.));
#878=AXIS2_PLACEMENT_3D('',#875,#876,#877);
#879=PLANE('',#878);
#880=CARTESIAN_POINT('',(-756.,575.,1218.7));
#881=DIRECTION('',(-1.,0.,0.));
#882=VECTOR('',#881,26.);
#883=LINE('',#880,#882);
#884=EDGE_CURVE('',#377,#659,#883,.T.);
#885=ORIENTED_EDGE('',*,*,#884,.F.);
#886=ORIENTED_EDGE('',*,*,#382,.T.);
#887=ORIENTED_EDGE('',*,*,#867,.T.);
#888=ORIENTED_EDGE('',*,*,#673,.T.);
#889=EDGE_LOOP('',(#885,#886,#887,#888));
#890=FACE_BOUND('',#889,.T.);
#891=ADVANCED_FACE('',(#890),#879,.F.);
#892=CARTESIAN_POINT('',(-729.,575.,1208.7));
#893=DIRECTION('',(1.,0.,-0.));
#894=DIRECTION('',(0.,0.,1.));
#895=AXIS2_PLACEMENT_3D('',#892,#893,#894);
#896=CYLINDRICAL_SURFACE('',#895,10.);
#897=ORIENTED_EDGE('',*,*,#391,.T.);
#898=ORIENTED_EDGE('',*,*,#884,.T.);
#899=ORIENTED_EDGE('',*,*,#665,.T.);
#900=CARTESIAN_POINT('',(-782.,585.,1208.7));
#901=DIRECTION('',(1.,0.,-0.));
#902=VECTOR('',#901,26.);
#903=LINE('',#900,#902);
#904=EDGE_CURVE('',#651,#385,#903,.T.);
#905=ORIENTED_EDGE('',*,*,#904,.T.);
#906=EDGE_LOOP('',(#897,#898,#899,#905));
#907=FACE_BOUND('',#906,.T.);
#908=ADVANCED_FACE('',(#907),#896,.F.);
#909=CARTESIAN_POINT('',(-689.5,585.,1235.));
#910=DIRECTION('',(0.,1.,0.));
#911=DIRECTION('',(0.,0.,-1.));
#912=AXIS2_PLACEMENT_3D('',#909,#910,#911);
#913=PLANE('',#912);
#914=CARTESIAN_POINT('',(-756.,585.,1207.));
#915=DIRECTION('',(-1.,-0.,0.));
#916=VECTOR('',#915,26.);
#917=LINE('',#914,#916);
#918=EDGE_CURVE('',#394,#642,#917,.T.);
#919=ORIENTED_EDGE('',*,*,#918,.F.);
#920=ORIENTED_EDGE('',*,*,#399,.T.);
#921=ORIENTED_EDGE('',*,*,#904,.F.);
#922=ORIENTED_EDGE('',*,*,#656,.T.);
#923=EDGE_LOOP('',(#919,#920,#921,#922));
#924=FACE_BOUND('',#923,.T.);
#925=ADVANCED_FACE('',(#924),#913,.F.);
#926=CARTESIAN_POINT('',(-737.,579.,1197.));
#927=DIRECTION('',(0.,0.,-1.));
#928=DIRECTION('',(1.,0.,0.));
#929=AXIS2_PLACEMENT_3D('',#926,#927,#928);
#930=PLANE('',#929);
#931=ORIENTED_EDGE('',*,*,#416,.T.);
#932=CARTESIAN_POINT('',(-782.,575.,1197.));
#933=DIRECTION('',(1.,0.,-0.));
#934=VECTOR('',#933,26.);
#935=LINE('',#932,#934);
#936=EDGE_CURVE('',#634,#402,#935,.T.);
#937=ORIENTED_EDGE('',*,*,#936,.F.);
#938=ORIENTED_EDGE('',*,*,#639,.T.);
#939=CARTESIAN_POINT('',(-782.,568.389051666,1197.));
#940=DIRECTION('',(1.,-0.,-0.));
#941=VECTOR('',#940,26.);
#942=LINE('',#939,#941);
#943=EDGE_CURVE('',#626,#411,#942,.T.);
#944=ORIENTED_EDGE('',*,*,#943,.T.);
#945=EDGE_LOOP('',(#931,#937,#938,#944));
#946=FACE_BOUND('',#945,.T.);
#947=ADVANCED_FACE('',(#946),#930,.F.);
#948=CARTESIAN_POINT('',(-689.5,575.,1207.));
#949=DIRECTION('',(1.,0.,-0.));
#950=DIRECTION('',(0.,0.,1.));
#951=AXIS2_PLACEMENT_3D('',#948,#949,#950);
#952=CYLINDRICAL_SURFACE('',#951,10.);
#953=ORIENTED_EDGE('',*,*,#408,.T.);
#954=ORIENTED_EDGE('',*,*,#918,.T.);
#955=ORIENTED_EDGE('',*,*,#648,.T.);
#956=ORIENTED_EDGE('',*,*,#936,.T.);
#957=EDGE_LOOP('',(#953,#954,#955,#956));
#958=FACE_BOUND('',#957,.T.);
#959=ADVANCED_FACE('',(#958),#952,.F.);
#960=CARTESIAN_POINT('',(-733.,567.922148119,1196.683890909));
#961=DIRECTION('',(0.,0.560628809,-0.82806723));
#962=DIRECTION('',(-1.,0.,0.));
#963=AXIS2_PLACEMENT_3D('',#960,#961,#962);
#964=PLANE('',#963);
#965=ORIENTED_EDGE('',*,*,#424,.T.);
#966=ORIENTED_EDGE('',*,*,#943,.F.);
#967=ORIENTED_EDGE('',*,*,#631,.T.);
#968=ORIENTED_EDGE('',*,*,#808,.T.);
#969=EDGE_LOOP('',(#965,#966,#967,#968));
#970=FACE_BOUND('',#969,.T.);
#971=ADVANCED_FACE('',(#970),#964,.F.);
#972=CARTESIAN_POINT('',(-759.7,589.3,1203.499105134));
#973=DIRECTION('',(0.,0.,1.));
#974=DIRECTION('',(-1.,0.,0.));
#975=AXIS2_PLACEMENT_3D('',#972,#973,#974);
#976=CYLINDRICAL_SURFACE('',#975,0.8);
#977=ORIENTED_EDGE('',*,*,#171,.T.);
#978=ORIENTED_EDGE('',*,*,#503,.T.);
#979=ORIENTED_EDGE('',*,*,#792,.T.);
#980=ORIENTED_EDGE('',*,*,#853,.T.);
#981=EDGE_LOOP('',(#977,#978,#979,#980));
#982=FACE_BOUND('',#981,.T.);
#983=ADVANCED_FACE('',(#982),#976,.F.);
#984=CARTESIAN_POINT('',(-778.3,589.3,1203.499105134));
#985=DIRECTION('',(-0.,0.,-1.));
#986=DIRECTION('',(1.,0.,-0.));
#987=AXIS2_PLACEMENT_3D('',#984,#985,#986);
#988=CYLINDRICAL_SURFACE('',#987,0.8);
#989=ORIENTED_EDGE('',*,*,#777,.T.);
#990=ORIENTED_EDGE('',*,*,#576,.T.);
#991=ORIENTED_EDGE('',*,*,#188,.T.);
#992=ORIENTED_EDGE('',*,*,#846,.T.);
#993=EDGE_LOOP('',(#989,#990,#991,#992));
#994=FACE_BOUND('',#993,.T.);
#995=ADVANCED_FACE('',(#994),#988,.F.);
#996=CARTESIAN_POINT('',(-757.,598.5,1210.75));
#997=DIRECTION('',(1.,0.,-0.));
#998=DIRECTION('',(0.,0.,1.));
#999=AXIS2_PLACEMENT_3D('',#996,#997,#998);
#1000=CYLINDRICAL_SURFACE('',#999,4.5);
#1001=CARTESIAN_POINT('',(-757.,598.5,1215.25));
#1002=VERTEX_POINT('',#1001);
#1003=CARTESIAN_POINT('',(-756.,598.5,1215.25));
#1004=DIRECTION('',(-1.,-0.,-0.));
#1005=VECTOR('',#1004,1.);
#1006=LINE('',#1003,#1005);
#1007=EDGE_CURVE('',#333,#1002,#1006,.T.);
#1008=ORIENTED_EDGE('',*,*,#1007,.F.);
#1009=ORIENTED_EDGE('',*,*,#339,.F.);
#1010=ORIENTED_EDGE('',*,*,#346,.F.);
#1011=ORIENTED_EDGE('',*,*,#1007,.T.);
#1012=CARTESIAN_POINT('',(-757.,598.5,1210.75));
#1013=DIRECTION('',(-1.,0.,0.));
#1014=DIRECTION('',(0.,0.,1.));
#1015=AXIS2_PLACEMENT_3D('',#1012,#1013,#1014);
#1016=CIRCLE('',#1015,4.5);
#1017=EDGE_CURVE('',#1002,#1002,#1016,.T.);
#1018=ORIENTED_EDGE('',*,*,#1017,.T.);
#1019=EDGE_LOOP('',(#1008,#1009,#1010,#1011,#1018));
#1020=FACE_BOUND('',#1019,.T.);
#1021=ADVANCED_FACE('',(#1020),#1000,.F.);
#1022=CARTESIAN_POINT('',(-757.,0.,2501.));
#1023=DIRECTION('',(1.,0.,0.));
#1024=DIRECTION('',(0.,1.,0.));
#1025=AXIS2_PLACEMENT_3D('',#1022,#1023,#1024);
#1026=PLANE('',#1025);
#1027=ORIENTED_EDGE('',*,*,#1017,.F.);
#1028=EDGE_LOOP('',(#1027));
#1029=FACE_BOUND('',#1028,.T.);
#1030=ORIENTED_EDGE('',*,*,#731,.F.);
#1031=ORIENTED_EDGE('',*,*,#738,.F.);
#1032=EDGE_LOOP('',(#1030,#1031));
#1033=FACE_BOUND('',#1032,.T.);
#1034=ADVANCED_FACE('',(#1029,#1033),#1026,.T.);
#1035=CARTESIAN_POINT('',(-663.5,569.242640687,1226.257359313));
#1036=DIRECTION('',(0.,0.707106781,-0.707106781));
#1037=DIRECTION('',(1.,0.,0.));
#1038=AXIS2_PLACEMENT_3D('',#1035,#1036,#1037);
#1039=PLANE('',#1038);
#1040=ORIENTED_EDGE('',*,*,#697,.T.);
#1041=ORIENTED_EDGE('',*,*,#830,.T.);
#1042=ORIENTED_EDGE('',*,*,#358,.T.);
#1043=CARTESIAN_POINT('',(-757.,587.485281374,1244.5));
#1044=DIRECTION('',(0.577350269,-0.577350269,-0.577350269));
#1045=VECTOR('',#1044,1.732050808);
#1046=LINE('',#1043,#1045);
#1047=EDGE_CURVE('',#33,#353,#1046,.T.);
#1048=ORIENTED_EDGE('',*,*,#1047,.F.);
#1049=ORIENTED_EDGE('',*,*,#40,.T.);
#1050=CARTESIAN_POINT('',(-782.,586.485281374,1243.5));
#1051=DIRECTION('',(0.577350269,0.577350269,0.577350269));
#1052=VECTOR('',#1051,1.732050808);
#1053=LINE('',#1050,#1052);
#1054=EDGE_CURVE('',#692,#35,#1053,.T.);
#1055=ORIENTED_EDGE('',*,*,#1054,.F.);
#1056=EDGE_LOOP('',(#1040,#1041,#1042,#1048,#1049,#1055));
#1057=FACE_BOUND('',#1056,.T.);
#1058=ADVANCED_FACE('',(#1057),#1039,.F.);
#1059=CARTESIAN_POINT('',(-693.,600.982842712,1190.717157288));
#1060=DIRECTION('',(0.,0.707106781,-0.707106781));
#1061=DIRECTION('',(1.,0.,0.));
#1062=AXIS2_PLACEMENT_3D('',#1059,#1060,#1061);
#1063=PLANE('',#1062);
#1064=ORIENTED_EDGE('',*,*,#590,.T.);
#1065=ORIENTED_EDGE('',*,*,#767,.T.);
#1066=ORIENTED_EDGE('',*,*,#607,.T.);
#1067=ORIENTED_EDGE('',*,*,#544,.T.);
#1068=ORIENTED_EDGE('',*,*,#267,.T.);
#1069=EDGE_LOOP('',(#1064,#1065,#1066,#1067,#1068));
#1070=FACE_BOUND('',#1069,.T.);
#1071=ADVANCED_FACE('',(#1070),#1063,.T.);
#1072=CARTESIAN_POINT('',(-693.,600.982842712,1190.717157288));
#1073=DIRECTION('',(0.,0.707106781,-0.707106781));
#1074=DIRECTION('',(1.,0.,0.));
#1075=AXIS2_PLACEMENT_3D('',#1072,#1073,#1074);
#1076=PLANE('',#1075);
#1077=ORIENTED_EDGE('',*,*,#446,.T.);
#1078=ORIENTED_EDGE('',*,*,#753,.T.);
#1079=ORIENTED_EDGE('',*,*,#489,.T.);
#1080=ORIENTED_EDGE('',*,*,#244,.T.);
#1081=ORIENTED_EDGE('',*,*,#305,.T.);
#1082=EDGE_LOOP('',(#1077,#1078,#1079,#1080,#1081));
#1083=FACE_BOUND('',#1082,.T.);
#1084=ADVANCED_FACE('',(#1083),#1076,.T.);
#1085=CARTESIAN_POINT('',(-760.1625,608.9,1249.1));
#1086=DIRECTION('',(0.,-1.,0.));
#1087=DIRECTION('',(0.,0.,1.));
#1088=AXIS2_PLACEMENT_3D('',#1085,#1086,#1087);
#1089=PLANE('',#1088);
#1090=ORIENTED_EDGE('',*,*,#112,.F.);
#1091=CARTESIAN_POINT('',(-761.425,608.9,1244.5));
#1092=DIRECTION('',(0.,0.,-1.));
#1093=VECTOR('',#1092,2.);
#1094=LINE('',#1091,#1093);
#1095=EDGE_CURVE('',#101,#123,#1094,.T.);
#1096=ORIENTED_EDGE('',*,*,#1095,.T.);
#1097=ORIENTED_EDGE('',*,*,#218,.T.);
#1098=ORIENTED_EDGE('',*,*,#517,.F.);
#1099=EDGE_LOOP('',(#1090,#1096,#1097,#1098));
#1100=FACE_BOUND('',#1099,.T.);
#1101=ADVANCED_FACE('',(#1100),#1089,.T.);
#1102=CARTESIAN_POINT('',(-760.1625,591.5,1249.1));
#1103=DIRECTION('',(0.,-1.,0.));
#1104=DIRECTION('',(0.,0.,1.));
#1105=AXIS2_PLACEMENT_3D('',#1102,#1103,#1104);
#1106=PLANE('',#1105);
#1107=CARTESIAN_POINT('',(-761.425,591.5,1244.5));
#1108=DIRECTION('',(0.,0.,-1.));
#1109=VECTOR('',#1108,2.);
#1110=LINE('',#1107,#1109);
#1111=EDGE_CURVE('',#77,#141,#1110,.T.);
#1112=ORIENTED_EDGE('',*,*,#1111,.F.);
#1113=ORIENTED_EDGE('',*,*,#82,.T.);
#1114=ORIENTED_EDGE('',*,*,#510,.T.);
#1115=ORIENTED_EDGE('',*,*,#154,.F.);
#1116=EDGE_LOOP('',(#1112,#1113,#1114,#1115));
#1117=FACE_BOUND('',#1116,.T.);
#1118=ADVANCED_FACE('',(#1117),#1106,.F.);
#1119=CARTESIAN_POINT('',(-762.6875,607.5,1249.1));
#1120=DIRECTION('',(-0.742634382,0.669697077,0.));
#1121=DIRECTION('',(-0.669697077,-0.742634382,0.));
#1122=AXIS2_PLACEMENT_3D('',#1119,#1120,#1121);
#1123=PLANE('',#1122);
#1124=ORIENTED_EDGE('',*,*,#1095,.F.);
#1125=ORIENTED_EDGE('',*,*,#106,.T.);
#1126=CARTESIAN_POINT('',(-765.05,604.88019802,1244.5));
#1127=DIRECTION('',(0.,0.,-1.));
#1128=VECTOR('',#1127,2.);
#1129=LINE('',#1126,#1128);
#1130=EDGE_CURVE('',#93,#125,#1129,.T.);
#1131=ORIENTED_EDGE('',*,*,#1130,.T.);
#1132=ORIENTED_EDGE('',*,*,#130,.F.);
#1133=EDGE_LOOP('',(#1124,#1125,#1131,#1132));
#1134=FACE_BOUND('',#1133,.T.);
#1135=ADVANCED_FACE('',(#1134),#1123,.F.);
#1136=CARTESIAN_POINT('',(-765.05,597.5,1249.1));
#1137=DIRECTION('',(1.,0.,0.));
#1138=DIRECTION('',(0.,0.,1.));
#1139=AXIS2_PLACEMENT_3D('',#1136,#1137,#1138);
#1140=PLANE('',#1139);
#1141=ORIENTED_EDGE('',*,*,#98,.F.);
#1142=CARTESIAN_POINT('',(-765.05,595.806930693,1244.5));
#1143=DIRECTION('',(0.,0.,-1.));
#1144=VECTOR('',#1143,2.);
#1145=LINE('',#1142,#1144);
#1146=EDGE_CURVE('',#85,#133,#1145,.T.);
#1147=ORIENTED_EDGE('',*,*,#1146,.T.);
#1148=ORIENTED_EDGE('',*,*,#138,.T.);
#1149=ORIENTED_EDGE('',*,*,#1130,.F.);
#1150=EDGE_LOOP('',(#1141,#1147,#1148,#1149));
#1151=FACE_BOUND('',#1150,.T.);
#1152=ADVANCED_FACE('',(#1151),#1140,.T.);
#1153=CARTESIAN_POINT('',(-762.6875,593.,1249.1));
#1154=DIRECTION('',(0.765076505,0.643939392,0.));
#1155=DIRECTION('',(-0.643939392,0.765076505,0.));
#1156=AXIS2_PLACEMENT_3D('',#1153,#1154,#1155);
#1157=PLANE('',#1156);
#1158=ORIENTED_EDGE('',*,*,#90,.F.);
#1159=ORIENTED_EDGE('',*,*,#1111,.T.);
#1160=ORIENTED_EDGE('',*,*,#146,.T.);
#1161=ORIENTED_EDGE('',*,*,#1146,.F.);
#1162=EDGE_LOOP('',(#1158,#1159,#1160,#1161));
#1163=FACE_BOUND('',#1162,.T.);
#1164=ADVANCED_FACE('',(#1163),#1157,.T.);
#1165=CARTESIAN_POINT('',(-769.,611.7,1243.5));
#1166=DIRECTION('',(0.,0.707106781,0.707106781));
#1167=DIRECTION('',(1.,0.,0.));
#1168=AXIS2_PLACEMENT_3D('',#1165,#1166,#1167);
#1169=PLANE('',#1168);
#1170=ORIENTED_EDGE('',*,*,#56,.T.);
#1171=CARTESIAN_POINT('',(-756.5,611.2,1244.));
#1172=DIRECTION('',(-0.577350269,-0.577350269,0.577350269));
#1173=VECTOR('',#1172,0.866025404);
#1174=LINE('',#1171,#1173);
#1175=EDGE_CURVE('',#309,#43,#1174,.T.);
#1176=ORIENTED_EDGE('',*,*,#1175,.F.);
#1177=ORIENTED_EDGE('',*,*,#314,.T.);
#1178=ORIENTED_EDGE('',*,*,#281,.T.);
#1179=ORIENTED_EDGE('',*,*,#535,.T.);
#1180=CARTESIAN_POINT('',(-781.,610.7,1244.5));
#1181=DIRECTION('',(-0.577350269,0.577350269,-0.577350269));
#1182=VECTOR('',#1181,0.866025404);
#1183=LINE('',#1180,#1182);
#1184=EDGE_CURVE('',#51,#530,#1183,.T.);
#1185=ORIENTED_EDGE('',*,*,#1184,.F.);
#1186=EDGE_LOOP('',(#1170,#1176,#1177,#1178,#1179,#1185));
#1187=FACE_BOUND('',#1186,.T.);
#1188=ADVANCED_FACE('',(#1187),#1169,.T.);
#1189=CARTESIAN_POINT('',(-757.,573.,1244.5));
#1190=DIRECTION('',(-0.707106781,0.,-0.707106781));
#1191=DIRECTION('',(0.,-1.,0.));
#1192=AXIS2_PLACEMENT_3D('',#1189,#1190,#1191);
#1193=PLANE('',#1192);
#1194=ORIENTED_EDGE('',*,*,#320,.T.);
#1195=ORIENTED_EDGE('',*,*,#1175,.T.);
#1196=ORIENTED_EDGE('',*,*,#48,.T.);
#1197=ORIENTED_EDGE('',*,*,#1047,.T.);
#1198=ORIENTED_EDGE('',*,*,#453,.T.);
#1199=EDGE_LOOP('',(#1194,#1195,#1196,#1197,#1198));
#1200=FACE_BOUND('',#1199,.T.);
#1201=ADVANCED_FACE('',(#1200),#1193,.F.);
#1202=CARTESIAN_POINT('',(-781.,573.,1244.5));
#1203=DIRECTION('',(0.707106781,0.,-0.707106781));
#1204=DIRECTION('',(0.,1.,0.));
#1205=AXIS2_PLACEMENT_3D('',#1202,#1203,#1204);
#1206=PLANE('',#1205);
#1207=ORIENTED_EDGE('',*,*,#1054,.T.);
#1208=ORIENTED_EDGE('',*,*,#62,.T.);
#1209=ORIENTED_EDGE('',*,*,#1184,.T.);
#1210=ORIENTED_EDGE('',*,*,#558,.T.);
#1211=ORIENTED_EDGE('',*,*,#703,.T.);
#1212=EDGE_LOOP('',(#1207,#1208,#1209,#1210,#1211));
#1213=FACE_BOUND('',#1212,.T.);
#1214=ADVANCED_FACE('',(#1213),#1206,.F.);
#1215=CLOSED_SHELL('',(#116,#222,#285,#324,#457,#523,#562,#594,#707,#742,#796,#813,#835,#857,#874,#891,#908,#925,#947,#959,#971,#983,#995,#1021,#1034,#1058,
#1071,#1084,#1101,#1118,#1135,#1152,#1164,#1188,#1201,#1214));
#1216=MANIFOLD_SOLID_BREP('Body 131 (2)',#1215);
#1217=COLOUR_RGB('',0.627451003,0.627451003,0.643137276);
#1218=FILL_AREA_STYLE_COLOUR('',#1217);
#1219=FILL_AREA_STYLE('',(#1218));
#1220=SURFACE_STYLE_FILL_AREA(#1219);
#1221=SURFACE_SIDE_STYLE('',(#1220));
#1222=SURFACE_STYLE_USAGE(.BOTH.,#1221);
#1223=PRESENTATION_STYLE_ASSIGNMENT((#1222));
#26=STYLED_ITEM('',(#1223),#1216);
#1225=CARTESIAN_POINT('',(-711.,573.,1256.5));
#1226=DIRECTION('',(0.,0.,1.));
#1227=DIRECTION('',(1.,0.,0.));
#1228=AXIS2_PLACEMENT_3D('',#1225,#1226,#1227);
#1229=PLANE('',#1228);
#1230=CARTESIAN_POINT('',(-757.,587.485281374,1256.5));
#1231=VERTEX_POINT('',#1230);
#1232=CARTESIAN_POINT('',(-781.,587.485281374,1256.5));
#1233=VERTEX_POINT('',#1232);
#1234=CARTESIAN_POINT('',(-757.,587.485281374,1256.5));
#1235=DIRECTION('',(-1.,-0.,0.));
#1236=VECTOR('',#1235,24.);
#1237=LINE('',#1234,#1236);
#1238=EDGE_CURVE('',#1231,#1233,#1237,.T.);
#1239=ORIENTED_EDGE('',*,*,#1238,.T.);
#1240=CARTESIAN_POINT('',(-781.,610.7,1256.5));
#1241=VERTEX_POINT('',#1240);
#1242=CARTESIAN_POINT('',(-781.,587.485281374,1256.5));
#1243=DIRECTION('',(0.,1.,0.));
#1244=VECTOR('',#1243,23.214718626);
#1245=LINE('',#1242,#1244);
#1246=EDGE_CURVE('',#1233,#1241,#1245,.T.);
#1247=ORIENTED_EDGE('',*,*,#1246,.T.);
#1248=CARTESIAN_POINT('',(-757.,610.7,1256.5));
#1249=VERTEX_POINT('',#1248);
#1250=CARTESIAN_POINT('',(-781.,610.7,1256.5));
#1251=DIRECTION('',(1.,0.,-0.));
#1252=VECTOR('',#1251,24.);
#1253=LINE('',#1250,#1252);
#1254=EDGE_CURVE('',#1241,#1249,#1253,.T.);
#1255=ORIENTED_EDGE('',*,*,#1254,.T.);
#1256=CARTESIAN_POINT('',(-757.,610.7,1256.5));
#1257=DIRECTION('',(0.,-1.,0.));
#1258=VECTOR('',#1257,23.214718626);
#1259=LINE('',#1256,#1258);
#1260=EDGE_CURVE('',#1249,#1231,#1259,.T.);
#1261=ORIENTED_EDGE('',*,*,#1260,.T.);
#1262=EDGE_LOOP('',(#1239,#1247,#1255,#1261));
#1263=FACE_BOUND('',#1262,.T.);
#1264=CARTESIAN_POINT('',(-758.9,608.9,1256.5));
#1265=VERTEX_POINT('',#1264);
#1266=CARTESIAN_POINT('',(-758.9,591.5,1256.5));
#1267=VERTEX_POINT('',#1266);
#1268=CARTESIAN_POINT('',(-758.9,608.9,1256.5));
#1269=DIRECTION('',(0.,-1.,0.));
#1270=VECTOR('',#1269,17.4);
#1271=LINE('',#1268,#1270);
#1272=EDGE_CURVE('',#1265,#1267,#1271,.T.);
#1273=ORIENTED_EDGE('',*,*,#1272,.F.);
#1274=CARTESIAN_POINT('',(-761.425,608.9,1256.5));
#1275=VERTEX_POINT('',#1274);
#1276=CARTESIAN_POINT('',(-761.425,608.9,1256.5));
#1277=DIRECTION('',(1.,0.,-0.));
#1278=VECTOR('',#1277,2.525);
#1279=LINE('',#1276,#1278);
#1280=EDGE_CURVE('',#1275,#1265,#1279,.T.);
#1281=ORIENTED_EDGE('',*,*,#1280,.F.);
#1282=CARTESIAN_POINT('',(-765.05,604.88019802,1256.5));
#1283=VERTEX_POINT('',#1282);
#1284=CARTESIAN_POINT('',(-761.425,608.9,1256.5));
#1285=DIRECTION('',(-0.669697077,-0.742634382,0.));
#1286=VECTOR('',#1285,5.412895063);
#1287=LINE('',#1284,#1286);
#1288=EDGE_CURVE('',#1275,#1283,#1287,.T.);
#1289=ORIENTED_EDGE('',*,*,#1288,.T.);
#1290=CARTESIAN_POINT('',(-765.05,595.806930693,1256.5));
#1291=VERTEX_POINT('',#1290);
#1292=CARTESIAN_POINT('',(-765.05,595.806930693,1256.5));
#1293=DIRECTION('',(0.,1.,0.));
#1294=VECTOR('',#1293,9.073267327);
#1295=LINE('',#1292,#1294);
#1296=EDGE_CURVE('',#1291,#1283,#1295,.T.);
#1297=ORIENTED_EDGE('',*,*,#1296,.F.);
#1298=CARTESIAN_POINT('',(-761.425,591.5,1256.5));
#1299=VERTEX_POINT('',#1298);
#1300=CARTESIAN_POINT('',(-761.425,591.5,1256.5));
#1301=DIRECTION('',(-0.643939392,0.765076505,0.));
#1302=VECTOR('',#1301,5.629411781);
#1303=LINE('',#1300,#1302);
#1304=EDGE_CURVE('',#1299,#1291,#1303,.T.);
#1305=ORIENTED_EDGE('',*,*,#1304,.F.);
#1306=CARTESIAN_POINT('',(-761.425,591.5,1256.5));
#1307=DIRECTION('',(1.,0.,-0.));
#1308=VECTOR('',#1307,2.525);
#1309=LINE('',#1306,#1308);
#1310=EDGE_CURVE('',#1299,#1267,#1309,.T.);
#1311=ORIENTED_EDGE('',*,*,#1310,.T.);
#1312=EDGE_LOOP('',(#1273,#1281,#1289,#1297,#1305,#1311));
#1313=FACE_BOUND('',#1312,.T.);
#1314=ADVANCED_FACE('',(#1263,#1313),#1229,.F.);
#1315=CARTESIAN_POINT('',(-711.,573.,1258.5));
#1316=DIRECTION('',(0.,0.,1.));
#1317=DIRECTION('',(1.,0.,0.));
#1318=AXIS2_PLACEMENT_3D('',#1315,#1316,#1317);
#1319=PLANE('',#1318);
#1320=CARTESIAN_POINT('',(-761.425,608.9,1258.5));
#1321=VERTEX_POINT('',#1320);
#1322=CARTESIAN_POINT('',(-765.05,604.88019802,1258.5));
#1323=VERTEX_POINT('',#1322);
#1324=CARTESIAN_POINT('',(-761.425,608.9,1258.5));
#1325=DIRECTION('',(-0.669697077,-0.742634382,0.));
#1326=VECTOR('',#1325,5.412895063);
#1327=LINE('',#1324,#1326);
#1328=EDGE_CURVE('',#1321,#1323,#1327,.T.);
#1329=ORIENTED_EDGE('',*,*,#1328,.F.);
#1330=CARTESIAN_POINT('',(-758.9,608.9,1258.5));
#1331=VERTEX_POINT('',#1330);
#1332=CARTESIAN_POINT('',(-761.425,608.9,1258.5));
#1333=DIRECTION('',(1.,0.,-0.));
#1334=VECTOR('',#1333,2.525);
#1335=LINE('',#1332,#1334);
#1336=EDGE_CURVE('',#1321,#1331,#1335,.T.);
#1337=ORIENTED_EDGE('',*,*,#1336,.T.);
#1338=CARTESIAN_POINT('',(-758.9,611.7,1258.5));
#1339=VERTEX_POINT('',#1338);
#1340=CARTESIAN_POINT('',(-758.9,611.7,1258.5));
#1341=DIRECTION('',(0.,-1.,0.));
#1342=VECTOR('',#1341,2.8);
#1343=LINE('',#1340,#1342);
#1344=EDGE_CURVE('',#1339,#1331,#1343,.T.);
#1345=ORIENTED_EDGE('',*,*,#1344,.F.);
#1346=CARTESIAN_POINT('',(-779.1,611.7,1258.5));
#1347=VERTEX_POINT('',#1346);
#1348=CARTESIAN_POINT('',(-758.9,611.7,1258.5));
#1349=DIRECTION('',(-1.,0.,0.));
#1350=VECTOR('',#1349,20.2);
#1351=LINE('',#1348,#1350);
#1352=EDGE_CURVE('',#1339,#1347,#1351,.T.);
#1353=ORIENTED_EDGE('',*,*,#1352,.T.);
#1354=CARTESIAN_POINT('',(-779.1,589.3,1258.5));
#1355=VERTEX_POINT('',#1354);
#1356=CARTESIAN_POINT('',(-779.1,611.7,1258.5));
#1357=DIRECTION('',(0.,-1.,0.));
#1358=VECTOR('',#1357,22.4);
#1359=LINE('',#1356,#1358);
#1360=EDGE_CURVE('',#1347,#1355,#1359,.T.);
#1361=ORIENTED_EDGE('',*,*,#1360,.T.);
#1362=CARTESIAN_POINT('',(-778.300004023,588.5,1258.5));
#1363=VERTEX_POINT('',#1362);
#1364=CARTESIAN_POINT('',(-778.3,589.3,1258.5));
#1365=DIRECTION('',(0.,0.,1.));
#1366=DIRECTION('',(1.,0.,-0.));
#1367=AXIS2_PLACEMENT_3D('',#1364,#1365,#1366);
#1368=CIRCLE('',#1367,0.8);
#1369=EDGE_CURVE('',#1355,#1363,#1368,.T.);
#1370=ORIENTED_EDGE('',*,*,#1369,.T.);
#1371=CARTESIAN_POINT('',(-759.700004023,588.5,1258.5));
#1372=VERTEX_POINT('',#1371);
#1373=CARTESIAN_POINT('',(-759.700004023,588.5,1258.5));
#1374=DIRECTION('',(-1.,0.,0.));
#1375=VECTOR('',#1374,18.6);
#1376=LINE('',#1373,#1375);
#1377=EDGE_CURVE('',#1372,#1363,#1376,.T.);
#1378=ORIENTED_EDGE('',*,*,#1377,.F.);
#1379=CARTESIAN_POINT('',(-758.9,589.3,1258.5));
#1380=VERTEX_POINT('',#1379);
#1381=CARTESIAN_POINT('',(-759.7,589.3,1258.5));
#1382=DIRECTION('',(0.,0.,1.));
#1383=DIRECTION('',(1.,0.,-0.));
#1384=AXIS2_PLACEMENT_3D('',#1381,#1382,#1383);
#1385=CIRCLE('',#1384,0.8);
#1386=EDGE_CURVE('',#1372,#1380,#1385,.T.);
#1387=ORIENTED_EDGE('',*,*,#1386,.T.);
#1388=CARTESIAN_POINT('',(-758.9,591.5,1258.5));
#1389=VERTEX_POINT('',#1388);
#1390=CARTESIAN_POINT('',(-758.9,591.5,1258.5));
#1391=DIRECTION('',(0.,-1.,0.));
#1392=VECTOR('',#1391,2.2);
#1393=LINE('',#1390,#1392);
#1394=EDGE_CURVE('',#1389,#1380,#1393,.T.);
#1395=ORIENTED_EDGE('',*,*,#1394,.F.);
#1396=CARTESIAN_POINT('',(-761.425,591.5,1258.5));
#1397=VERTEX_POINT('',#1396);
#1398=CARTESIAN_POINT('',(-761.425,591.5,1258.5));
#1399=DIRECTION('',(1.,0.,-0.));
#1400=VECTOR('',#1399,2.525);
#1401=LINE('',#1398,#1400);
#1402=EDGE_CURVE('',#1397,#1389,#1401,.T.);
#1403=ORIENTED_EDGE('',*,*,#1402,.F.);
#1404=CARTESIAN_POINT('',(-765.05,595.806930693,1258.5));
#1405=VERTEX_POINT('',#1404);
#1406=CARTESIAN_POINT('',(-761.425,591.5,1258.5));
#1407=DIRECTION('',(-0.643939392,0.765076505,0.));
#1408=VECTOR('',#1407,5.629411781);
#1409=LINE('',#1406,#1408);
#1410=EDGE_CURVE('',#1397,#1405,#1409,.T.);
#1411=ORIENTED_EDGE('',*,*,#1410,.T.);
#1412=CARTESIAN_POINT('',(-765.05,595.806930693,1258.5));
#1413=DIRECTION('',(0.,1.,0.));
#1414=VECTOR('',#1413,9.073267327);
#1415=LINE('',#1412,#1414);
#1416=EDGE_CURVE('',#1405,#1323,#1415,.T.);
#1417=ORIENTED_EDGE('',*,*,#1416,.T.);
#1418=EDGE_LOOP('',(#1329,#1337,#1345,#1353,#1361,#1370,#1378,#1387,#1395,#1403,#1411,#1417));
#1419=FACE_BOUND('',#1418,.T.);
#1420=ADVANCED_FACE('',(#1419),#1319,.T.);
#1421=CARTESIAN_POINT('',(-769.,611.7,1271.));
#1422=DIRECTION('',(0.,1.,0.));
#1423=DIRECTION('',(0.,0.,1.));
#1424=AXIS2_PLACEMENT_3D('',#1421,#1422,#1423);
#1425=PLANE('',#1424);
#1426=CARTESIAN_POINT('',(-757.,611.7,1299.565685425));
#1427=VERTEX_POINT('',#1426);
#1428=CARTESIAN_POINT('',(-757.,611.7,1257.5));
#1429=VERTEX_POINT('',#1428);
#1430=CARTESIAN_POINT('',(-757.,611.7,1299.565685425));
#1431=DIRECTION('',(0.,0.,-1.));
#1432=VECTOR('',#1431,42.065685425);
#1433=LINE('',#1430,#1432);
#1434=EDGE_CURVE('',#1427,#1429,#1433,.T.);
#1435=ORIENTED_EDGE('',*,*,#1434,.T.);
#1436=CARTESIAN_POINT('',(-781.,611.7,1257.5));
#1437=VERTEX_POINT('',#1436);
#1438=CARTESIAN_POINT('',(-757.,611.7,1257.5));
#1439=DIRECTION('',(-1.,0.,0.));
#1440=VECTOR('',#1439,24.);
#1441=LINE('',#1438,#1440);
#1442=EDGE_CURVE('',#1429,#1437,#1441,.T.);
#1443=ORIENTED_EDGE('',*,*,#1442,.T.);
#1444=CARTESIAN_POINT('',(-781.,611.7,1299.565685425));
#1445=VERTEX_POINT('',#1444);
#1446=CARTESIAN_POINT('',(-781.,611.7,1257.5));
#1447=DIRECTION('',(0.,0.,1.));
#1448=VECTOR('',#1447,42.065685425);
#1449=LINE('',#1446,#1448);
#1450=EDGE_CURVE('',#1437,#1445,#1449,.T.);
#1451=ORIENTED_EDGE('',*,*,#1450,.T.);
#1452=CARTESIAN_POINT('',(-779.1,611.7,1299.565685425));
#1453=VERTEX_POINT('',#1452);
#1454=CARTESIAN_POINT('',(-781.,611.7,1299.565685425));
#1455=DIRECTION('',(1.,0.,-0.));
#1456=VECTOR('',#1455,1.9);
#1457=LINE('',#1454,#1456);
#1458=EDGE_CURVE('',#1445,#1453,#1457,.T.);
#1459=ORIENTED_EDGE('',*,*,#1458,.T.);
#1460=CARTESIAN_POINT('',(-779.1,611.7,1258.5));
#1461=DIRECTION('',(-0.,0.,1.));
#1462=VECTOR('',#1461,41.065685425);
#1463=LINE('',#1460,#1462);
#1464=EDGE_CURVE('',#1347,#1453,#1463,.T.);
#1465=ORIENTED_EDGE('',*,*,#1464,.F.);
#1466=ORIENTED_EDGE('',*,*,#1352,.F.);
#1467=CARTESIAN_POINT('',(-758.9,611.7,1299.565685425));
#1468=VERTEX_POINT('',#1467);
#1469=CARTESIAN_POINT('',(-758.9,611.7,1258.5));
#1470=DIRECTION('',(-0.,0.,1.));
#1471=VECTOR('',#1470,41.065685425);
#1472=LINE('',#1469,#1471);
#1473=EDGE_CURVE('',#1339,#1468,#1472,.T.);
#1474=ORIENTED_EDGE('',*,*,#1473,.T.);
#1475=CARTESIAN_POINT('',(-758.9,611.7,1299.565685425));
#1476=DIRECTION('',(1.,0.,-0.));
#1477=VECTOR('',#1476,1.9);
#1478=LINE('',#1475,#1477);
#1479=EDGE_CURVE('',#1468,#1427,#1478,.T.);
#1480=ORIENTED_EDGE('',*,*,#1479,.T.);
#1481=EDGE_LOOP('',(#1435,#1443,#1451,#1459,#1465,#1466,#1474,#1480));
#1482=FACE_BOUND('',#1481,.T.);
#1483=ADVANCED_FACE('',(#1482),#1425,.T.);
#1484=CARTESIAN_POINT('',(-754.,608.7,1293.25));
#1485=DIRECTION('',(0.707106781,0.707106781,0.));
#1486=DIRECTION('',(0.,0.,-1.));
#1487=AXIS2_PLACEMENT_3D('',#1484,#1485,#1486);
#1488=PLANE('',#1487);
#1489=CARTESIAN_POINT('',(-756.,610.7,1257.5));
#1490=VERTEX_POINT('',#1489);
#1491=CARTESIAN_POINT('',(-756.,610.7,1300.565685425));
#1492=VERTEX_POINT('',#1491);
#1493=CARTESIAN_POINT('',(-756.,610.7,1257.5));
#1494=DIRECTION('',(0.,0.,1.));
#1495=VECTOR('',#1494,43.065685425);
#1496=LINE('',#1493,#1495);
#1497=EDGE_CURVE('',#1490,#1492,#1496,.T.);
#1498=ORIENTED_EDGE('',*,*,#1497,.F.);
#1499=CARTESIAN_POINT('',(-756.5,611.2,1257.));
#1500=VERTEX_POINT('',#1499);
#1501=CARTESIAN_POINT('',(-756.,610.7,1257.5));
#1502=DIRECTION('',(-0.577350269,0.577350269,-0.577350269));
#1503=VECTOR('',#1502,0.866025404);
#1504=LINE('',#1501,#1503);
#1505=EDGE_CURVE('',#1490,#1500,#1504,.T.);
#1506=ORIENTED_EDGE('',*,*,#1505,.T.);
#1507=CARTESIAN_POINT('',(-756.5,611.2,1257.));
#1508=DIRECTION('',(-0.577350269,0.577350269,0.577350269));
#1509=VECTOR('',#1508,0.866025404);
#1510=LINE('',#1507,#1509);
#1511=EDGE_CURVE('',#1500,#1429,#1510,.T.);
#1512=ORIENTED_EDGE('',*,*,#1511,.T.);
#1513=ORIENTED_EDGE('',*,*,#1434,.F.);
#1514=CARTESIAN_POINT('',(-757.,611.7,1299.565685425));
#1515=DIRECTION('',(0.577350269,-0.577350269,0.577350269));
#1516=VECTOR('',#1515,1.732050808);
#1517=LINE('',#1514,#1516);
#1518=EDGE_CURVE('',#1427,#1492,#1517,.T.);
#1519=ORIENTED_EDGE('',*,*,#1518,.T.);
#1520=EDGE_LOOP('',(#1498,#1506,#1512,#1513,#1519));
#1521=FACE_BOUND('',#1520,.T.);
#1522=ADVANCED_FACE('',(#1521),#1488,.T.);
#1523=CARTESIAN_POINT('',(-756.,608.,1293.25));
#1524=DIRECTION('',(-1.,0.,0.));
#1525=DIRECTION('',(0.,0.,1.));
#1526=AXIS2_PLACEMENT_3D('',#1523,#1524,#1525);
#1527=PLANE('',#1526);
#1528=CARTESIAN_POINT('',(-756.,598.5,1285.75));
#1529=VERTEX_POINT('',#1528);
#1530=CARTESIAN_POINT('',(-756.,598.5,1294.75));
#1531=VERTEX_POINT('',#1530);
#1532=CARTESIAN_POINT('',(-756.,598.5,1290.25));
#1533=DIRECTION('',(1.,-0.,-0.));
#1534=DIRECTION('',(0.,0.,1.));
#1535=AXIS2_PLACEMENT_3D('',#1532,#1533,#1534);
#1536=CIRCLE('',#1535,4.5);
#1537=EDGE_CURVE('',#1529,#1531,#1536,.T.);
#1538=ORIENTED_EDGE('',*,*,#1537,.F.);
#1539=CARTESIAN_POINT('',(-756.,598.5,1290.25));
#1540=DIRECTION('',(1.,-0.,-0.));
#1541=DIRECTION('',(0.,0.,1.));
#1542=AXIS2_PLACEMENT_3D('',#1539,#1540,#1541);
#1543=CIRCLE('',#1542,4.5);
#1544=EDGE_CURVE('',#1531,#1529,#1543,.T.);
#1545=ORIENTED_EDGE('',*,*,#1544,.F.);
#1546=EDGE_LOOP('',(#1538,#1545));
#1547=FACE_BOUND('',#1546,.T.);
#1548=CARTESIAN_POINT('',(-756.,565.,1278.985281374));
#1549=VERTEX_POINT('',#1548);
#1550=CARTESIAN_POINT('',(-756.,586.485281374,1257.5));
#1551=VERTEX_POINT('',#1550);
#1552=CARTESIAN_POINT('',(-756.,565.,1278.985281374));
#1553=DIRECTION('',(-0.,0.707106781,-0.707106781));
#1554=VECTOR('',#1553,30.384776311);
#1555=LINE('',#1552,#1554);
#1556=EDGE_CURVE('',#1549,#1551,#1555,.T.);
#1557=ORIENTED_EDGE('',*,*,#1556,.T.);
#1558=CARTESIAN_POINT('',(-756.,586.485281374,1257.5));
#1559=DIRECTION('',(0.,1.,0.));
#1560=VECTOR('',#1559,24.214718626);
#1561=LINE('',#1558,#1560);
#1562=EDGE_CURVE('',#1551,#1490,#1561,.T.);
#1563=ORIENTED_EDGE('',*,*,#1562,.T.);
#1564=ORIENTED_EDGE('',*,*,#1497,.T.);
#1565=CARTESIAN_POINT('',(-756.,601.265685425,1310.));
#1566=VERTEX_POINT('',#1565);
#1567=CARTESIAN_POINT('',(-756.,610.7,1300.565685425));
#1568=DIRECTION('',(0.,-0.707106781,0.707106781));
#1569=VECTOR('',#1568,13.342135624);
#1570=LINE('',#1567,#1569);
#1571=EDGE_CURVE('',#1492,#1566,#1570,.T.);
#1572=ORIENTED_EDGE('',*,*,#1571,.T.);
#1573=CARTESIAN_POINT('',(-756.,565.,1310.));
#1574=VERTEX_POINT('',#1573);
#1575=CARTESIAN_POINT('',(-756.,601.265685425,1310.));
#1576=DIRECTION('',(0.,-1.,0.));
#1577=VECTOR('',#1576,36.265685425);
#1578=LINE('',#1575,#1577);
#1579=EDGE_CURVE('',#1566,#1574,#1578,.T.);
#1580=ORIENTED_EDGE('',*,*,#1579,.T.);
#1581=CARTESIAN_POINT('',(-756.,565.,1306.294499686));
#1582=VERTEX_POINT('',#1581);
#1583=CARTESIAN_POINT('',(-756.,565.,1310.));
#1584=DIRECTION('',(0.,0.,-1.));
#1585=VECTOR('',#1584,3.705500314);
#1586=LINE('',#1583,#1585);
#1587=EDGE_CURVE('',#1574,#1582,#1586,.T.);
#1588=ORIENTED_EDGE('',*,*,#1587,.T.);
#1589=CARTESIAN_POINT('',(-756.,568.389051666,1304.));
#1590=VERTEX_POINT('',#1589);
#1591=CARTESIAN_POINT('',(-756.,565.,1306.294499686));
#1592=DIRECTION('',(0.,0.82806723,-0.560628809));
#1593=VECTOR('',#1592,4.092725254);
#1594=LINE('',#1591,#1593);
#1595=EDGE_CURVE('',#1582,#1590,#1594,.T.);
#1596=ORIENTED_EDGE('',*,*,#1595,.T.);
#1597=CARTESIAN_POINT('',(-756.,575.,1304.));
#1598=VERTEX_POINT('',#1597);
#1599=CARTESIAN_POINT('',(-756.,568.389051666,1304.));
#1600=DIRECTION('',(0.,1.,0.));
#1601=VECTOR('',#1600,6.610948334);
#1602=LINE('',#1599,#1601);
#1603=EDGE_CURVE('',#1590,#1598,#1602,.T.);
#1604=ORIENTED_EDGE('',*,*,#1603,.T.);
#1605=CARTESIAN_POINT('',(-756.,585.,1294.));
#1606=VERTEX_POINT('',#1605);
#1607=CARTESIAN_POINT('',(-756.,575.,1294.));
#1608=DIRECTION('',(-1.,0.,0.));
#1609=DIRECTION('',(0.,0.,1.));
#1610=AXIS2_PLACEMENT_3D('',#1607,#1608,#1609);
#1611=CIRCLE('',#1610,10.);
#1612=EDGE_CURVE('',#1598,#1606,#1611,.T.);
#1613=ORIENTED_EDGE('',*,*,#1612,.T.);
#1614=CARTESIAN_POINT('',(-756.,585.,1292.3));
#1615=VERTEX_POINT('',#1614);
#1616=CARTESIAN_POINT('',(-756.,585.,1294.));
#1617=DIRECTION('',(0.,0.,-1.));
#1618=VECTOR('',#1617,1.7);
#1619=LINE('',#1616,#1618);
#1620=EDGE_CURVE('',#1606,#1615,#1619,.T.);
#1621=ORIENTED_EDGE('',*,*,#1620,.T.);
#1622=CARTESIAN_POINT('',(-756.,575.,1282.3));
#1623=VERTEX_POINT('',#1622);
#1624=CARTESIAN_POINT('',(-756.,575.,1292.3));
#1625=DIRECTION('',(-1.,0.,0.));
#1626=DIRECTION('',(0.,0.,1.));
#1627=AXIS2_PLACEMENT_3D('',#1624,#1625,#1626);
#1628=CIRCLE('',#1627,10.);
#1629=EDGE_CURVE('',#1615,#1623,#1628,.T.);
#1630=ORIENTED_EDGE('',*,*,#1629,.T.);
#1631=CARTESIAN_POINT('',(-756.,567.533499733,1282.3));
#1632=VERTEX_POINT('',#1631);
#1633=CARTESIAN_POINT('',(-756.,575.,1282.3));
#1634=DIRECTION('',(0.,-1.,0.));
#1635=VECTOR('',#1634,7.466500267);
#1636=LINE('',#1633,#1635);
#1637=EDGE_CURVE('',#1623,#1632,#1636,.T.);
#1638=ORIENTED_EDGE('',*,*,#1637,.T.);
#1639=CARTESIAN_POINT('',(-756.,565.,1280.584737173));
#1640=VERTEX_POINT('',#1639);
#1641=CARTESIAN_POINT('',(-756.,565.,1280.584737173));
#1642=DIRECTION('',(0.,0.82806723,0.560628809));
#1643=VECTOR('',#1642,3.059533864);
#1644=LINE('',#1641,#1643);
#1645=EDGE_CURVE('',#1640,#1632,#1644,.T.);
#1646=ORIENTED_EDGE('',*,*,#1645,.F.);
#1647=CARTESIAN_POINT('',(-756.,565.,1280.584737173));
#1648=DIRECTION('',(0.,0.,-1.));
#1649=VECTOR('',#1648,1.599455799);
#1650=LINE('',#1647,#1649);
#1651=EDGE_CURVE('',#1640,#1549,#1650,.T.);
#1652=ORIENTED_EDGE('',*,*,#1651,.T.);
#1653=EDGE_LOOP('',(#1557,#1563,#1564,#1572,#1580,#1588,#1596,#1604,#1613,#1621,#1630,#1638,#1646,#1652));
#1654=FACE_BOUND('',#1653,.T.);
#1655=ADVANCED_FACE('',(#1547,#1654),#1527,.F.);
#1656=CARTESIAN_POINT('',(-758.9,612.5,1280.375));
#1657=DIRECTION('',(1.,0.,0.));
#1658=DIRECTION('',(0.,0.,-1.));
#1659=AXIS2_PLACEMENT_3D('',#1656,#1657,#1658);
#1660=PLANE('',#1659);
#1661=CARTESIAN_POINT('',(-758.9,598.5,1287.6));
#1662=VERTEX_POINT('',#1661);
#1663=CARTESIAN_POINT('',(-758.9,598.5,1292.9));
#1664=VERTEX_POINT('',#1663);
#1665=CARTESIAN_POINT('',(-758.9,598.5,1290.25));
#1666=DIRECTION('',(1.,0.,0.));
#1667=DIRECTION('',(0.,0.,-1.));
#1668=AXIS2_PLACEMENT_3D('',#1665,#1666,#1667);
#1669=CIRCLE('',#1668,2.65);
#1670=EDGE_CURVE('',#1662,#1664,#1669,.T.);
#1671=ORIENTED_EDGE('',*,*,#1670,.T.);
#1672=CARTESIAN_POINT('',(-758.9,598.5,1290.25));
#1673=DIRECTION('',(1.,0.,0.));
#1674=DIRECTION('',(0.,0.,-1.));
#1675=AXIS2_PLACEMENT_3D('',#1672,#1673,#1674);
#1676=CIRCLE('',#1675,2.65);
#1677=EDGE_CURVE('',#1664,#1662,#1676,.T.);
#1678=ORIENTED_EDGE('',*,*,#1677,.T.);
#1679=EDGE_LOOP('',(#1671,#1678));
#1680=FACE_BOUND('',#1679,.T.);
#1681=CARTESIAN_POINT('',(-758.9,601.265685425,1310.));
#1682=VERTEX_POINT('',#1681);
#1683=CARTESIAN_POINT('',(-758.9,601.265685425,1310.));
#1684=DIRECTION('',(0.,0.707106781,-0.707106781));
#1685=VECTOR('',#1684,14.756349186);
#1686=LINE('',#1683,#1685);
#1687=EDGE_CURVE('',#1682,#1468,#1686,.T.);
#1688=ORIENTED_EDGE('',*,*,#1687,.T.);
#1689=ORIENTED_EDGE('',*,*,#1473,.F.);
#1690=ORIENTED_EDGE('',*,*,#1344,.T.);
#1691=CARTESIAN_POINT('',(-758.9,608.9,1256.5));
#1692=DIRECTION('',(0.,0.,1.));
#1693=VECTOR('',#1692,2.);
#1694=LINE('',#1691,#1693);
#1695=EDGE_CURVE('',#1265,#1331,#1694,.T.);
#1696=ORIENTED_EDGE('',*,*,#1695,.F.);
#1697=ORIENTED_EDGE('',*,*,#1272,.T.);
#1698=CARTESIAN_POINT('',(-758.9,591.5,1256.5));
#1699=DIRECTION('',(0.,0.,1.));
#1700=VECTOR('',#1699,2.);
#1701=LINE('',#1698,#1700);
#1702=EDGE_CURVE('',#1267,#1389,#1701,.T.);
#1703=ORIENTED_EDGE('',*,*,#1702,.T.);
#1704=ORIENTED_EDGE('',*,*,#1394,.T.);
#1705=CARTESIAN_POINT('',(-758.9,589.3,1310.));
#1706=VERTEX_POINT('',#1705);
#1707=CARTESIAN_POINT('',(-758.9,589.3,1258.5));
#1708=DIRECTION('',(-0.,-0.,1.));
#1709=VECTOR('',#1708,51.5);
#1710=LINE('',#1707,#1709);
#1711=EDGE_CURVE('',#1380,#1706,#1710,.T.);
#1712=ORIENTED_EDGE('',*,*,#1711,.T.);
#1713=CARTESIAN_POINT('',(-758.9,601.265685425,1310.));
#1714=DIRECTION('',(0.,-1.,0.));
#1715=VECTOR('',#1714,11.965685425);
#1716=LINE('',#1713,#1715);
#1717=EDGE_CURVE('',#1682,#1706,#1716,.T.);
#1718=ORIENTED_EDGE('',*,*,#1717,.F.);
#1719=EDGE_LOOP('',(#1688,#1689,#1690,#1696,#1697,#1703,#1704,#1712,#1718));
#1720=FACE_BOUND('',#1719,.T.);
#1721=ADVANCED_FACE('',(#1680,#1720),#1660,.F.);
#1722=CARTESIAN_POINT('',(-781.,611.7,1271.));
#1723=DIRECTION('',(-0.707106781,0.707106781,0.));
#1724=DIRECTION('',(0.,0.,-1.));
#1725=AXIS2_PLACEMENT_3D('',#1722,#1723,#1724);
#1726=PLANE('',#1725);
#1727=CARTESIAN_POINT('',(-781.5,611.2,1257.));
#1728=VERTEX_POINT('',#1727);
#1729=CARTESIAN_POINT('',(-781.,611.7,1257.5));
#1730=DIRECTION('',(-0.577350269,-0.577350269,-0.577350269));
#1731=VECTOR('',#1730,0.866025404);
#1732=LINE('',#1729,#1731);
#1733=EDGE_CURVE('',#1437,#1728,#1732,.T.);
#1734=ORIENTED_EDGE('',*,*,#1733,.T.);
#1735=CARTESIAN_POINT('',(-782.,610.7,1257.5));
#1736=VERTEX_POINT('',#1735);
#1737=CARTESIAN_POINT('',(-781.5,611.2,1257.));
#1738=DIRECTION('',(-0.577350269,-0.577350269,0.577350269));
#1739=VECTOR('',#1738,0.866025404);
#1740=LINE('',#1737,#1739);
#1741=EDGE_CURVE('',#1728,#1736,#1740,.T.);
#1742=ORIENTED_EDGE('',*,*,#1741,.T.);
#1743=CARTESIAN_POINT('',(-782.,610.7,1300.565685425));
#1744=VERTEX_POINT('',#1743);
#1745=CARTESIAN_POINT('',(-782.,610.7,1300.565685425));
#1746=DIRECTION('',(0.,0.,-1.));
#1747=VECTOR('',#1746,43.065685425);
#1748=LINE('',#1745,#1747);
#1749=EDGE_CURVE('',#1744,#1736,#1748,.T.);
#1750=ORIENTED_EDGE('',*,*,#1749,.F.);
#1751=CARTESIAN_POINT('',(-782.,610.7,1300.565685425));
#1752=DIRECTION('',(0.577350269,0.577350269,-0.577350269));
#1753=VECTOR('',#1752,1.732050808);
#1754=LINE('',#1751,#1753);
#1755=EDGE_CURVE('',#1744,#1445,#1754,.T.);
#1756=ORIENTED_EDGE('',*,*,#1755,.T.);
#1757=ORIENTED_EDGE('',*,*,#1450,.F.);
#1758=EDGE_LOOP('',(#1734,#1742,#1750,#1756,#1757));
#1759=FACE_BOUND('',#1758,.T.);
#1760=ADVANCED_FACE('',(#1759),#1726,.T.);
#1761=CARTESIAN_POINT('',(-779.1,612.5,1280.375));
#1762=DIRECTION('',(-1.,0.,-0.));
#1763=DIRECTION('',(-0.,0.,1.));
#1764=AXIS2_PLACEMENT_3D('',#1761,#1762,#1763);
#1765=PLANE('',#1764);
#1766=ORIENTED_EDGE('',*,*,#1464,.T.);
#1767=CARTESIAN_POINT('',(-779.1,601.265685425,1310.));
#1768=VERTEX_POINT('',#1767);
#1769=CARTESIAN_POINT('',(-779.1,611.7,1299.565685425));
#1770=DIRECTION('',(-0.,-0.707106781,0.707106781));
#1771=VECTOR('',#1770,14.756349186);
#1772=LINE('',#1769,#1771);
#1773=EDGE_CURVE('',#1453,#1768,#1772,.T.);
#1774=ORIENTED_EDGE('',*,*,#1773,.T.);
#1775=CARTESIAN_POINT('',(-779.1,589.3,1310.));
#1776=VERTEX_POINT('',#1775);
#1777=CARTESIAN_POINT('',(-779.1,601.265685425,1310.));
#1778=DIRECTION('',(0.,-1.,0.));
#1779=VECTOR('',#1778,11.965685425);
#1780=LINE('',#1777,#1779);
#1781=EDGE_CURVE('',#1768,#1776,#1780,.T.);
#1782=ORIENTED_EDGE('',*,*,#1781,.T.);
#1783=CARTESIAN_POINT('',(-779.1,589.3,1310.));
#1784=DIRECTION('',(0.,-0.,-1.));
#1785=VECTOR('',#1784,51.5);
#1786=LINE('',#1783,#1785);
#1787=EDGE_CURVE('',#1776,#1355,#1786,.T.);
#1788=ORIENTED_EDGE('',*,*,#1787,.T.);
#1789=ORIENTED_EDGE('',*,*,#1360,.F.);
#1790=EDGE_LOOP('',(#1766,#1774,#1782,#1788,#1789));
#1791=FACE_BOUND('',#1790,.T.);
#1792=ADVANCED_FACE('',(#1791),#1765,.F.);
#1793=CARTESIAN_POINT('',(-782.,585.,1074.));
#1794=DIRECTION('',(1.,0.,0.));
#1795=DIRECTION('',(0.,0.,1.));
#1796=AXIS2_PLACEMENT_3D('',#1793,#1794,#1795);
#1797=PLANE('',#1796);
#1798=ORIENTED_EDGE('',*,*,#1749,.T.);
#1799=CARTESIAN_POINT('',(-782.,586.485281374,1257.5));
#1800=VERTEX_POINT('',#1799);
#1801=CARTESIAN_POINT('',(-782.,610.7,1257.5));
#1802=DIRECTION('',(0.,-1.,0.));
#1803=VECTOR('',#1802,24.214718626);
#1804=LINE('',#1801,#1803);
#1805=EDGE_CURVE('',#1736,#1800,#1804,.T.);
#1806=ORIENTED_EDGE('',*,*,#1805,.T.);
#1807=CARTESIAN_POINT('',(-782.,565.,1278.985281374));
#1808=VERTEX_POINT('',#1807);
#1809=CARTESIAN_POINT('',(-782.,586.485281374,1257.5));
#1810=DIRECTION('',(-0.,-0.707106781,0.707106781));
#1811=VECTOR('',#1810,30.384776311);
#1812=LINE('',#1809,#1811);
#1813=EDGE_CURVE('',#1800,#1808,#1812,.T.);
#1814=ORIENTED_EDGE('',*,*,#1813,.T.);
#1815=CARTESIAN_POINT('',(-782.,565.,1280.584737173));
#1816=VERTEX_POINT('',#1815);
#1817=CARTESIAN_POINT('',(-782.,565.,1278.985281374));
#1818=DIRECTION('',(0.,0.,1.));
#1819=VECTOR('',#1818,1.599455799);
#1820=LINE('',#1817,#1819);
#1821=EDGE_CURVE('',#1808,#1816,#1820,.T.);
#1822=ORIENTED_EDGE('',*,*,#1821,.T.);
#1823=CARTESIAN_POINT('',(-782.,567.533499733,1282.3));
#1824=VERTEX_POINT('',#1823);
#1825=CARTESIAN_POINT('',(-782.,565.,1280.584737173));
#1826=DIRECTION('',(0.,0.82806723,0.560628809));
#1827=VECTOR('',#1826,3.059533864);
#1828=LINE('',#1825,#1827);
#1829=EDGE_CURVE('',#1816,#1824,#1828,.T.);
#1830=ORIENTED_EDGE('',*,*,#1829,.T.);
#1831=CARTESIAN_POINT('',(-782.,575.,1282.3));
#1832=VERTEX_POINT('',#1831);
#1833=CARTESIAN_POINT('',(-782.,567.533499733,1282.3));
#1834=DIRECTION('',(0.,1.,0.));
#1835=VECTOR('',#1834,7.466500267);
#1836=LINE('',#1833,#1835);
#1837=EDGE_CURVE('',#1824,#1832,#1836,.T.);
#1838=ORIENTED_EDGE('',*,*,#1837,.T.);
#1839=CARTESIAN_POINT('',(-782.,585.,1292.3));
#1840=VERTEX_POINT('',#1839);
#1841=CARTESIAN_POINT('',(-782.,575.,1292.3));
#1842=DIRECTION('',(1.,0.,0.));
#1843=DIRECTION('',(0.,0.,-1.));
#1844=AXIS2_PLACEMENT_3D('',#1841,#1842,#1843);
#1845=CIRCLE('',#1844,10.);
#1846=EDGE_CURVE('',#1832,#1840,#1845,.T.);
#1847=ORIENTED_EDGE('',*,*,#1846,.T.);
#1848=CARTESIAN_POINT('',(-782.,585.,1294.));
#1849=VERTEX_POINT('',#1848);
#1850=CARTESIAN_POINT('',(-782.,585.,1292.3));
#1851=DIRECTION('',(0.,0.,1.));
#1852=VECTOR('',#1851,1.7);
#1853=LINE('',#1850,#1852);
#1854=EDGE_CURVE('',#1840,#1849,#1853,.T.);
#1855=ORIENTED_EDGE('',*,*,#1854,.T.);
#1856=CARTESIAN_POINT('',(-782.,575.,1304.));
#1857=VERTEX_POINT('',#1856);
#1858=CARTESIAN_POINT('',(-782.,575.,1294.));
#1859=DIRECTION('',(1.,0.,0.));
#1860=DIRECTION('',(0.,0.,-1.));
#1861=AXIS2_PLACEMENT_3D('',#1858,#1859,#1860);
#1862=CIRCLE('',#1861,10.);
#1863=EDGE_CURVE('',#1849,#1857,#1862,.T.);
#1864=ORIENTED_EDGE('',*,*,#1863,.T.);
#1865=CARTESIAN_POINT('',(-782.,568.389051666,1304.));
#1866=VERTEX_POINT('',#1865);
#1867=CARTESIAN_POINT('',(-782.,575.,1304.));
#1868=DIRECTION('',(0.,-1.,0.));
#1869=VECTOR('',#1868,6.610948334);
#1870=LINE('',#1867,#1869);
#1871=EDGE_CURVE('',#1857,#1866,#1870,.T.);
#1872=ORIENTED_EDGE('',*,*,#1871,.T.);
#1873=CARTESIAN_POINT('',(-782.,565.,1306.294499686));
#1874=VERTEX_POINT('',#1873);
#1875=CARTESIAN_POINT('',(-782.,568.389051666,1304.));
#1876=DIRECTION('',(0.,-0.82806723,0.560628809));
#1877=VECTOR('',#1876,4.092725254);
#1878=LINE('',#1875,#1877);
#1879=EDGE_CURVE('',#1866,#1874,#1878,.T.);
#1880=ORIENTED_EDGE('',*,*,#1879,.T.);
#1881=CARTESIAN_POINT('',(-782.,565.,1310.));
#1882=VERTEX_POINT('',#1881);
#1883=CARTESIAN_POINT('',(-782.,565.,1306.294499686));
#1884=DIRECTION('',(0.,0.,1.));
#1885=VECTOR('',#1884,3.705500314);
#1886=LINE('',#1883,#1885);
#1887=EDGE_CURVE('',#1874,#1882,#1886,.T.);
#1888=ORIENTED_EDGE('',*,*,#1887,.T.);
#1889=CARTESIAN_POINT('',(-782.,601.265685425,1310.));
#1890=VERTEX_POINT('',#1889);
#1891=CARTESIAN_POINT('',(-782.,601.265685425,1310.));
#1892=DIRECTION('',(0.,-1.,0.));
#1893=VECTOR('',#1892,36.265685425);
#1894=LINE('',#1891,#1893);
#1895=EDGE_CURVE('',#1890,#1882,#1894,.T.);
#1896=ORIENTED_EDGE('',*,*,#1895,.F.);
#1897=CARTESIAN_POINT('',(-782.,601.265685425,1310.));
#1898=DIRECTION('',(0.,0.707106781,-0.707106781));
#1899=VECTOR('',#1898,13.342135624);
#1900=LINE('',#1897,#1899);
#1901=EDGE_CURVE('',#1890,#1744,#1900,.T.);
#1902=ORIENTED_EDGE('',*,*,#1901,.T.);
#1903=EDGE_LOOP('',(#1798,#1806,#1814,#1822,#1830,#1838,#1847,#1855,#1864,#1872,#1880,#1888,#1896,#1902));
#1904=FACE_BOUND('',#1903,.T.);
#1905=ADVANCED_FACE('',(#1904),#1797,.F.);
#1906=CARTESIAN_POINT('',(-727.,598.5,1290.25));
#1907=DIRECTION('',(-1.,0.,0.));
#1908=DIRECTION('',(0.,0.,1.));
#1909=AXIS2_PLACEMENT_3D('',#1906,#1907,#1908);
#1910=CYLINDRICAL_SURFACE('',#1909,2.65);
#1911=CARTESIAN_POINT('',(-757.,598.5,1292.9));
#1912=VERTEX_POINT('',#1911);
#1913=CARTESIAN_POINT('',(-758.9,598.5,1292.9));
#1914=DIRECTION('',(1.,-0.,-0.));
#1915=VECTOR('',#1914,1.9);
#1916=LINE('',#1913,#1915);
#1917=EDGE_CURVE('',#1664,#1912,#1916,.T.);
#1918=ORIENTED_EDGE('',*,*,#1917,.F.);
#1919=ORIENTED_EDGE('',*,*,#1670,.F.);
#1920=ORIENTED_EDGE('',*,*,#1677,.F.);
#1921=ORIENTED_EDGE('',*,*,#1917,.T.);
#1922=CARTESIAN_POINT('',(-757.,598.5,1287.6));
#1923=VERTEX_POINT('',#1922);
#1924=CARTESIAN_POINT('',(-757.,598.5,1290.25));
#1925=DIRECTION('',(-1.,0.,0.));
#1926=DIRECTION('',(0.,0.,-1.));
#1927=AXIS2_PLACEMENT_3D('',#1924,#1925,#1926);
#1928=CIRCLE('',#1927,2.65);
#1929=EDGE_CURVE('',#1923,#1912,#1928,.T.);
#1930=ORIENTED_EDGE('',*,*,#1929,.F.);
#1931=CARTESIAN_POINT('',(-757.,598.5,1290.25));
#1932=DIRECTION('',(-1.,0.,0.));
#1933=DIRECTION('',(0.,0.,-1.));
#1934=AXIS2_PLACEMENT_3D('',#1931,#1932,#1933);
#1935=CIRCLE('',#1934,2.65);
#1936=EDGE_CURVE('',#1912,#1923,#1935,.T.);
#1937=ORIENTED_EDGE('',*,*,#1936,.F.);
#1938=EDGE_LOOP('',(#1918,#1919,#1920,#1921,#1930,#1937));
#1939=FACE_BOUND('',#1938,.T.);
#1940=ADVANCED_FACE('',(#1939),#1910,.F.);
#1941=CARTESIAN_POINT('',(-693.,573.,1310.));
#1942=DIRECTION('',(0.,0.,-1.));
#1943=DIRECTION('',(-1.,0.,0.));
#1944=AXIS2_PLACEMENT_3D('',#1941,#1942,#1943);
#1945=PLANE('',#1944);
#1946=ORIENTED_EDGE('',*,*,#1717,.T.);
#1947=CARTESIAN_POINT('',(-759.7,588.5,1310.));
#1948=VERTEX_POINT('',#1947);
#1949=CARTESIAN_POINT('',(-759.7,589.3,1310.));
#1950=DIRECTION('',(0.,0.,-1.));
#1951=DIRECTION('',(-1.,0.,0.));
#1952=AXIS2_PLACEMENT_3D('',#1949,#1950,#1951);
#1953=CIRCLE('',#1952,0.8);
#1954=EDGE_CURVE('',#1706,#1948,#1953,.T.);
#1955=ORIENTED_EDGE('',*,*,#1954,.T.);
#1956=CARTESIAN_POINT('',(-778.3,588.5,1310.));
#1957=VERTEX_POINT('',#1956);
#1958=CARTESIAN_POINT('',(-759.7,588.5,1310.));
#1959=DIRECTION('',(-1.,0.,0.));
#1960=VECTOR('',#1959,18.6);
#1961=LINE('',#1958,#1960);
#1962=EDGE_CURVE('',#1948,#1957,#1961,.T.);
#1963=ORIENTED_EDGE('',*,*,#1962,.T.);
#1964=CARTESIAN_POINT('',(-778.3,589.3,1310.));
#1965=DIRECTION('',(0.,0.,-1.));
#1966=DIRECTION('',(-1.,0.,0.));
#1967=AXIS2_PLACEMENT_3D('',#1964,#1965,#1966);
#1968=CIRCLE('',#1967,0.8);
#1969=EDGE_CURVE('',#1957,#1776,#1968,.T.);
#1970=ORIENTED_EDGE('',*,*,#1969,.T.);
#1971=ORIENTED_EDGE('',*,*,#1781,.F.);
#1972=CARTESIAN_POINT('',(-779.1,601.265685425,1310.));
#1973=DIRECTION('',(-1.,0.,0.));
#1974=VECTOR('',#1973,2.9);
#1975=LINE('',#1972,#1974);
#1976=EDGE_CURVE('',#1768,#1890,#1975,.T.);
#1977=ORIENTED_EDGE('',*,*,#1976,.T.);
#1978=ORIENTED_EDGE('',*,*,#1895,.T.);
#1979=CARTESIAN_POINT('',(-756.,565.,1310.));
#1980=DIRECTION('',(-1.,0.,0.));
#1981=VECTOR('',#1980,26.);
#1982=LINE('',#1979,#1981);
#1983=EDGE_CURVE('',#1574,#1882,#1982,.T.);
#1984=ORIENTED_EDGE('',*,*,#1983,.F.);
#1985=ORIENTED_EDGE('',*,*,#1579,.F.);
#1986=CARTESIAN_POINT('',(-756.,601.265685425,1310.));
#1987=DIRECTION('',(-1.,0.,0.));
#1988=VECTOR('',#1987,2.9);
#1989=LINE('',#1986,#1988);
#1990=EDGE_CURVE('',#1566,#1682,#1989,.T.);
#1991=ORIENTED_EDGE('',*,*,#1990,.T.);
#1992=EDGE_LOOP('',(#1946,#1955,#1963,#1970,#1971,#1977,#1978,#1984,#1985,#1991));
#1993=FACE_BOUND('',#1992,.T.);
#1994=ADVANCED_FACE('',(#1993),#1945,.F.);
#1995=CARTESIAN_POINT('',(-671.5,565.,1266.));
#1996=DIRECTION('',(0.,1.,0.));
#1997=DIRECTION('',(0.,0.,1.));
#1998=AXIS2_PLACEMENT_3D('',#1995,#1996,#1997);
#1999=PLANE('',#1998);
#2000=ORIENTED_EDGE('',*,*,#1983,.T.);
#2001=ORIENTED_EDGE('',*,*,#1887,.F.);
#2002=CARTESIAN_POINT('',(-782.,565.,1306.294499686));
#2003=DIRECTION('',(1.,0.,-0.));
#2004=VECTOR('',#2003,26.);
#2005=LINE('',#2002,#2004);
#2006=EDGE_CURVE('',#1874,#1582,#2005,.T.);
#2007=ORIENTED_EDGE('',*,*,#2006,.T.);
#2008=ORIENTED_EDGE('',*,*,#1587,.F.);
#2009=EDGE_LOOP('',(#2000,#2001,#2007,#2008));
#2010=FACE_BOUND('',#2009,.T.);
#2011=ADVANCED_FACE('',(#2010),#1999,.F.);
#2012=CARTESIAN_POINT('',(-663.5,565.,1266.));
#2013=DIRECTION('',(0.,1.,0.));
#2014=DIRECTION('',(0.,0.,1.));
#2015=AXIS2_PLACEMENT_3D('',#2012,#2013,#2014);
#2016=PLANE('',#2015);
#2017=CARTESIAN_POINT('',(-756.,565.,1280.584737173));
#2018=DIRECTION('',(-1.,-0.,0.));
#2019=VECTOR('',#2018,26.);
#2020=LINE('',#2017,#2019);
#2021=EDGE_CURVE('',#1640,#1816,#2020,.T.);
#2022=ORIENTED_EDGE('',*,*,#2021,.T.);
#2023=ORIENTED_EDGE('',*,*,#1821,.F.);
#2024=CARTESIAN_POINT('',(-782.,565.,1278.985281374));
#2025=DIRECTION('',(1.,-0.,-0.));
#2026=VECTOR('',#2025,26.);
#2027=LINE('',#2024,#2026);
#2028=EDGE_CURVE('',#1808,#1549,#2027,.T.);
#2029=ORIENTED_EDGE('',*,*,#2028,.T.);
#2030=ORIENTED_EDGE('',*,*,#1651,.F.);
#2031=EDGE_LOOP('',(#2022,#2023,#2029,#2030));
#2032=FACE_BOUND('',#2031,.T.);
#2033=ADVANCED_FACE('',(#2032),#2016,.F.);
#2034=CARTESIAN_POINT('',(-721.,588.5,1297.500894866));
#2035=DIRECTION('',(0.,1.,0.));
#2036=DIRECTION('',(-1.,0.,0.));
#2037=AXIS2_PLACEMENT_3D('',#2034,#2035,#2036);
#2038=PLANE('',#2037);
#2039=ORIENTED_EDGE('',*,*,#1962,.F.);
#2040=CARTESIAN_POINT('',(-759.7,588.5,1310.));
#2041=DIRECTION('',(0.,0.,-1.));
#2042=VECTOR('',#2041,51.5);
#2043=LINE('',#2040,#2042);
#2044=EDGE_CURVE('',#1948,#1372,#2043,.T.);
#2045=ORIENTED_EDGE('',*,*,#2044,.T.);
#2046=ORIENTED_EDGE('',*,*,#1377,.T.);
#2047=CARTESIAN_POINT('',(-778.3,588.5,1258.5));
#2048=DIRECTION('',(-0.,0.,1.));
#2049=VECTOR('',#2048,51.5);
#2050=LINE('',#2047,#2049);
#2051=EDGE_CURVE('',#1363,#1957,#2050,.T.);
#2052=ORIENTED_EDGE('',*,*,#2051,.T.);
#2053=EDGE_LOOP('',(#2039,#2045,#2046,#2052));
#2054=FACE_BOUND('',#2053,.T.);
#2055=ADVANCED_FACE('',(#2054),#2038,.T.);
#2056=CARTESIAN_POINT('',(-749.,567.978211,1282.601084186));
#2057=DIRECTION('',(0.,-0.560628809,0.82806723));
#2058=DIRECTION('',(-1.,0.,0.));
#2059=AXIS2_PLACEMENT_3D('',#2056,#2057,#2058);
#2060=PLANE('',#2059);
#2061=CARTESIAN_POINT('',(-756.,567.533499733,1282.3));
#2062=DIRECTION('',(-1.,0.,0.));
#2063=VECTOR('',#2062,26.);
#2064=LINE('',#2061,#2063);
#2065=EDGE_CURVE('',#1632,#1824,#2064,.T.);
#2066=ORIENTED_EDGE('',*,*,#2065,.T.);
#2067=ORIENTED_EDGE('',*,*,#1829,.F.);
#2068=ORIENTED_EDGE('',*,*,#2021,.F.);
#2069=ORIENTED_EDGE('',*,*,#1645,.T.);
#2070=EDGE_LOOP('',(#2066,#2067,#2068,#2069));
#2071=FACE_BOUND('',#2070,.T.);
#2072=ADVANCED_FACE('',(#2071),#2060,.T.);
#2073=CARTESIAN_POINT('',(-729.,579.,1282.3));
#2074=DIRECTION('',(0.,0.,-1.));
#2075=DIRECTION('',(-1.,0.,0.));
#2076=AXIS2_PLACEMENT_3D('',#2073,#2074,#2075);
#2077=PLANE('',#2076);
#2078=CARTESIAN_POINT('',(-756.,575.,1282.3));
#2079=DIRECTION('',(-1.,0.,0.));
#2080=VECTOR('',#2079,26.);
#2081=LINE('',#2078,#2080);
#2082=EDGE_CURVE('',#1623,#1832,#2081,.T.);
#2083=ORIENTED_EDGE('',*,*,#2082,.T.);
#2084=ORIENTED_EDGE('',*,*,#1837,.F.);
#2085=ORIENTED_EDGE('',*,*,#2065,.F.);
#2086=ORIENTED_EDGE('',*,*,#1637,.F.);
#2087=EDGE_LOOP('',(#2083,#2084,#2085,#2086));
#2088=FACE_BOUND('',#2087,.T.);
#2089=ADVANCED_FACE('',(#2088),#2077,.F.);
#2090=CARTESIAN_POINT('',(-729.,575.,1292.3));
#2091=DIRECTION('',(1.,0.,0.));
#2092=DIRECTION('',(0.,0.,-1.));
#2093=AXIS2_PLACEMENT_3D('',#2090,#2091,#2092);
#2094=CYLINDRICAL_SURFACE('',#2093,10.);
#2095=ORIENTED_EDGE('',*,*,#1629,.F.);
#2096=CARTESIAN_POINT('',(-782.,585.,1292.3));
#2097=DIRECTION('',(1.,0.,-0.));
#2098=VECTOR('',#2097,26.);
#2099=LINE('',#2096,#2098);
#2100=EDGE_CURVE('',#1840,#1615,#2099,.T.);
#2101=ORIENTED_EDGE('',*,*,#2100,.F.);
#2102=ORIENTED_EDGE('',*,*,#1846,.F.);
#2103=ORIENTED_EDGE('',*,*,#2082,.F.);
#2104=EDGE_LOOP('',(#2095,#2101,#2102,#2103));
#2105=FACE_BOUND('',#2104,.T.);
#2106=ADVANCED_FACE('',(#2105),#2094,.F.);
#2107=CARTESIAN_POINT('',(-689.5,585.,1266.));
#2108=DIRECTION('',(0.,1.,0.));
#2109=DIRECTION('',(0.,0.,1.));
#2110=AXIS2_PLACEMENT_3D('',#2107,#2108,#2109);
#2111=PLANE('',#2110);
#2112=CARTESIAN_POINT('',(-756.,585.,1294.));
#2113=DIRECTION('',(-1.,-0.,0.));
#2114=VECTOR('',#2113,26.);
#2115=LINE('',#2112,#2114);
#2116=EDGE_CURVE('',#1606,#1849,#2115,.T.);
#2117=ORIENTED_EDGE('',*,*,#2116,.T.);
#2118=ORIENTED_EDGE('',*,*,#1854,.F.);
#2119=ORIENTED_EDGE('',*,*,#2100,.T.);
#2120=ORIENTED_EDGE('',*,*,#1620,.F.);
#2121=EDGE_LOOP('',(#2117,#2118,#2119,#2120));
#2122=FACE_BOUND('',#2121,.T.);
#2123=ADVANCED_FACE('',(#2122),#2111,.F.);
#2124=CARTESIAN_POINT('',(-737.,579.,1304.));
#2125=DIRECTION('',(0.,0.,1.));
#2126=DIRECTION('',(1.,0.,0.));
#2127=AXIS2_PLACEMENT_3D('',#2124,#2125,#2126);
#2128=PLANE('',#2127);
#2129=ORIENTED_EDGE('',*,*,#1603,.F.);
#2130=CARTESIAN_POINT('',(-782.,568.389051666,1304.));
#2131=DIRECTION('',(1.,-0.,-0.));
#2132=VECTOR('',#2131,26.);
#2133=LINE('',#2130,#2132);
#2134=EDGE_CURVE('',#1866,#1590,#2133,.T.);
#2135=ORIENTED_EDGE('',*,*,#2134,.F.);
#2136=ORIENTED_EDGE('',*,*,#1871,.F.);
#2137=CARTESIAN_POINT('',(-782.,575.,1304.));
#2138=DIRECTION('',(1.,0.,-0.));
#2139=VECTOR('',#2138,26.);
#2140=LINE('',#2137,#2139);
#2141=EDGE_CURVE('',#1857,#1598,#2140,.T.);
#2142=ORIENTED_EDGE('',*,*,#2141,.T.);
#2143=EDGE_LOOP('',(#2129,#2135,#2136,#2142));
#2144=FACE_BOUND('',#2143,.T.);
#2145=ADVANCED_FACE('',(#2144),#2128,.F.);
#2146=CARTESIAN_POINT('',(-689.5,575.,1294.));
#2147=DIRECTION('',(1.,0.,0.));
#2148=DIRECTION('',(0.,0.,-1.));
#2149=AXIS2_PLACEMENT_3D('',#2146,#2147,#2148);
#2150=CYLINDRICAL_SURFACE('',#2149,10.);
#2151=ORIENTED_EDGE('',*,*,#1612,.F.);
#2152=ORIENTED_EDGE('',*,*,#2141,.F.);
#2153=ORIENTED_EDGE('',*,*,#1863,.F.);
#2154=ORIENTED_EDGE('',*,*,#2116,.F.);
#2155=EDGE_LOOP('',(#2151,#2152,#2153,#2154));
#2156=FACE_BOUND('',#2155,.T.);
#2157=ADVANCED_FACE('',(#2156),#2150,.F.);
#2158=CARTESIAN_POINT('',(-733.,567.922148119,1304.316109091));
#2159=DIRECTION('',(0.,0.560628809,0.82806723));
#2160=DIRECTION('',(-1.,0.,0.));
#2161=AXIS2_PLACEMENT_3D('',#2158,#2159,#2160);
#2162=PLANE('',#2161);
#2163=ORIENTED_EDGE('',*,*,#1595,.F.);
#2164=ORIENTED_EDGE('',*,*,#2006,.F.);
#2165=ORIENTED_EDGE('',*,*,#1879,.F.);
#2166=ORIENTED_EDGE('',*,*,#2134,.T.);
#2167=EDGE_LOOP('',(#2163,#2164,#2165,#2166));
#2168=FACE_BOUND('',#2167,.T.);
#2169=ADVANCED_FACE('',(#2168),#2162,.F.);
#2170=CARTESIAN_POINT('',(-759.7,589.3,1297.500894866));
#2171=DIRECTION('',(0.,0.,-1.));
#2172=DIRECTION('',(-1.,0.,-0.));
#2173=AXIS2_PLACEMENT_3D('',#2170,#2171,#2172);
#2174=CYLINDRICAL_SURFACE('',#2173,0.8);
#2175=ORIENTED_EDGE('',*,*,#1386,.F.);
#2176=ORIENTED_EDGE('',*,*,#2044,.F.);
#2177=ORIENTED_EDGE('',*,*,#1954,.F.);
#2178=ORIENTED_EDGE('',*,*,#1711,.F.);
#2179=EDGE_LOOP('',(#2175,#2176,#2177,#2178));
#2180=FACE_BOUND('',#2179,.T.);
#2181=ADVANCED_FACE('',(#2180),#2174,.F.);
#2182=CARTESIAN_POINT('',(-778.3,589.3,1297.500894866));
#2183=DIRECTION('',(-0.,0.,1.));
#2184=DIRECTION('',(1.,0.,0.));
#2185=AXIS2_PLACEMENT_3D('',#2182,#2183,#2184);
#2186=CYLINDRICAL_SURFACE('',#2185,0.8);
#2187=ORIENTED_EDGE('',*,*,#1969,.F.);
#2188=ORIENTED_EDGE('',*,*,#2051,.F.);
#2189=ORIENTED_EDGE('',*,*,#1369,.F.);
#2190=ORIENTED_EDGE('',*,*,#1787,.F.);
#2191=EDGE_LOOP('',(#2187,#2188,#2189,#2190));
#2192=FACE_BOUND('',#2191,.T.);
#2193=ADVANCED_FACE('',(#2192),#2186,.F.);
#2194=CARTESIAN_POINT('',(-757.,598.5,1290.25));
#2195=DIRECTION('',(1.,0.,0.));
#2196=DIRECTION('',(0.,0.,-1.));
#2197=AXIS2_PLACEMENT_3D('',#2194,#2195,#2196);
#2198=CYLINDRICAL_SURFACE('',#2197,4.5);
#2199=CARTESIAN_POINT('',(-757.,598.5,1285.75));
#2200=VERTEX_POINT('',#2199);
#2201=CARTESIAN_POINT('',(-756.,598.5,1285.75));
#2202=DIRECTION('',(-1.,-0.,0.));
#2203=VECTOR('',#2202,1.);
#2204=LINE('',#2201,#2203);
#2205=EDGE_CURVE('',#1529,#2200,#2204,.T.);
#2206=ORIENTED_EDGE('',*,*,#2205,.F.);
#2207=ORIENTED_EDGE('',*,*,#1537,.T.);
#2208=ORIENTED_EDGE('',*,*,#1544,.T.);
#2209=ORIENTED_EDGE('',*,*,#2205,.T.);
#2210=CARTESIAN_POINT('',(-757.,598.5,1290.25));
#2211=DIRECTION('',(1.,0.,0.));
#2212=DIRECTION('',(0.,0.,-1.));
#2213=AXIS2_PLACEMENT_3D('',#2210,#2211,#2212);
#2214=CIRCLE('',#2213,4.5);
#2215=EDGE_CURVE('',#2200,#2200,#2214,.T.);
#2216=ORIENTED_EDGE('',*,*,#2215,.F.);
#2217=EDGE_LOOP('',(#2206,#2207,#2208,#2209,#2216));
#2218=FACE_BOUND('',#2217,.T.);
#2219=ADVANCED_FACE('',(#2218),#2198,.F.);
#2220=CARTESIAN_POINT('',(-757.,0.,0.));
#2221=DIRECTION('',(1.,0.,0.));
#2222=DIRECTION('',(0.,1.,0.));
#2223=AXIS2_PLACEMENT_3D('',#2220,#2221,#2222);
#2224=PLANE('',#2223);
#2225=ORIENTED_EDGE('',*,*,#2215,.T.);
#2226=EDGE_LOOP('',(#2225));
#2227=FACE_BOUND('',#2226,.T.);
#2228=ORIENTED_EDGE('',*,*,#1929,.T.);
#2229=ORIENTED_EDGE('',*,*,#1936,.T.);
#2230=EDGE_LOOP('',(#2228,#2229));
#2231=FACE_BOUND('',#2230,.T.);
#2232=ADVANCED_FACE('',(#2227,#2231),#2224,.T.);
#2233=CARTESIAN_POINT('',(-663.5,569.242640687,1274.742640687));
#2234=DIRECTION('',(0.,0.707106781,0.707106781));
#2235=DIRECTION('',(1.,0.,0.));
#2236=AXIS2_PLACEMENT_3D('',#2233,#2234,#2235);
#2237=PLANE('',#2236);
#2238=ORIENTED_EDGE('',*,*,#1813,.F.);
#2239=CARTESIAN_POINT('',(-782.,586.485281374,1257.5));
#2240=DIRECTION('',(0.577350269,0.577350269,-0.577350269));
#2241=VECTOR('',#2240,1.732050808);
#2242=LINE('',#2239,#2241);
#2243=EDGE_CURVE('',#1800,#1233,#2242,.T.);
#2244=ORIENTED_EDGE('',*,*,#2243,.T.);
#2245=ORIENTED_EDGE('',*,*,#1238,.F.);
#2246=CARTESIAN_POINT('',(-757.,587.485281374,1256.5));
#2247=DIRECTION('',(0.577350269,-0.577350269,0.577350269));
#2248=VECTOR('',#2247,1.732050808);
#2249=LINE('',#2246,#2248);
#2250=EDGE_CURVE('',#1231,#1551,#2249,.T.);
#2251=ORIENTED_EDGE('',*,*,#2250,.T.);
#2252=ORIENTED_EDGE('',*,*,#1556,.F.);
#2253=ORIENTED_EDGE('',*,*,#2028,.F.);
#2254=EDGE_LOOP('',(#2238,#2244,#2245,#2251,#2252,#2253));
#2255=FACE_BOUND('',#2254,.T.);
#2256=ADVANCED_FACE('',(#2255),#2237,.F.);
#2257=CARTESIAN_POINT('',(-693.,600.982842712,1310.282842712));
#2258=DIRECTION('',(0.,0.707106781,0.707106781));
#2259=DIRECTION('',(1.,0.,0.));
#2260=AXIS2_PLACEMENT_3D('',#2257,#2258,#2259);
#2261=PLANE('',#2260);
#2262=ORIENTED_EDGE('',*,*,#1773,.F.);
#2263=ORIENTED_EDGE('',*,*,#1458,.F.);
#2264=ORIENTED_EDGE('',*,*,#1755,.F.);
#2265=ORIENTED_EDGE('',*,*,#1901,.F.);
#2266=ORIENTED_EDGE('',*,*,#1976,.F.);
#2267=EDGE_LOOP('',(#2262,#2263,#2264,#2265,#2266));
#2268=FACE_BOUND('',#2267,.T.);
#2269=ADVANCED_FACE('',(#2268),#2261,.T.);
#2270=CARTESIAN_POINT('',(-693.,600.982842712,1310.282842712));
#2271=DIRECTION('',(0.,0.707106781,0.707106781));
#2272=DIRECTION('',(1.,0.,0.));
#2273=AXIS2_PLACEMENT_3D('',#2270,#2271,#2272);
#2274=PLANE('',#2273);
#2275=ORIENTED_EDGE('',*,*,#1571,.F.);
#2276=ORIENTED_EDGE('',*,*,#1518,.F.);
#2277=ORIENTED_EDGE('',*,*,#1479,.F.);
#2278=ORIENTED_EDGE('',*,*,#1687,.F.);
#2279=ORIENTED_EDGE('',*,*,#1990,.F.);
#2280=EDGE_LOOP('',(#2275,#2276,#2277,#2278,#2279));
#2281=FACE_BOUND('',#2280,.T.);
#2282=ADVANCED_FACE('',(#2281),#2274,.T.);
#2283=CARTESIAN_POINT('',(-760.1625,608.9,1251.9));
#2284=DIRECTION('',(0.,-1.,0.));
#2285=DIRECTION('',(0.,0.,-1.));
#2286=AXIS2_PLACEMENT_3D('',#2283,#2284,#2285);
#2287=PLANE('',#2286);
#2288=ORIENTED_EDGE('',*,*,#1280,.T.);
#2289=ORIENTED_EDGE('',*,*,#1695,.T.);
#2290=ORIENTED_EDGE('',*,*,#1336,.F.);
#2291=CARTESIAN_POINT('',(-761.425,608.9,1256.5));
#2292=DIRECTION('',(0.,0.,1.));
#2293=VECTOR('',#2292,2.);
#2294=LINE('',#2291,#2293);
#2295=EDGE_CURVE('',#1275,#1321,#2294,.T.);
#2296=ORIENTED_EDGE('',*,*,#2295,.F.);
#2297=EDGE_LOOP('',(#2288,#2289,#2290,#2296));
#2298=FACE_BOUND('',#2297,.T.);
#2299=ADVANCED_FACE('',(#2298),#2287,.T.);
#2300=CARTESIAN_POINT('',(-760.1625,591.5,1251.9));
#2301=DIRECTION('',(0.,-1.,0.));
#2302=DIRECTION('',(0.,0.,-1.));
#2303=AXIS2_PLACEMENT_3D('',#2300,#2301,#2302);
#2304=PLANE('',#2303);
#2305=CARTESIAN_POINT('',(-761.425,591.5,1256.5));
#2306=DIRECTION('',(0.,0.,1.));
#2307=VECTOR('',#2306,2.);
#2308=LINE('',#2305,#2307);
#2309=EDGE_CURVE('',#1299,#1397,#2308,.T.);
#2310=ORIENTED_EDGE('',*,*,#2309,.T.);
#2311=ORIENTED_EDGE('',*,*,#1402,.T.);
#2312=ORIENTED_EDGE('',*,*,#1702,.F.);
#2313=ORIENTED_EDGE('',*,*,#1310,.F.);
#2314=EDGE_LOOP('',(#2310,#2311,#2312,#2313));
#2315=FACE_BOUND('',#2314,.T.);
#2316=ADVANCED_FACE('',(#2315),#2304,.F.);
#2317=CARTESIAN_POINT('',(-762.6875,607.5,1251.9));
#2318=DIRECTION('',(-0.742634382,0.669697077,0.));
#2319=DIRECTION('',(-0.669697077,-0.742634382,0.));
#2320=AXIS2_PLACEMENT_3D('',#2317,#2318,#2319);
#2321=PLANE('',#2320);
#2322=ORIENTED_EDGE('',*,*,#2295,.T.);
#2323=ORIENTED_EDGE('',*,*,#1328,.T.);
#2324=CARTESIAN_POINT('',(-765.05,604.88019802,1256.5));
#2325=DIRECTION('',(0.,0.,1.));
#2326=VECTOR('',#2325,2.);
#2327=LINE('',#2324,#2326);
#2328=EDGE_CURVE('',#1283,#1323,#2327,.T.);
#2329=ORIENTED_EDGE('',*,*,#2328,.F.);
#2330=ORIENTED_EDGE('',*,*,#1288,.F.);
#2331=EDGE_LOOP('',(#2322,#2323,#2329,#2330));
#2332=FACE_BOUND('',#2331,.T.);
#2333=ADVANCED_FACE('',(#2332),#2321,.F.);
#2334=CARTESIAN_POINT('',(-765.05,597.5,1251.9));
#2335=DIRECTION('',(1.,0.,0.));
#2336=DIRECTION('',(0.,0.,-1.));
#2337=AXIS2_PLACEMENT_3D('',#2334,#2335,#2336);
#2338=PLANE('',#2337);
#2339=ORIENTED_EDGE('',*,*,#1296,.T.);
#2340=ORIENTED_EDGE('',*,*,#2328,.T.);
#2341=ORIENTED_EDGE('',*,*,#1416,.F.);
#2342=CARTESIAN_POINT('',(-765.05,595.806930693,1256.5));
#2343=DIRECTION('',(0.,0.,1.));
#2344=VECTOR('',#2343,2.);
#2345=LINE('',#2342,#2344);
#2346=EDGE_CURVE('',#1291,#1405,#2345,.T.);
#2347=ORIENTED_EDGE('',*,*,#2346,.F.);
#2348=EDGE_LOOP('',(#2339,#2340,#2341,#2347));
#2349=FACE_BOUND('',#2348,.T.);
#2350=ADVANCED_FACE('',(#2349),#2338,.T.);
#2351=CARTESIAN_POINT('',(-762.6875,593.,1251.9));
#2352=DIRECTION('',(0.765076505,0.643939392,0.));
#2353=DIRECTION('',(-0.643939392,0.765076505,0.));
#2354=AXIS2_PLACEMENT_3D('',#2351,#2352,#2353);
#2355=PLANE('',#2354);
#2356=ORIENTED_EDGE('',*,*,#1304,.T.);
#2357=ORIENTED_EDGE('',*,*,#2346,.T.);
#2358=ORIENTED_EDGE('',*,*,#1410,.F.);
#2359=ORIENTED_EDGE('',*,*,#2309,.F.);
#2360=EDGE_LOOP('',(#2356,#2357,#2358,#2359));
#2361=FACE_BOUND('',#2360,.T.);
#2362=ADVANCED_FACE('',(#2361),#2355,.T.);
#2363=CARTESIAN_POINT('',(-769.,611.7,1257.5));
#2364=DIRECTION('',(0.,0.707106781,-0.707106781));
#2365=DIRECTION('',(1.,0.,0.));
#2366=AXIS2_PLACEMENT_3D('',#2363,#2364,#2365);
#2367=PLANE('',#2366);
#2368=ORIENTED_EDGE('',*,*,#1254,.F.);
#2369=CARTESIAN_POINT('',(-781.,610.7,1256.5));
#2370=DIRECTION('',(-0.577350269,0.577350269,0.577350269));
#2371=VECTOR('',#2370,0.866025404);
#2372=LINE('',#2369,#2371);
#2373=EDGE_CURVE('',#1241,#1728,#2372,.T.);
#2374=ORIENTED_EDGE('',*,*,#2373,.T.);
#2375=ORIENTED_EDGE('',*,*,#1733,.F.);
#2376=ORIENTED_EDGE('',*,*,#1442,.F.);
#2377=ORIENTED_EDGE('',*,*,#1511,.F.);
#2378=CARTESIAN_POINT('',(-756.5,611.2,1257.));
#2379=DIRECTION('',(-0.577350269,-0.577350269,-0.577350269));
#2380=VECTOR('',#2379,0.866025404);
#2381=LINE('',#2378,#2380);
#2382=EDGE_CURVE('',#1500,#1249,#2381,.T.);
#2383=ORIENTED_EDGE('',*,*,#2382,.T.);
#2384=EDGE_LOOP('',(#2368,#2374,#2375,#2376,#2377,#2383));
#2385=FACE_BOUND('',#2384,.T.);
#2386=ADVANCED_FACE('',(#2385),#2367,.T.);
#2387=CARTESIAN_POINT('',(-757.,573.,1256.5));
#2388=DIRECTION('',(-0.707106781,0.,0.707106781));
#2389=DIRECTION('',(0.,-1.,0.));
#2390=AXIS2_PLACEMENT_3D('',#2387,#2388,#2389);
#2391=PLANE('',#2390);
#2392=ORIENTED_EDGE('',*,*,#1505,.F.);
#2393=ORIENTED_EDGE('',*,*,#1562,.F.);
#2394=ORIENTED_EDGE('',*,*,#2250,.F.);
#2395=ORIENTED_EDGE('',*,*,#1260,.F.);
#2396=ORIENTED_EDGE('',*,*,#2382,.F.);
#2397=EDGE_LOOP('',(#2392,#2393,#2394,#2395,#2396));
#2398=FACE_BOUND('',#2397,.T.);
#2399=ADVANCED_FACE('',(#2398),#2391,.F.);
#2400=CARTESIAN_POINT('',(-781.,573.,1256.5));
#2401=DIRECTION('',(0.707106781,0.,0.707106781));
#2402=DIRECTION('',(0.,1.,0.));
#2403=AXIS2_PLACEMENT_3D('',#2400,#2401,#2402);
#2404=PLANE('',#2403);
#2405=ORIENTED_EDGE('',*,*,#2243,.F.);
#2406=ORIENTED_EDGE('',*,*,#1805,.F.);
#2407=ORIENTED_EDGE('',*,*,#1741,.F.);
#2408=ORIENTED_EDGE('',*,*,#2373,.F.);
#2409=ORIENTED_EDGE('',*,*,#1246,.F.);
#2410=EDGE_LOOP('',(#2405,#2406,#2407,#2408,#2409));
#2411=FACE_BOUND('',#2410,.T.);
#2412=ADVANCED_FACE('',(#2411),#2404,.F.);
#2413=CLOSED_SHELL('',(#1314,#1420,#1483,#1522,#1655,#1721,#1760,#1792,#1905,#1940,#1994,#2011,#2033,#2055,#2072,#2089,#2106,#2123,#2145,#2157,#2169,#2181,#2193,#2219,#2232,#2256,
#2269,#2282,#2299,#2316,#2333,#2350,#2362,#2386,#2399,#2412));
#2414=MANIFOLD_SOLID_BREP('Body 131 (1)',#2413);
#1224=STYLED_ITEM('',(#1223),#2414);
#16=SHAPE_REPRESENTATION('root',(#15),#10);
#17=ADVANCED_BREP_SHAPE_REPRESENTATION('root',(#1216,#2414),#10);
#2422=SHAPE_REPRESENTATION_RELATIONSHIP('','',#16,#17);
#2423=CARTESIAN_POINT('',(0.,0.,0.));
#2424=DIRECTION('',(0.,0.,1.));
#2425=DIRECTION('',(1.,0.,0.));
#2426=AXIS2_PLACEMENT_3D('',#2423,#2424,#2425);
#2428=MAPPED_ITEM('',#2427,#2426);
#2427=REPRESENTATION_MAP(#2426,#16);
#2429=APPLICATION_CONTEXT('Managed model based 3d engineering');
#2430=APPLICATION_PROTOCOL_DEFINITION('international standard','ap242_managed_model_based_3d_engineering',2014,#2429);
#2431=PRODUCT_CONTEXT('',#2429,'mechanical');
#2432=PRODUCT_DEFINITION_CONTEXT('part definition',#2429,'design');
#24=PRODUCT('root','root','',(#2431));
#2433=PRODUCT_RELATED_PRODUCT_CATEGORY('part','',(#24));
#2434=PRODUCT_DEFINITION_FORMATION_WITH_SPECIFIED_SOURCE('','',#24,.NOT_KNOWN.);
#25=PRODUCT_DEFINITION('design','',#2434,#2432);
#23=PRODUCT_DEFINITION_SHAPE('','',#25);
#2435=SHAPE_DEFINITION_REPRESENTATION(#23,#16);
#11=DRAUGHTING_MODEL('',(#2428),#10);
#2436=DESCRIPTIVE_REPRESENTATION_ITEM('KEY','/private/var/mobile/Containers/Data/Application/B920794F-3AFD-4D1B-B25D-647AFDE9D567/tmp/B5A46605-B6D8-47D7-837A-7AE933D14242.tmp');
#2437=PROPERTY_DEFINITION('KEY','',#25);
#2438=REPRESENTATION('',(#2436),#10);
#2439=PROPERTY_DEFINITION_REPRESENTATION(#2437,#2438);
#2440=GENERAL_PROPERTY('','KEY','');
#2441=GENERAL_PROPERTY_ASSOCIATION('','',#2440,#2437);
#1=MECHANICAL_DESIGN_GEOMETRIC_PRESENTATION_REPRESENTATION('',(#26,#1224),#10);
ENDSEC;
END-ISO-10303-21;
