ISO-10303-21;
HEADER;

/* File generated by Shapr3D Version 26.70.0.10837 */

FILE_DESCRIPTION(('HOOPS Exchange Step'),'2;1');

FILE_NAME('/private/var/mobile/Containers/Data/Application/B920794F-3AFD-4D1B-B25D-647AFDE9D567/tmp/export/temp_export',
'2026-06-29T14:40:37-07:00',
('mobile'),
('Shapr3D Limited'),
'HOOPS Exchange 2025.9',
'Shapr3D',
'Authorized');

FILE_SCHEMA( ('AP242_MANAGED_MODEL_BASED_3D_ENGINEERING_MIM_LF {1 0 10303 442 1 1 4}') );

ENDSEC;

DATA;
#3=(NAMED_UNIT(*)PLANE_ANGLE_UNIT()SI_UNIT($,.RADIAN.));
#4=PLANE_ANGLE_MEASURE_WITH_UNIT(PLANE_ANGLE_MEASURE(0.0174532925),#3);
#5=(CONVERSION_BASED_UNIT('DEGREE',#4)NAMED_UNIT(#6)PLANE_ANGLE_UNIT());
#6=DIMENSIONAL_EXPONENTS(0.,0.,0.,0.,0.,0.,0.);
#7=(NAMED_UNIT(*)SI_UNIT($,.STERADIAN.)SOLID_ANGLE_UNIT());
#8=(LENGTH_UNIT()NAMED_UNIT(*)SI_UNIT(.MILLI.,.METRE.));
#9=UNCERTAINTY_MEASURE_WITH_UNIT(LENGTH_MEASURE(1.000000E-05),#8,'DISTANCE_ACCURACY_VALUE','Maximum Tolerance applied to model');
#10=(GEOMETRIC_REPRESENTATION_CONTEXT(3)GLOBAL_UNCERTAINTY_ASSIGNED_CONTEXT((#9))GLOBAL_UNIT_ASSIGNED_CONTEXT((#8,#5,#7))REPRESENTATION_CONTEXT('','root'));
#12=CARTESIAN_POINT('',(0.,0.,0.));
#13=DIRECTION('',(0.,0.,1.));
#14=DIRECTION('',(1.,0.,0.));
#15=AXIS2_PLACEMENT_3D('TS3D_PRODUCT_CSYS',#12,#13,#14);
#27=CARTESIAN_POINT('',(-615.,573.,1241.));
#28=DIRECTION('',(0.,0.,-1.));
#29=DIRECTION('',(1.,0.,0.));
#30=AXIS2_PLACEMENT_3D('',#27,#28,#29);
#31=PLANE('',#30);
#32=CARTESIAN_POINT('',(-686.1,612.9,1241.));
#33=VERTEX_POINT('',#32);
#34=CARTESIAN_POINT('',(-686.1,764.7,1241.));
#35=VERTEX_POINT('',#34);
#36=CARTESIAN_POINT('',(-686.1,612.9,1241.));
#37=DIRECTION('',(0.,1.,0.));
#38=VECTOR('',#37,151.8);
#39=LINE('',#36,#38);
#40=EDGE_CURVE('',#33,#35,#39,.T.);
#41=ORIENTED_EDGE('',*,*,#40,.F.);
#42=CARTESIAN_POINT('',(-683.1,612.9,1241.));
#43=VERTEX_POINT('',#42);
#44=CARTESIAN_POINT('',(-686.1,612.9,1241.));
#45=DIRECTION('',(1.,-0.,-0.));
#46=VECTOR('',#45,3.);
#47=LINE('',#44,#46);
#48=EDGE_CURVE('',#33,#43,#47,.T.);
#49=ORIENTED_EDGE('',*,*,#48,.T.);
#50=CARTESIAN_POINT('',(-683.1,636.145793616,1241.));
#51=VERTEX_POINT('',#50);
#52=CARTESIAN_POINT('',(-683.1,612.9,1241.));
#53=DIRECTION('',(0.,1.,0.));
#54=VECTOR('',#53,23.245793616);
#55=LINE('',#52,#54);
#56=EDGE_CURVE('',#43,#51,#55,.T.);
#57=ORIENTED_EDGE('',*,*,#56,.T.);
#58=CARTESIAN_POINT('',(-682.4,636.845793616,1241.));
#59=VERTEX_POINT('',#58);
#60=CARTESIAN_POINT('',(-683.1,636.145793616,1241.));
#61=DIRECTION('',(0.707106781,0.707106781,-0.));
#62=VECTOR('',#61,0.989949494);
#63=LINE('',#60,#62);
#64=EDGE_CURVE('',#51,#59,#63,.T.);
#65=ORIENTED_EDGE('',*,*,#64,.T.);
#66=CARTESIAN_POINT('',(-682.4,764.7,1241.));
#67=VERTEX_POINT('',#66);
#68=CARTESIAN_POINT('',(-682.4,636.845793616,1241.));
#69=DIRECTION('',(0.,1.,0.));
#70=VECTOR('',#69,127.854206384);
#71=LINE('',#68,#70);
#72=EDGE_CURVE('',#59,#67,#71,.T.);
#73=ORIENTED_EDGE('',*,*,#72,.T.);
#74=CARTESIAN_POINT('',(-682.4,764.7,1241.));
#75=DIRECTION('',(-1.,0.,0.));
#76=VECTOR('',#75,3.7);
#77=LINE('',#74,#76);
#78=EDGE_CURVE('',#67,#35,#77,.T.);
#79=ORIENTED_EDGE('',*,*,#78,.T.);
#80=EDGE_LOOP('',(#41,#49,#57,#65,#73,#79));
#81=FACE_BOUND('',#80,.T.);
#82=ADVANCED_FACE('',(#81),#31,.F.);
#83=CARTESIAN_POINT('',(-615.,573.,1241.));
#84=DIRECTION('',(0.,0.,-1.));
#85=DIRECTION('',(1.,0.,0.));
#86=AXIS2_PLACEMENT_3D('',#83,#84,#85);
#87=PLANE('',#86);
#88=CARTESIAN_POINT('',(-662.9,636.145793616,1241.));
#89=VERTEX_POINT('',#88);
#90=CARTESIAN_POINT('',(-662.9,612.9,1241.));
#91=VERTEX_POINT('',#90);
#92=CARTESIAN_POINT('',(-662.9,636.145793616,1241.));
#93=DIRECTION('',(0.,-1.,0.));
#94=VECTOR('',#93,23.245793616);
#95=LINE('',#92,#94);
#96=EDGE_CURVE('',#89,#91,#95,.T.);
#97=ORIENTED_EDGE('',*,*,#96,.T.);
#98=CARTESIAN_POINT('',(-659.9,612.9,1241.));
#99=VERTEX_POINT('',#98);
#100=CARTESIAN_POINT('',(-662.9,612.9,1241.));
#101=DIRECTION('',(1.,0.,-0.));
#102=VECTOR('',#101,3.);
#103=LINE('',#100,#102);
#104=EDGE_CURVE('',#91,#99,#103,.T.);
#105=ORIENTED_EDGE('',*,*,#104,.T.);
#106=CARTESIAN_POINT('',(-659.9,764.7,1241.));
#107=VERTEX_POINT('',#106);
#108=CARTESIAN_POINT('',(-659.9,612.9,1241.));
#109=DIRECTION('',(0.,1.,0.));
#110=VECTOR('',#109,151.8);
#111=LINE('',#108,#110);
#112=EDGE_CURVE('',#99,#107,#111,.T.);
#113=ORIENTED_EDGE('',*,*,#112,.T.);
#114=CARTESIAN_POINT('',(-663.6,764.7,1241.));
#115=VERTEX_POINT('',#114);
#116=CARTESIAN_POINT('',(-663.6,764.7,1241.));
#117=DIRECTION('',(1.,0.,-0.));
#118=VECTOR('',#117,3.7);
#119=LINE('',#116,#118);
#120=EDGE_CURVE('',#115,#107,#119,.T.);
#121=ORIENTED_EDGE('',*,*,#120,.F.);
#122=CARTESIAN_POINT('',(-663.6,636.845793616,1241.));
#123=VERTEX_POINT('',#122);
#124=CARTESIAN_POINT('',(-663.6,636.845793616,1241.));
#125=DIRECTION('',(0.,1.,0.));
#126=VECTOR('',#125,127.854206384);
#127=LINE('',#124,#126);
#128=EDGE_CURVE('',#123,#115,#127,.T.);
#129=ORIENTED_EDGE('',*,*,#128,.F.);
#130=CARTESIAN_POINT('',(-663.6,636.845793616,1241.));
#131=DIRECTION('',(0.707106781,-0.707106781,0.));
#132=VECTOR('',#131,0.989949494);
#133=LINE('',#130,#132);
#134=EDGE_CURVE('',#123,#89,#133,.T.);
#135=ORIENTED_EDGE('',*,*,#134,.T.);
#136=EDGE_LOOP('',(#97,#105,#113,#121,#129,#135));
#137=FACE_BOUND('',#136,.T.);
#138=ADVANCED_FACE('',(#137),#87,.F.);
#139=CARTESIAN_POINT('',(-659.9,608.,1207.75));
#140=DIRECTION('',(-1.,0.,0.));
#141=DIRECTION('',(0.,0.,-1.));
#142=AXIS2_PLACEMENT_3D('',#139,#140,#141);
#143=PLANE('',#142);
#144=CARTESIAN_POINT('',(-659.9,640.282038102,1217.098755897));
#145=VERTEX_POINT('',#144);
#146=CARTESIAN_POINT('',(-659.9,654.877502136,1223.));
#147=VERTEX_POINT('',#146);
#148=CARTESIAN_POINT('',(-659.9,654.877502136,1202.));
#149=DIRECTION('',(-1.,0.,0.));
#150=DIRECTION('',(0.,0.,1.));
#151=AXIS2_PLACEMENT_3D('',#148,#149,#150);
#152=CIRCLE('',#151,21.);
#153=EDGE_CURVE('',#145,#147,#152,.T.);
#154=ORIENTED_EDGE('',*,*,#153,.T.);
#155=CARTESIAN_POINT('',(-659.9,764.7,1223.));
#156=VERTEX_POINT('',#155);
#157=CARTESIAN_POINT('',(-659.9,654.877502136,1223.));
#158=DIRECTION('',(0.,1.,0.));
#159=VECTOR('',#158,109.822497864);
#160=LINE('',#157,#159);
#161=EDGE_CURVE('',#147,#156,#160,.T.);
#162=ORIENTED_EDGE('',*,*,#161,.T.);
#163=CARTESIAN_POINT('',(-659.9,764.7,1241.));
#164=DIRECTION('',(0.,0.,-1.));
#165=VECTOR('',#164,18.);
#166=LINE('',#163,#165);
#167=EDGE_CURVE('',#107,#156,#166,.T.);
#168=ORIENTED_EDGE('',*,*,#167,.F.);
#169=ORIENTED_EDGE('',*,*,#112,.F.);
#170=CARTESIAN_POINT('',(-659.9,607.9,1246.));
#171=VERTEX_POINT('',#170);
#172=CARTESIAN_POINT('',(-659.9,612.9,1246.));
#173=DIRECTION('',(-1.,0.,0.));
#174=DIRECTION('',(0.,0.,1.));
#175=AXIS2_PLACEMENT_3D('',#172,#173,#174);
#176=CIRCLE('',#175,5.);
#177=EDGE_CURVE('',#99,#171,#176,.T.);
#178=ORIENTED_EDGE('',*,*,#177,.T.);
#179=CARTESIAN_POINT('',(-659.9,607.9,1273.));
#180=VERTEX_POINT('',#179);
#181=CARTESIAN_POINT('',(-659.9,607.9,1273.));
#182=DIRECTION('',(0.,0.,-1.));
#183=VECTOR('',#182,27.);
#184=LINE('',#181,#183);
#185=EDGE_CURVE('',#180,#171,#184,.T.);
#186=ORIENTED_EDGE('',*,*,#185,.F.);
#187=CARTESIAN_POINT('',(-659.9,589.3,1273.));
#188=VERTEX_POINT('',#187);
#189=CARTESIAN_POINT('',(-659.9,589.3,1273.));
#190=DIRECTION('',(0.,1.,0.));
#191=VECTOR('',#190,18.6);
#192=LINE('',#189,#191);
#193=EDGE_CURVE('',#188,#180,#192,.T.);
#194=ORIENTED_EDGE('',*,*,#193,.F.);
#195=CARTESIAN_POINT('',(-659.9,589.3,1195.));
#196=VERTEX_POINT('',#195);
#197=CARTESIAN_POINT('',(-659.9,589.3,1273.));
#198=DIRECTION('',(0.,0.,-1.));
#199=VECTOR('',#198,78.);
#200=LINE('',#197,#199);
#201=EDGE_CURVE('',#188,#196,#200,.T.);
#202=ORIENTED_EDGE('',*,*,#201,.T.);
#203=CARTESIAN_POINT('',(-659.9,617.42125614,1195.));
#204=VERTEX_POINT('',#203);
#205=CARTESIAN_POINT('',(-659.9,589.3,1195.));
#206=DIRECTION('',(-0.,1.,-0.));
#207=VECTOR('',#206,28.12125614);
#208=LINE('',#205,#207);
#209=EDGE_CURVE('',#196,#204,#208,.T.);
#210=ORIENTED_EDGE('',*,*,#209,.T.);
#211=CARTESIAN_POINT('',(-659.9,617.42125614,1195.));
#212=DIRECTION('',(-0.,0.718988376,0.695022097));
#213=VECTOR('',#212,31.79576016);
#214=LINE('',#211,#213);
#215=EDGE_CURVE('',#204,#145,#214,.T.);
#216=ORIENTED_EDGE('',*,*,#215,.T.);
#217=EDGE_LOOP('',(#154,#162,#168,#169,#178,#186,#194,#202,#210,#216));
#218=FACE_BOUND('',#217,.T.);
#219=ADVANCED_FACE('',(#218),#143,.F.);
#220=CARTESIAN_POINT('',(-662.9,612.5,1220.625));
#221=DIRECTION('',(1.,0.,-0.));
#222=DIRECTION('',(0.,0.,1.));
#223=AXIS2_PLACEMENT_3D('',#220,#221,#222);
#224=PLANE('',#223);
#225=CARTESIAN_POINT('',(-662.9,764.7,1219.9));
#226=VERTEX_POINT('',#225);
#227=CARTESIAN_POINT('',(-662.9,648.550461736,1219.9));
#228=VERTEX_POINT('',#227);
#229=CARTESIAN_POINT('',(-662.9,764.7,1219.9));
#230=DIRECTION('',(0.,-1.,0.));
#231=VECTOR('',#230,116.149538264);
#232=LINE('',#229,#231);
#233=EDGE_CURVE('',#226,#228,#232,.T.);
#234=ORIENTED_EDGE('',*,*,#233,.T.);
#235=CARTESIAN_POINT('',(-662.9,619.650461736,1191.));
#236=VERTEX_POINT('',#235);
#237=CARTESIAN_POINT('',(-662.9,619.650461736,1191.));
#238=DIRECTION('',(0.,0.707106781,0.707106781));
#239=VECTOR('',#238,40.870771953);
#240=LINE('',#237,#239);
#241=EDGE_CURVE('',#236,#228,#240,.T.);
#242=ORIENTED_EDGE('',*,*,#241,.F.);
#243=CARTESIAN_POINT('',(-662.9,589.3,1191.));
#244=VERTEX_POINT('',#243);
#245=CARTESIAN_POINT('',(-662.9,619.650461736,1191.));
#246=DIRECTION('',(0.,-1.,0.));
#247=VECTOR('',#246,30.350461736);
#248=LINE('',#245,#247);
#249=EDGE_CURVE('',#236,#244,#248,.T.);
#250=ORIENTED_EDGE('',*,*,#249,.T.);
#251=CARTESIAN_POINT('',(-662.9,589.3,1273.));
#252=VERTEX_POINT('',#251);
#253=CARTESIAN_POINT('',(-662.9,589.3,1273.));
#254=DIRECTION('',(0.,0.,-1.));
#255=VECTOR('',#254,82.);
#256=LINE('',#253,#255);
#257=EDGE_CURVE('',#252,#244,#256,.T.);
#258=ORIENTED_EDGE('',*,*,#257,.F.);
#259=CARTESIAN_POINT('',(-662.9,607.9,1273.));
#260=VERTEX_POINT('',#259);
#261=CARTESIAN_POINT('',(-662.9,589.3,1273.));
#262=DIRECTION('',(0.,1.,0.));
#263=VECTOR('',#262,18.6);
#264=LINE('',#261,#263);
#265=EDGE_CURVE('',#252,#260,#264,.T.);
#266=ORIENTED_EDGE('',*,*,#265,.T.);
#267=CARTESIAN_POINT('',(-662.9,607.9,1246.));
#268=VERTEX_POINT('',#267);
#269=CARTESIAN_POINT('',(-662.9,607.9,1273.));
#270=DIRECTION('',(0.,0.,-1.));
#271=VECTOR('',#270,27.);
#272=LINE('',#269,#271);
#273=EDGE_CURVE('',#260,#268,#272,.T.);
#274=ORIENTED_EDGE('',*,*,#273,.T.);
#275=CARTESIAN_POINT('',(-662.9,612.9,1246.));
#276=DIRECTION('',(1.,0.,-0.));
#277=DIRECTION('',(-0.,0.,-1.));
#278=AXIS2_PLACEMENT_3D('',#275,#276,#277);
#279=CIRCLE('',#278,5.);
#280=EDGE_CURVE('',#268,#91,#279,.T.);
#281=ORIENTED_EDGE('',*,*,#280,.T.);
#282=ORIENTED_EDGE('',*,*,#96,.F.);
#283=CARTESIAN_POINT('',(-662.9,636.145793616,1240.));
#284=VERTEX_POINT('',#283);
#285=CARTESIAN_POINT('',(-662.9,636.145793616,1240.));
#286=DIRECTION('',(0.,-0.,1.));
#287=VECTOR('',#286,1.);
#288=LINE('',#285,#287);
#289=EDGE_CURVE('',#284,#89,#288,.T.);
#290=ORIENTED_EDGE('',*,*,#289,.F.);
#291=CARTESIAN_POINT('',(-662.9,764.7,1240.));
#292=VERTEX_POINT('',#291);
#293=CARTESIAN_POINT('',(-662.9,764.7,1240.));
#294=DIRECTION('',(0.,-1.,0.));
#295=VECTOR('',#294,128.554206384);
#296=LINE('',#293,#295);
#297=EDGE_CURVE('',#292,#284,#296,.T.);
#298=ORIENTED_EDGE('',*,*,#297,.F.);
#299=CARTESIAN_POINT('',(-662.9,764.7,1240.));
#300=DIRECTION('',(-0.,0.,-1.));
#301=VECTOR('',#300,20.1);
#302=LINE('',#299,#301);
#303=EDGE_CURVE('',#292,#226,#302,.T.);
#304=ORIENTED_EDGE('',*,*,#303,.T.);
#305=EDGE_LOOP('',(#234,#242,#250,#258,#266,#274,#281,#282,#290,#298,#304));
#306=FACE_BOUND('',#305,.T.);
#307=ADVANCED_FACE('',(#306),#224,.F.);
#308=CARTESIAN_POINT('',(-683.1,612.5,1220.625));
#309=DIRECTION('',(-1.,0.,0.));
#310=DIRECTION('',(-0.,0.,-1.));
#311=AXIS2_PLACEMENT_3D('',#308,#309,#310);
#312=PLANE('',#311);
#313=CARTESIAN_POINT('',(-683.1,648.550461736,1219.9));
#314=VERTEX_POINT('',#313);
#315=CARTESIAN_POINT('',(-683.1,619.650461736,1191.));
#316=VERTEX_POINT('',#315);
#317=CARTESIAN_POINT('',(-683.1,648.550461736,1219.9));
#318=DIRECTION('',(-0.,-0.707106781,-0.707106781));
#319=VECTOR('',#318,40.870771953);
#320=LINE('',#317,#319);
#321=EDGE_CURVE('',#314,#316,#320,.T.);
#322=ORIENTED_EDGE('',*,*,#321,.F.);
#323=CARTESIAN_POINT('',(-683.1,764.7,1219.9));
#324=VERTEX_POINT('',#323);
#325=CARTESIAN_POINT('',(-683.1,764.7,1219.9));
#326=DIRECTION('',(0.,-1.,0.));
#327=VECTOR('',#326,116.149538264);
#328=LINE('',#325,#327);
#329=EDGE_CURVE('',#324,#314,#328,.T.);
#330=ORIENTED_EDGE('',*,*,#329,.F.);
#331=CARTESIAN_POINT('',(-683.1,764.7,1240.));
#332=VERTEX_POINT('',#331);
#333=CARTESIAN_POINT('',(-683.1,764.7,1240.));
#334=DIRECTION('',(-0.,0.,-1.));
#335=VECTOR('',#334,20.1);
#336=LINE('',#333,#335);
#337=EDGE_CURVE('',#332,#324,#336,.T.);
#338=ORIENTED_EDGE('',*,*,#337,.F.);
#339=CARTESIAN_POINT('',(-683.1,636.145793616,1240.));
#340=VERTEX_POINT('',#339);
#341=CARTESIAN_POINT('',(-683.1,636.145793616,1240.));
#342=DIRECTION('',(0.,1.,0.));
#343=VECTOR('',#342,128.554206384);
#344=LINE('',#341,#343);
#345=EDGE_CURVE('',#340,#332,#344,.T.);
#346=ORIENTED_EDGE('',*,*,#345,.F.);
#347=CARTESIAN_POINT('',(-683.1,636.145793616,1240.));
#348=DIRECTION('',(0.,0.,1.));
#349=VECTOR('',#348,1.);
#350=LINE('',#347,#349);
#351=EDGE_CURVE('',#340,#51,#350,.T.);
#352=ORIENTED_EDGE('',*,*,#351,.T.);
#353=ORIENTED_EDGE('',*,*,#56,.F.);
#354=CARTESIAN_POINT('',(-683.1,607.9,1246.));
#355=VERTEX_POINT('',#354);
#356=CARTESIAN_POINT('',(-683.1,612.9,1246.));
#357=DIRECTION('',(-1.,0.,0.));
#358=DIRECTION('',(0.,0.,1.));
#359=AXIS2_PLACEMENT_3D('',#356,#357,#358);
#360=CIRCLE('',#359,5.);
#361=EDGE_CURVE('',#43,#355,#360,.T.);
#362=ORIENTED_EDGE('',*,*,#361,.T.);
#363=CARTESIAN_POINT('',(-683.1,607.9,1273.));
#364=VERTEX_POINT('',#363);
#365=CARTESIAN_POINT('',(-683.1,607.9,1273.));
#366=DIRECTION('',(0.,0.,-1.));
#367=VECTOR('',#366,27.);
#368=LINE('',#365,#367);
#369=EDGE_CURVE('',#364,#355,#368,.T.);
#370=ORIENTED_EDGE('',*,*,#369,.F.);
#371=CARTESIAN_POINT('',(-683.1,589.3,1273.));
#372=VERTEX_POINT('',#371);
#373=CARTESIAN_POINT('',(-683.1,589.3,1273.));
#374=DIRECTION('',(0.,1.,0.));
#375=VECTOR('',#374,18.6);
#376=LINE('',#373,#375);
#377=EDGE_CURVE('',#372,#364,#376,.T.);
#378=ORIENTED_EDGE('',*,*,#377,.F.);
#379=CARTESIAN_POINT('',(-683.1,589.3,1191.));
#380=VERTEX_POINT('',#379);
#381=CARTESIAN_POINT('',(-683.1,589.3,1273.));
#382=DIRECTION('',(0.,0.,-1.));
#383=VECTOR('',#382,82.);
#384=LINE('',#381,#383);
#385=EDGE_CURVE('',#372,#380,#384,.T.);
#386=ORIENTED_EDGE('',*,*,#385,.T.);
#387=CARTESIAN_POINT('',(-683.1,619.650461736,1191.));
#388=DIRECTION('',(0.,-1.,0.));
#389=VECTOR('',#388,30.350461736);
#390=LINE('',#387,#389);
#391=EDGE_CURVE('',#316,#380,#390,.T.);
#392=ORIENTED_EDGE('',*,*,#391,.F.);
#393=EDGE_LOOP('',(#322,#330,#338,#346,#352,#353,#362,#370,#378,#386,#392));
#394=FACE_BOUND('',#393,.T.);
#395=ADVANCED_FACE('',(#394),#312,.F.);
#396=CARTESIAN_POINT('',(-686.1,585.,1427.));
#397=DIRECTION('',(1.,0.,0.));
#398=DIRECTION('',(0.,0.,-1.));
#399=AXIS2_PLACEMENT_3D('',#396,#397,#398);
#400=PLANE('',#399);
#401=CARTESIAN_POINT('',(-686.1,654.877502136,1223.));
#402=VERTEX_POINT('',#401);
#403=CARTESIAN_POINT('',(-686.1,640.282038102,1217.098755897));
#404=VERTEX_POINT('',#403);
#405=CARTESIAN_POINT('',(-686.1,654.877502136,1202.));
#406=DIRECTION('',(1.,0.,0.));
#407=DIRECTION('',(0.,0.,-1.));
#408=AXIS2_PLACEMENT_3D('',#405,#406,#407);
#409=CIRCLE('',#408,21.);
#410=EDGE_CURVE('',#402,#404,#409,.T.);
#411=ORIENTED_EDGE('',*,*,#410,.T.);
#412=CARTESIAN_POINT('',(-686.1,617.42125614,1195.));
#413=VERTEX_POINT('',#412);
#414=CARTESIAN_POINT('',(-686.1,640.282038102,1217.098755897));
#415=DIRECTION('',(0.,-0.718988376,-0.695022097));
#416=VECTOR('',#415,31.79576016);
#417=LINE('',#414,#416);
#418=EDGE_CURVE('',#404,#413,#417,.T.);
#419=ORIENTED_EDGE('',*,*,#418,.T.);
#420=CARTESIAN_POINT('',(-686.1,589.3,1195.));
#421=VERTEX_POINT('',#420);
#422=CARTESIAN_POINT('',(-686.1,617.42125614,1195.));
#423=DIRECTION('',(0.,-1.,0.));
#424=VECTOR('',#423,28.12125614);
#425=LINE('',#422,#424);
#426=EDGE_CURVE('',#413,#421,#425,.T.);
#427=ORIENTED_EDGE('',*,*,#426,.T.);
#428=CARTESIAN_POINT('',(-686.1,589.3,1273.));
#429=VERTEX_POINT('',#428);
#430=CARTESIAN_POINT('',(-686.1,589.3,1273.));
#431=DIRECTION('',(0.,0.,-1.));
#432=VECTOR('',#431,78.);
#433=LINE('',#430,#432);
#434=EDGE_CURVE('',#429,#421,#433,.T.);
#435=ORIENTED_EDGE('',*,*,#434,.F.);
#436=CARTESIAN_POINT('',(-686.1,607.9,1273.));
#437=VERTEX_POINT('',#436);
#438=CARTESIAN_POINT('',(-686.1,589.3,1273.));
#439=DIRECTION('',(0.,1.,0.));
#440=VECTOR('',#439,18.6);
#441=LINE('',#438,#440);
#442=EDGE_CURVE('',#429,#437,#441,.T.);
#443=ORIENTED_EDGE('',*,*,#442,.T.);
#444=CARTESIAN_POINT('',(-686.1,607.9,1246.));
#445=VERTEX_POINT('',#444);
#446=CARTESIAN_POINT('',(-686.1,607.9,1273.));
#447=DIRECTION('',(0.,0.,-1.));
#448=VECTOR('',#447,27.);
#449=LINE('',#446,#448);
#450=EDGE_CURVE('',#437,#445,#449,.T.);
#451=ORIENTED_EDGE('',*,*,#450,.T.);
#452=CARTESIAN_POINT('',(-686.1,612.9,1246.));
#453=DIRECTION('',(1.,0.,0.));
#454=DIRECTION('',(0.,0.,-1.));
#455=AXIS2_PLACEMENT_3D('',#452,#453,#454);
#456=CIRCLE('',#455,5.);
#457=EDGE_CURVE('',#445,#33,#456,.T.);
#458=ORIENTED_EDGE('',*,*,#457,.T.);
#459=ORIENTED_EDGE('',*,*,#40,.T.);
#460=CARTESIAN_POINT('',(-686.1,764.7,1223.));
#461=VERTEX_POINT('',#460);
#462=CARTESIAN_POINT('',(-686.1,764.7,1241.));
#463=DIRECTION('',(0.,0.,-1.));
#464=VECTOR('',#463,18.);
#465=LINE('',#462,#464);
#466=EDGE_CURVE('',#35,#461,#465,.T.);
#467=ORIENTED_EDGE('',*,*,#466,.T.);
#468=CARTESIAN_POINT('',(-686.1,764.7,1223.));
#469=DIRECTION('',(0.,-1.,0.));
#470=VECTOR('',#469,109.822497864);
#471=LINE('',#468,#470);
#472=EDGE_CURVE('',#461,#402,#471,.T.);
#473=ORIENTED_EDGE('',*,*,#472,.T.);
#474=EDGE_LOOP('',(#411,#419,#427,#435,#443,#451,#458,#459,#467,#473));
#475=FACE_BOUND('',#474,.T.);
#476=ADVANCED_FACE('',(#475),#400,.F.);
#477=CARTESIAN_POINT('',(0.,764.7,0.));
#478=DIRECTION('',(0.,1.,0.));
#479=DIRECTION('',(-1.,0.,0.));
#480=AXIS2_PLACEMENT_3D('',#477,#478,#479);
#481=PLANE('',#480);
#482=ORIENTED_EDGE('',*,*,#167,.T.);
#483=CARTESIAN_POINT('',(-665.9,764.7,1217.));
#484=VERTEX_POINT('',#483);
#485=CARTESIAN_POINT('',(-665.9,764.7,1223.));
#486=DIRECTION('',(0.,1.,0.));
#487=DIRECTION('',(0.,-0.,1.));
#488=AXIS2_PLACEMENT_3D('',#485,#486,#487);
#489=CIRCLE('',#488,6.);
#490=EDGE_CURVE('',#156,#484,#489,.T.);
#491=ORIENTED_EDGE('',*,*,#490,.T.);
#492=CARTESIAN_POINT('',(-680.1,764.7,1217.));
#493=VERTEX_POINT('',#492);
#494=CARTESIAN_POINT('',(-665.9,764.7,1217.));
#495=DIRECTION('',(-1.,0.,0.));
#496=VECTOR('',#495,14.2);
#497=LINE('',#494,#496);
#498=EDGE_CURVE('',#484,#493,#497,.T.);
#499=ORIENTED_EDGE('',*,*,#498,.T.);
#500=CARTESIAN_POINT('',(-680.1,764.7,1223.));
#501=DIRECTION('',(0.,1.,0.));
#502=DIRECTION('',(0.,-0.,1.));
#503=AXIS2_PLACEMENT_3D('',#500,#501,#502);
#504=CIRCLE('',#503,6.);
#505=EDGE_CURVE('',#493,#461,#504,.T.);
#506=ORIENTED_EDGE('',*,*,#505,.T.);
#507=ORIENTED_EDGE('',*,*,#466,.F.);
#508=ORIENTED_EDGE('',*,*,#78,.F.);
#509=CARTESIAN_POINT('',(-682.4,764.7,1240.));
#510=VERTEX_POINT('',#509);
#511=CARTESIAN_POINT('',(-682.4,764.7,1240.));
#512=DIRECTION('',(0.,0.,1.));
#513=VECTOR('',#512,1.);
#514=LINE('',#511,#513);
#515=EDGE_CURVE('',#510,#67,#514,.T.);
#516=ORIENTED_EDGE('',*,*,#515,.F.);
#517=CARTESIAN_POINT('',(-683.1,764.7,1240.));
#518=DIRECTION('',(1.,0.,-0.));
#519=VECTOR('',#518,0.7);
#520=LINE('',#517,#519);
#521=EDGE_CURVE('',#332,#510,#520,.T.);
#522=ORIENTED_EDGE('',*,*,#521,.F.);
#523=ORIENTED_EDGE('',*,*,#337,.T.);
#524=CARTESIAN_POINT('',(-662.9,764.7,1219.9));
#525=DIRECTION('',(-1.,0.,0.));
#526=VECTOR('',#525,20.2);
#527=LINE('',#524,#526);
#528=EDGE_CURVE('',#226,#324,#527,.T.);
#529=ORIENTED_EDGE('',*,*,#528,.F.);
#530=ORIENTED_EDGE('',*,*,#303,.F.);
#531=CARTESIAN_POINT('',(-663.6,764.7,1240.));
#532=VERTEX_POINT('',#531);
#533=CARTESIAN_POINT('',(-662.9,764.7,1240.));
#534=DIRECTION('',(-1.,0.,0.));
#535=VECTOR('',#534,0.7);
#536=LINE('',#533,#535);
#537=EDGE_CURVE('',#292,#532,#536,.T.);
#538=ORIENTED_EDGE('',*,*,#537,.T.);
#539=CARTESIAN_POINT('',(-663.6,764.7,1240.));
#540=DIRECTION('',(0.,0.,1.));
#541=VECTOR('',#540,1.);
#542=LINE('',#539,#541);
#543=EDGE_CURVE('',#532,#115,#542,.T.);
#544=ORIENTED_EDGE('',*,*,#543,.T.);
#545=ORIENTED_EDGE('',*,*,#120,.T.);
#546=EDGE_LOOP('',(#482,#491,#499,#506,#507,#508,#516,#522,#523,#529,#530,#538,#544,#545));
#547=FACE_BOUND('',#546,.T.);
#548=ADVANCED_FACE('',(#547),#481,.T.);
#549=CARTESIAN_POINT('',(0.,0.,1191.));
#550=DIRECTION('',(0.,0.,-1.));
#551=DIRECTION('',(0.,-1.,0.));
#552=AXIS2_PLACEMENT_3D('',#549,#550,#551);
#553=PLANE('',#552);
#554=ORIENTED_EDGE('',*,*,#249,.F.);
#555=CARTESIAN_POINT('',(-683.1,619.650461736,1191.));
#556=DIRECTION('',(1.,0.,-0.));
#557=VECTOR('',#556,20.2);
#558=LINE('',#555,#557);
#559=EDGE_CURVE('',#316,#236,#558,.T.);
#560=ORIENTED_EDGE('',*,*,#559,.F.);
#561=ORIENTED_EDGE('',*,*,#391,.T.);
#562=CARTESIAN_POINT('',(-662.9,589.3,1191.));
#563=DIRECTION('',(-1.,0.,0.));
#564=VECTOR('',#563,20.2);
#565=LINE('',#562,#564);
#566=EDGE_CURVE('',#244,#380,#565,.T.);
#567=ORIENTED_EDGE('',*,*,#566,.F.);
#568=EDGE_LOOP('',(#554,#560,#561,#567));
#569=FACE_BOUND('',#568,.T.);
#570=ADVANCED_FACE('',(#569),#553,.F.);
#571=CARTESIAN_POINT('',(0.,0.,1189.));
#572=DIRECTION('',(0.,0.,-1.));
#573=DIRECTION('',(0.,-1.,0.));
#574=AXIS2_PLACEMENT_3D('',#571,#572,#573);
#575=PLANE('',#574);
#576=CARTESIAN_POINT('',(-665.9,617.42125614,1189.));
#577=VERTEX_POINT('',#576);
#578=CARTESIAN_POINT('',(-665.9,589.3,1189.));
#579=VERTEX_POINT('',#578);
#580=CARTESIAN_POINT('',(-665.9,617.42125614,1189.));
#581=DIRECTION('',(0.,-1.,0.));
#582=VECTOR('',#581,28.12125614);
#583=LINE('',#580,#582);
#584=EDGE_CURVE('',#577,#579,#583,.T.);
#585=ORIENTED_EDGE('',*,*,#584,.T.);
#586=CARTESIAN_POINT('',(-680.1,589.3,1189.));
#587=VERTEX_POINT('',#586);
#588=CARTESIAN_POINT('',(-665.9,589.3,1189.));
#589=DIRECTION('',(-1.,0.,0.));
#590=VECTOR('',#589,14.2);
#591=LINE('',#588,#590);
#592=EDGE_CURVE('',#579,#587,#591,.T.);
#593=ORIENTED_EDGE('',*,*,#592,.T.);
#594=CARTESIAN_POINT('',(-680.1,617.42125614,1189.));
#595=VERTEX_POINT('',#594);
#596=CARTESIAN_POINT('',(-680.1,589.3,1189.));
#597=DIRECTION('',(-0.,1.,-0.));
#598=VECTOR('',#597,28.12125614);
#599=LINE('',#596,#598);
#600=EDGE_CURVE('',#587,#595,#599,.T.);
#601=ORIENTED_EDGE('',*,*,#600,.T.);
#602=CARTESIAN_POINT('',(-680.1,617.42125614,1189.));
#603=DIRECTION('',(1.,0.,-0.));
#604=VECTOR('',#603,14.2);
#605=LINE('',#602,#604);
#606=EDGE_CURVE('',#595,#577,#605,.T.);
#607=ORIENTED_EDGE('',*,*,#606,.T.);
#608=EDGE_LOOP('',(#585,#593,#601,#607));
#609=FACE_BOUND('',#608,.T.);
#610=ADVANCED_FACE('',(#609),#575,.T.);
#611=CARTESIAN_POINT('',(0.,0.,1219.9));
#612=DIRECTION('',(0.,0.,-1.));
#613=DIRECTION('',(0.,1.,0.));
#614=AXIS2_PLACEMENT_3D('',#611,#612,#613);
#615=PLANE('',#614);
#616=CARTESIAN_POINT('',(-683.1,648.550461736,1219.9));
#617=DIRECTION('',(1.,0.,-0.));
#618=VECTOR('',#617,20.2);
#619=LINE('',#616,#618);
#620=EDGE_CURVE('',#314,#228,#619,.T.);
#621=ORIENTED_EDGE('',*,*,#620,.T.);
#622=ORIENTED_EDGE('',*,*,#233,.F.);
#623=ORIENTED_EDGE('',*,*,#528,.T.);
#624=ORIENTED_EDGE('',*,*,#329,.T.);
#625=EDGE_LOOP('',(#621,#622,#623,#624));
#626=FACE_BOUND('',#625,.T.);
#627=ADVANCED_FACE('',(#626),#615,.F.);
#628=CARTESIAN_POINT('',(0.,0.,1217.));
#629=DIRECTION('',(0.,0.,-1.));
#630=DIRECTION('',(0.,1.,0.));
#631=AXIS2_PLACEMENT_3D('',#628,#629,#630);
#632=PLANE('',#631);
#633=ORIENTED_EDGE('',*,*,#498,.F.);
#634=CARTESIAN_POINT('',(-665.9,654.877502136,1217.));
#635=VERTEX_POINT('',#634);
#636=CARTESIAN_POINT('',(-665.9,764.7,1217.));
#637=DIRECTION('',(-0.,-1.,-0.));
#638=VECTOR('',#637,109.822497864);
#639=LINE('',#636,#638);
#640=EDGE_CURVE('',#484,#635,#639,.T.);
#641=ORIENTED_EDGE('',*,*,#640,.T.);
#642=CARTESIAN_POINT('',(-680.1,654.877502136,1217.));
#643=VERTEX_POINT('',#642);
#644=CARTESIAN_POINT('',(-665.9,654.877502136,1217.));
#645=DIRECTION('',(-1.,-0.,0.));
#646=VECTOR('',#645,14.2);
#647=LINE('',#644,#646);
#648=EDGE_CURVE('',#635,#643,#647,.T.);
#649=ORIENTED_EDGE('',*,*,#648,.T.);
#650=CARTESIAN_POINT('',(-680.1,654.877502136,1217.));
#651=DIRECTION('',(-0.,1.,-0.));
#652=VECTOR('',#651,109.822497864);
#653=LINE('',#650,#652);
#654=EDGE_CURVE('',#643,#493,#653,.T.);
#655=ORIENTED_EDGE('',*,*,#654,.T.);
#656=EDGE_LOOP('',(#633,#641,#649,#655));
#657=FACE_BOUND('',#656,.T.);
#658=ADVANCED_FACE('',(#657),#632,.T.);
#659=CARTESIAN_POINT('',(-686.1,628.993607486,1200.343145751));
#660=DIRECTION('',(0.,-0.707106781,0.707106781));
#661=DIRECTION('',(0.,-0.707106781,-0.707106781));
#662=AXIS2_PLACEMENT_3D('',#659,#660,#661);
#663=PLANE('',#662);
#664=ORIENTED_EDGE('',*,*,#241,.T.);
#665=ORIENTED_EDGE('',*,*,#620,.F.);
#666=ORIENTED_EDGE('',*,*,#321,.T.);
#667=ORIENTED_EDGE('',*,*,#559,.T.);
#668=EDGE_LOOP('',(#664,#665,#666,#667));
#669=FACE_BOUND('',#668,.T.);
#670=ADVANCED_FACE('',(#669),#663,.T.);
#671=CARTESIAN_POINT('',(-686.1,628.896930012,1197.748092992));
#672=DIRECTION('',(0.,-0.695022097,0.718988376));
#673=DIRECTION('',(0.,-0.718988376,-0.695022097));
#674=AXIS2_PLACEMENT_3D('',#671,#672,#673);
#675=PLANE('',#674);
#676=CARTESIAN_POINT('',(-680.1,644.452170683,1212.784825641));
#677=VERTEX_POINT('',#676);
#678=CARTESIAN_POINT('',(-665.9,644.452170683,1212.784825641));
#679=VERTEX_POINT('',#678);
#680=CARTESIAN_POINT('',(-680.1,644.452170683,1212.784825641));
#681=DIRECTION('',(1.,0.,-0.));
#682=VECTOR('',#681,14.2);
#683=LINE('',#680,#682);
#684=EDGE_CURVE('',#677,#679,#683,.T.);
#685=ORIENTED_EDGE('',*,*,#684,.T.);
#686=CARTESIAN_POINT('',(-665.9,621.591388721,1190.686069744));
#687=VERTEX_POINT('',#686);
#688=CARTESIAN_POINT('',(-665.9,644.452170683,1212.784825641));
#689=DIRECTION('',(0.,-0.718988376,-0.695022097));
#690=VECTOR('',#689,31.79576016);
#691=LINE('',#688,#690);
#692=EDGE_CURVE('',#679,#687,#691,.T.);
#693=ORIENTED_EDGE('',*,*,#692,.T.);
#694=CARTESIAN_POINT('',(-680.1,621.591388721,1190.686069744));
#695=VERTEX_POINT('',#694);
#696=CARTESIAN_POINT('',(-665.9,621.591388721,1190.686069744));
#697=DIRECTION('',(-1.,-0.,0.));
#698=VECTOR('',#697,14.2);
#699=LINE('',#696,#698);
#700=EDGE_CURVE('',#687,#695,#699,.T.);
#701=ORIENTED_EDGE('',*,*,#700,.T.);
#702=CARTESIAN_POINT('',(-680.1,621.591388721,1190.686069744));
#703=DIRECTION('',(-0.,0.718988376,0.695022097));
#704=VECTOR('',#703,31.79576016);
#705=LINE('',#702,#704);
#706=EDGE_CURVE('',#695,#677,#705,.T.);
#707=ORIENTED_EDGE('',*,*,#706,.T.);
#708=EDGE_LOOP('',(#685,#693,#701,#707));
#709=FACE_BOUND('',#708,.T.);
#710=ADVANCED_FACE('',(#709),#675,.F.);
#711=CARTESIAN_POINT('',(-665.9,0.,1195.));
#712=DIRECTION('',(0.,1.,0.));
#713=DIRECTION('',(0.,-0.,1.));
#714=AXIS2_PLACEMENT_3D('',#711,#712,#713);
#715=CYLINDRICAL_SURFACE('',#714,6.);
#716=ORIENTED_EDGE('',*,*,#209,.F.);
#717=CARTESIAN_POINT('',(-665.9,589.3,1195.));
#718=DIRECTION('',(0.,1.,0.));
#719=DIRECTION('',(0.,-0.,1.));
#720=AXIS2_PLACEMENT_3D('',#717,#718,#719);
#721=CIRCLE('',#720,6.);
#722=EDGE_CURVE('',#196,#579,#721,.T.);
#723=ORIENTED_EDGE('',*,*,#722,.T.);
#724=ORIENTED_EDGE('',*,*,#584,.F.);
#725=CARTESIAN_POINT('',(-665.9,617.42125614,1195.));
#726=DIRECTION('',(-0.,-1.,-0.));
#727=DIRECTION('',(0.,-0.,1.));
#728=AXIS2_PLACEMENT_3D('',#725,#726,#727);
#729=CIRCLE('',#728,6.);
#730=EDGE_CURVE('',#577,#204,#729,.T.);
#731=ORIENTED_EDGE('',*,*,#730,.T.);
#732=EDGE_LOOP('',(#716,#723,#724,#731));
#733=FACE_BOUND('',#732,.T.);
#734=ADVANCED_FACE('',(#733),#715,.T.);
#735=CARTESIAN_POINT('',(-680.1,585.,1195.));
#736=DIRECTION('',(0.,1.,0.));
#737=DIRECTION('',(0.,-0.,1.));
#738=AXIS2_PLACEMENT_3D('',#735,#736,#737);
#739=CYLINDRICAL_SURFACE('',#738,6.);
#740=ORIENTED_EDGE('',*,*,#600,.F.);
#741=CARTESIAN_POINT('',(-680.1,589.3,1195.));
#742=DIRECTION('',(0.,1.,0.));
#743=DIRECTION('',(0.,-0.,1.));
#744=AXIS2_PLACEMENT_3D('',#741,#742,#743);
#745=CIRCLE('',#744,6.);
#746=EDGE_CURVE('',#587,#421,#745,.T.);
#747=ORIENTED_EDGE('',*,*,#746,.T.);
#748=ORIENTED_EDGE('',*,*,#426,.F.);
#749=CARTESIAN_POINT('',(-680.1,617.42125614,1195.));
#750=DIRECTION('',(-0.,-1.,-0.));
#751=DIRECTION('',(0.,-0.,1.));
#752=AXIS2_PLACEMENT_3D('',#749,#750,#751);
#753=CIRCLE('',#752,6.);
#754=EDGE_CURVE('',#413,#595,#753,.T.);
#755=ORIENTED_EDGE('',*,*,#754,.T.);
#756=EDGE_LOOP('',(#740,#747,#748,#755));
#757=FACE_BOUND('',#756,.T.);
#758=ADVANCED_FACE('',(#757),#739,.T.);
#759=CARTESIAN_POINT('',(-686.1,654.877502136,1202.));
#760=DIRECTION('',(1.,0.,0.));
#761=DIRECTION('',(0.,0.,-1.));
#762=AXIS2_PLACEMENT_3D('',#759,#760,#761);
#763=CYLINDRICAL_SURFACE('',#762,15.);
#764=ORIENTED_EDGE('',*,*,#648,.F.);
#765=CARTESIAN_POINT('',(-665.9,654.877502136,1202.));
#766=DIRECTION('',(1.,-0.,-0.));
#767=DIRECTION('',(0.,0.,1.));
#768=AXIS2_PLACEMENT_3D('',#765,#766,#767);
#769=CIRCLE('',#768,15.);
#770=EDGE_CURVE('',#635,#679,#769,.T.);
#771=ORIENTED_EDGE('',*,*,#770,.T.);
#772=ORIENTED_EDGE('',*,*,#684,.F.);
#773=CARTESIAN_POINT('',(-680.1,654.877502136,1202.));
#774=DIRECTION('',(-1.,-0.,-0.));
#775=DIRECTION('',(0.,0.,-1.));
#776=AXIS2_PLACEMENT_3D('',#773,#774,#775);
#777=CIRCLE('',#776,15.);
#778=EDGE_CURVE('',#677,#643,#777,.T.);
#779=ORIENTED_EDGE('',*,*,#778,.T.);
#780=EDGE_LOOP('',(#764,#771,#772,#779));
#781=FACE_BOUND('',#780,.T.);
#782=ADVANCED_FACE('',(#781),#763,.F.);
#783=CARTESIAN_POINT('',(-680.1,585.,1223.));
#784=DIRECTION('',(0.,1.,0.));
#785=DIRECTION('',(0.,-0.,1.));
#786=AXIS2_PLACEMENT_3D('',#783,#784,#785);
#787=CYLINDRICAL_SURFACE('',#786,6.);
#788=ORIENTED_EDGE('',*,*,#505,.F.);
#789=ORIENTED_EDGE('',*,*,#654,.F.);
#790=CARTESIAN_POINT('',(-680.1,654.877502136,1223.));
#791=DIRECTION('',(0.,-1.,0.));
#792=DIRECTION('',(0.,0.,-1.));
#793=AXIS2_PLACEMENT_3D('',#790,#791,#792);
#794=CIRCLE('',#793,6.);
#795=EDGE_CURVE('',#402,#643,#794,.T.);
#796=ORIENTED_EDGE('',*,*,#795,.F.);
#797=ORIENTED_EDGE('',*,*,#472,.F.);
#798=EDGE_LOOP('',(#788,#789,#796,#797));
#799=FACE_BOUND('',#798,.T.);
#800=ADVANCED_FACE('',(#799),#787,.T.);
#801=CARTESIAN_POINT('',(-680.1,654.877502136,1202.));
#802=DIRECTION('',(1.,0.,0.));
#803=DIRECTION('',(0.,0.,-1.));
#804=AXIS2_PLACEMENT_3D('',#801,#802,#803);
#805=TOROIDAL_SURFACE('',#804,21.,6.);
#806=ORIENTED_EDGE('',*,*,#795,.T.);
#807=ORIENTED_EDGE('',*,*,#778,.F.);
#808=CARTESIAN_POINT('',(-680.1,640.282038102,1217.098755897));
#809=DIRECTION('',(0.,-0.718988376,-0.695022097));
#810=DIRECTION('',(0.,0.695022097,-0.718988376));
#811=AXIS2_PLACEMENT_3D('',#808,#809,#810);
#812=CIRCLE('',#811,6.);
#813=EDGE_CURVE('',#404,#677,#812,.T.);
#814=ORIENTED_EDGE('',*,*,#813,.F.);
#815=ORIENTED_EDGE('',*,*,#410,.F.);
#816=EDGE_LOOP('',(#806,#807,#814,#815));
#817=FACE_BOUND('',#816,.T.);
#818=ADVANCED_FACE('',(#817),#805,.T.);
#819=CARTESIAN_POINT('',(-680.1,716.594644695,1290.867608937));
#820=DIRECTION('',(0.,-0.718988376,-0.695022097));
#821=DIRECTION('',(0.,0.695022097,-0.718988376));
#822=AXIS2_PLACEMENT_3D('',#819,#820,#821);
#823=CYLINDRICAL_SURFACE('',#822,6.);
#824=CARTESIAN_POINT('',(-680.1,617.42125614,1195.));
#825=DIRECTION('',(0.,-0.718988376,-0.695022097));
#826=DIRECTION('',(0.,0.695022097,-0.718988376));
#827=AXIS2_PLACEMENT_3D('',#824,#825,#826);
#828=CIRCLE('',#827,6.);
#829=EDGE_CURVE('',#413,#695,#828,.T.);
#830=ORIENTED_EDGE('',*,*,#829,.F.);
#831=ORIENTED_EDGE('',*,*,#418,.F.);
#832=ORIENTED_EDGE('',*,*,#813,.T.);
#833=ORIENTED_EDGE('',*,*,#706,.F.);
#834=EDGE_LOOP('',(#830,#831,#832,#833));
#835=FACE_BOUND('',#834,.T.);
#836=ADVANCED_FACE('',(#835),#823,.T.);
#837=CARTESIAN_POINT('',(-680.1,617.42125614,1195.));
#838=DIRECTION('',(0.,0.,1.));
#839=DIRECTION('',(1.,0.,-0.));
#840=AXIS2_PLACEMENT_3D('',#837,#838,#839);
#841=SPHERICAL_SURFACE('',#840,6.);
#842=ORIENTED_EDGE('',*,*,#754,.F.);
#843=ORIENTED_EDGE('',*,*,#829,.T.);
#844=CARTESIAN_POINT('',(-680.1,617.42125614,1195.));
#845=DIRECTION('',(1.,-0.,-0.));
#846=DIRECTION('',(0.,0.,1.));
#847=AXIS2_PLACEMENT_3D('',#844,#845,#846);
#848=CIRCLE('',#847,6.);
#849=EDGE_CURVE('',#595,#695,#848,.T.);
#850=ORIENTED_EDGE('',*,*,#849,.F.);
#851=EDGE_LOOP('',(#842,#843,#850));
#852=FACE_BOUND('',#851,.T.);
#853=ADVANCED_FACE('',(#852),#841,.T.);
#854=CARTESIAN_POINT('',(0.,617.42125614,1195.));
#855=DIRECTION('',(-1.,0.,0.));
#856=DIRECTION('',(0.,0.,1.));
#857=AXIS2_PLACEMENT_3D('',#854,#855,#856);
#858=CYLINDRICAL_SURFACE('',#857,6.);
#859=CARTESIAN_POINT('',(-665.9,617.42125614,1195.));
#860=DIRECTION('',(1.,-0.,-0.));
#861=DIRECTION('',(0.,0.,1.));
#862=AXIS2_PLACEMENT_3D('',#859,#860,#861);
#863=CIRCLE('',#862,6.);
#864=EDGE_CURVE('',#577,#687,#863,.T.);
#865=ORIENTED_EDGE('',*,*,#864,.F.);
#866=ORIENTED_EDGE('',*,*,#606,.F.);
#867=ORIENTED_EDGE('',*,*,#849,.T.);
#868=ORIENTED_EDGE('',*,*,#700,.F.);
#869=EDGE_LOOP('',(#865,#866,#867,#868));
#870=FACE_BOUND('',#869,.T.);
#871=ADVANCED_FACE('',(#870),#858,.T.);
#872=CARTESIAN_POINT('',(-665.9,617.42125614,1195.));
#873=DIRECTION('',(0.,0.,1.));
#874=DIRECTION('',(1.,0.,-0.));
#875=AXIS2_PLACEMENT_3D('',#872,#873,#874);
#876=SPHERICAL_SURFACE('',#875,6.);
#877=ORIENTED_EDGE('',*,*,#730,.F.);
#878=ORIENTED_EDGE('',*,*,#864,.T.);
#879=CARTESIAN_POINT('',(-665.9,617.42125614,1195.));
#880=DIRECTION('',(-0.,0.718988376,0.695022097));
#881=DIRECTION('',(0.,0.695022097,-0.718988376));
#882=AXIS2_PLACEMENT_3D('',#879,#880,#881);
#883=CIRCLE('',#882,6.);
#884=EDGE_CURVE('',#204,#687,#883,.T.);
#885=ORIENTED_EDGE('',*,*,#884,.F.);
#886=EDGE_LOOP('',(#877,#878,#885));
#887=FACE_BOUND('',#886,.T.);
#888=ADVANCED_FACE('',(#887),#876,.T.);
#889=CARTESIAN_POINT('',(-665.9,624.726797431,1202.062023248));
#890=DIRECTION('',(0.,-0.718988376,-0.695022097));
#891=DIRECTION('',(0.,0.695022097,-0.718988376));
#892=AXIS2_PLACEMENT_3D('',#889,#890,#891);
#893=CYLINDRICAL_SURFACE('',#892,6.);
#894=ORIENTED_EDGE('',*,*,#884,.T.);
#895=ORIENTED_EDGE('',*,*,#692,.F.);
#896=CARTESIAN_POINT('',(-665.9,640.282038102,1217.098755897));
#897=DIRECTION('',(-0.,0.718988376,0.695022097));
#898=DIRECTION('',(0.,0.695022097,-0.718988376));
#899=AXIS2_PLACEMENT_3D('',#896,#897,#898);
#900=CIRCLE('',#899,6.);
#901=EDGE_CURVE('',#145,#679,#900,.T.);
#902=ORIENTED_EDGE('',*,*,#901,.F.);
#903=ORIENTED_EDGE('',*,*,#215,.F.);
#904=EDGE_LOOP('',(#894,#895,#902,#903));
#905=FACE_BOUND('',#904,.T.);
#906=ADVANCED_FACE('',(#905),#893,.T.);
#907=CARTESIAN_POINT('',(-665.9,654.877502136,1202.));
#908=DIRECTION('',(-1.,0.,0.));
#909=DIRECTION('',(0.,0.,1.));
#910=AXIS2_PLACEMENT_3D('',#907,#908,#909);
#911=TOROIDAL_SURFACE('',#910,21.,6.);
#912=ORIENTED_EDGE('',*,*,#901,.T.);
#913=ORIENTED_EDGE('',*,*,#770,.F.);
#914=CARTESIAN_POINT('',(-665.9,654.877502136,1223.));
#915=DIRECTION('',(0.,1.,0.));
#916=DIRECTION('',(0.,-0.,1.));
#917=AXIS2_PLACEMENT_3D('',#914,#915,#916);
#918=CIRCLE('',#917,6.);
#919=EDGE_CURVE('',#147,#635,#918,.T.);
#920=ORIENTED_EDGE('',*,*,#919,.F.);
#921=ORIENTED_EDGE('',*,*,#153,.F.);
#922=EDGE_LOOP('',(#912,#913,#920,#921));
#923=FACE_BOUND('',#922,.T.);
#924=ADVANCED_FACE('',(#923),#911,.T.);
#925=CARTESIAN_POINT('',(-665.9,608.,1223.));
#926=DIRECTION('',(0.,-1.,0.));
#927=DIRECTION('',(0.,0.,-1.));
#928=AXIS2_PLACEMENT_3D('',#925,#926,#927);
#929=CYLINDRICAL_SURFACE('',#928,6.);
#930=ORIENTED_EDGE('',*,*,#919,.T.);
#931=ORIENTED_EDGE('',*,*,#640,.F.);
#932=ORIENTED_EDGE('',*,*,#490,.F.);
#933=ORIENTED_EDGE('',*,*,#161,.F.);
#934=EDGE_LOOP('',(#930,#931,#932,#933));
#935=FACE_BOUND('',#934,.T.);
#936=ADVANCED_FACE('',(#935),#929,.T.);
#937=CARTESIAN_POINT('',(-684.05,591.7,1240.));
#938=DIRECTION('',(0.,0.,1.));
#939=DIRECTION('',(1.,0.,0.));
#940=AXIS2_PLACEMENT_3D('',#937,#938,#939);
#941=PLANE('',#940);
#942=CARTESIAN_POINT('',(-682.4,636.845793616,1240.));
#943=VERTEX_POINT('',#942);
#944=CARTESIAN_POINT('',(-682.4,636.845793616,1240.));
#945=DIRECTION('',(0.,1.,0.));
#946=VECTOR('',#945,127.854206384);
#947=LINE('',#944,#946);
#948=EDGE_CURVE('',#943,#510,#947,.T.);
#949=ORIENTED_EDGE('',*,*,#948,.F.);
#950=CARTESIAN_POINT('',(-682.4,636.845793616,1240.));
#951=DIRECTION('',(-0.707106781,-0.707106781,-0.));
#952=VECTOR('',#951,0.989949494);
#953=LINE('',#950,#952);
#954=EDGE_CURVE('',#943,#340,#953,.T.);
#955=ORIENTED_EDGE('',*,*,#954,.T.);
#956=ORIENTED_EDGE('',*,*,#345,.T.);
#957=ORIENTED_EDGE('',*,*,#521,.T.);
#958=EDGE_LOOP('',(#949,#955,#956,#957));
#959=FACE_BOUND('',#958,.T.);
#960=ADVANCED_FACE('',(#959),#941,.F.);
#961=CARTESIAN_POINT('',(-682.4,591.7,1241.5));
#962=DIRECTION('',(-1.,0.,0.));
#963=DIRECTION('',(0.,0.,1.));
#964=AXIS2_PLACEMENT_3D('',#961,#962,#963);
#965=PLANE('',#964);
#966=ORIENTED_EDGE('',*,*,#72,.F.);
#967=CARTESIAN_POINT('',(-682.4,636.845793616,1241.));
#968=DIRECTION('',(-0.,-0.,-1.));
#969=VECTOR('',#968,1.);
#970=LINE('',#967,#969);
#971=EDGE_CURVE('',#59,#943,#970,.T.);
#972=ORIENTED_EDGE('',*,*,#971,.T.);
#973=ORIENTED_EDGE('',*,*,#948,.T.);
#974=ORIENTED_EDGE('',*,*,#515,.T.);
#975=EDGE_LOOP('',(#966,#972,#973,#974));
#976=FACE_BOUND('',#975,.T.);
#977=ADVANCED_FACE('',(#976),#965,.F.);
#978=CARTESIAN_POINT('',(-661.95,591.7,1240.));
#979=DIRECTION('',(0.,0.,-1.));
#980=DIRECTION('',(-1.,0.,0.));
#981=AXIS2_PLACEMENT_3D('',#978,#979,#980);
#982=PLANE('',#981);
#983=ORIENTED_EDGE('',*,*,#297,.T.);
#984=CARTESIAN_POINT('',(-663.6,636.845793616,1240.));
#985=VERTEX_POINT('',#984);
#986=CARTESIAN_POINT('',(-662.9,636.145793616,1240.));
#987=DIRECTION('',(-0.707106781,0.707106781,0.));
#988=VECTOR('',#987,0.989949494);
#989=LINE('',#986,#988);
#990=EDGE_CURVE('',#284,#985,#989,.T.);
#991=ORIENTED_EDGE('',*,*,#990,.T.);
#992=CARTESIAN_POINT('',(-663.6,636.845793616,1240.));
#993=DIRECTION('',(0.,1.,0.));
#994=VECTOR('',#993,127.854206384);
#995=LINE('',#992,#994);
#996=EDGE_CURVE('',#985,#532,#995,.T.);
#997=ORIENTED_EDGE('',*,*,#996,.T.);
#998=ORIENTED_EDGE('',*,*,#537,.F.);
#999=EDGE_LOOP('',(#983,#991,#997,#998));
#1000=FACE_BOUND('',#999,.T.);
#1001=ADVANCED_FACE('',(#1000),#982,.T.);
#1002=CARTESIAN_POINT('',(-663.6,591.7,1241.5));
#1003=DIRECTION('',(-1.,0.,0.));
#1004=DIRECTION('',(0.,0.,1.));
#1005=AXIS2_PLACEMENT_3D('',#1002,#1003,#1004);
#1006=PLANE('',#1005);
#1007=ORIENTED_EDGE('',*,*,#996,.F.);
#1008=CARTESIAN_POINT('',(-663.6,636.845793616,1240.));
#1009=DIRECTION('',(0.,0.,1.));
#1010=VECTOR('',#1009,1.);
#1011=LINE('',#1008,#1010);
#1012=EDGE_CURVE('',#985,#123,#1011,.T.);
#1013=ORIENTED_EDGE('',*,*,#1012,.T.);
#1014=ORIENTED_EDGE('',*,*,#128,.T.);
#1015=ORIENTED_EDGE('',*,*,#543,.F.);
#1016=EDGE_LOOP('',(#1007,#1013,#1014,#1015));
#1017=FACE_BOUND('',#1016,.T.);
#1018=ADVANCED_FACE('',(#1017),#1006,.T.);
#1019=CARTESIAN_POINT('',(-696.322896808,622.922896808,0.));
#1020=DIRECTION('',(-0.707106781,0.707106781,0.));
#1021=DIRECTION('',(0.,0.,1.));
#1022=AXIS2_PLACEMENT_3D('',#1019,#1020,#1021);
#1023=PLANE('',#1022);
#1024=ORIENTED_EDGE('',*,*,#954,.F.);
#1025=ORIENTED_EDGE('',*,*,#971,.F.);
#1026=ORIENTED_EDGE('',*,*,#64,.F.);
#1027=ORIENTED_EDGE('',*,*,#351,.F.);
#1028=EDGE_LOOP('',(#1024,#1025,#1026,#1027));
#1029=FACE_BOUND('',#1028,.T.);
#1030=ADVANCED_FACE('',(#1029),#1023,.F.);
#1031=CARTESIAN_POINT('',(-650.777103192,624.022896808,1241.5));
#1032=DIRECTION('',(-0.707106781,-0.707106781,0.));
#1033=DIRECTION('',(0.,0.,-1.));
#1034=AXIS2_PLACEMENT_3D('',#1031,#1032,#1033);
#1035=PLANE('',#1034);
#1036=ORIENTED_EDGE('',*,*,#990,.F.);
#1037=ORIENTED_EDGE('',*,*,#289,.T.);
#1038=ORIENTED_EDGE('',*,*,#134,.F.);
#1039=ORIENTED_EDGE('',*,*,#1012,.F.);
#1040=EDGE_LOOP('',(#1036,#1037,#1038,#1039));
#1041=FACE_BOUND('',#1040,.T.);
#1042=ADVANCED_FACE('',(#1041),#1035,.T.);
#1043=CARTESIAN_POINT('',(-661.4,607.9,1251.));
#1044=DIRECTION('',(0.,1.,0.));
#1045=DIRECTION('',(0.,0.,1.));
#1046=AXIS2_PLACEMENT_3D('',#1043,#1044,#1045);
#1047=PLANE('',#1046);
#1048=ORIENTED_EDGE('',*,*,#185,.T.);
#1049=CARTESIAN_POINT('',(-659.9,607.9,1246.));
#1050=DIRECTION('',(-1.,-0.,0.));
#1051=VECTOR('',#1050,3.);
#1052=LINE('',#1049,#1051);
#1053=EDGE_CURVE('',#171,#268,#1052,.T.);
#1054=ORIENTED_EDGE('',*,*,#1053,.T.);
#1055=ORIENTED_EDGE('',*,*,#273,.F.);
#1056=CARTESIAN_POINT('',(-662.9,607.9,1273.));
#1057=DIRECTION('',(1.,0.,-0.));
#1058=VECTOR('',#1057,3.);
#1059=LINE('',#1056,#1058);
#1060=EDGE_CURVE('',#260,#180,#1059,.T.);
#1061=ORIENTED_EDGE('',*,*,#1060,.T.);
#1062=EDGE_LOOP('',(#1048,#1054,#1055,#1061));
#1063=FACE_BOUND('',#1062,.T.);
#1064=ADVANCED_FACE('',(#1063),#1047,.T.);
#1065=CARTESIAN_POINT('',(-674.5,607.9,1251.));
#1066=DIRECTION('',(0.,-1.,0.));
#1067=DIRECTION('',(0.,0.,-1.));
#1068=AXIS2_PLACEMENT_3D('',#1065,#1066,#1067);
#1069=PLANE('',#1068);
#1070=ORIENTED_EDGE('',*,*,#369,.T.);
#1071=CARTESIAN_POINT('',(-683.1,607.9,1246.));
#1072=DIRECTION('',(-1.,0.,0.));
#1073=VECTOR('',#1072,3.);
#1074=LINE('',#1071,#1073);
#1075=EDGE_CURVE('',#355,#445,#1074,.T.);
#1076=ORIENTED_EDGE('',*,*,#1075,.T.);
#1077=ORIENTED_EDGE('',*,*,#450,.F.);
#1078=CARTESIAN_POINT('',(-683.1,607.9,1273.));
#1079=DIRECTION('',(-1.,0.,0.));
#1080=VECTOR('',#1079,3.);
#1081=LINE('',#1078,#1080);
#1082=EDGE_CURVE('',#364,#437,#1081,.T.);
#1083=ORIENTED_EDGE('',*,*,#1082,.F.);
#1084=EDGE_LOOP('',(#1070,#1076,#1077,#1083));
#1085=FACE_BOUND('',#1084,.T.);
#1086=ADVANCED_FACE('',(#1085),#1069,.F.);
#1087=CARTESIAN_POINT('',(-615.,612.9,1246.));
#1088=DIRECTION('',(1.,0.,0.));
#1089=DIRECTION('',(0.,0.,-1.));
#1090=AXIS2_PLACEMENT_3D('',#1087,#1088,#1089);
#1091=CYLINDRICAL_SURFACE('',#1090,5.);
#1092=ORIENTED_EDGE('',*,*,#280,.F.);
#1093=ORIENTED_EDGE('',*,*,#1053,.F.);
#1094=ORIENTED_EDGE('',*,*,#177,.F.);
#1095=ORIENTED_EDGE('',*,*,#104,.F.);
#1096=EDGE_LOOP('',(#1092,#1093,#1094,#1095));
#1097=FACE_BOUND('',#1096,.T.);
#1098=ADVANCED_FACE('',(#1097),#1091,.F.);
#1099=CARTESIAN_POINT('',(-674.5,612.9,1246.));
#1100=DIRECTION('',(1.,0.,0.));
#1101=DIRECTION('',(0.,0.,-1.));
#1102=AXIS2_PLACEMENT_3D('',#1099,#1100,#1101);
#1103=CYLINDRICAL_SURFACE('',#1102,5.);
#1104=ORIENTED_EDGE('',*,*,#361,.F.);
#1105=ORIENTED_EDGE('',*,*,#48,.F.);
#1106=ORIENTED_EDGE('',*,*,#457,.F.);
#1107=ORIENTED_EDGE('',*,*,#1075,.F.);
#1108=EDGE_LOOP('',(#1104,#1105,#1106,#1107));
#1109=FACE_BOUND('',#1108,.T.);
#1110=ADVANCED_FACE('',(#1109),#1103,.F.);
#1111=CARTESIAN_POINT('',(-661.4,589.3,1273.));
#1112=DIRECTION('',(0.,1.,0.));
#1113=DIRECTION('',(0.,0.,1.));
#1114=AXIS2_PLACEMENT_3D('',#1111,#1112,#1113);
#1115=PLANE('',#1114);
#1116=ORIENTED_EDGE('',*,*,#722,.F.);
#1117=ORIENTED_EDGE('',*,*,#201,.F.);
#1118=CARTESIAN_POINT('',(-662.9,589.3,1273.));
#1119=DIRECTION('',(1.,0.,-0.));
#1120=VECTOR('',#1119,3.);
#1121=LINE('',#1118,#1120);
#1122=EDGE_CURVE('',#252,#188,#1121,.T.);
#1123=ORIENTED_EDGE('',*,*,#1122,.F.);
#1124=ORIENTED_EDGE('',*,*,#257,.T.);
#1125=ORIENTED_EDGE('',*,*,#566,.T.);
#1126=ORIENTED_EDGE('',*,*,#385,.F.);
#1127=CARTESIAN_POINT('',(-683.1,589.3,1273.));
#1128=DIRECTION('',(-1.,0.,0.));
#1129=VECTOR('',#1128,3.);
#1130=LINE('',#1127,#1129);
#1131=EDGE_CURVE('',#372,#429,#1130,.T.);
#1132=ORIENTED_EDGE('',*,*,#1131,.T.);
#1133=ORIENTED_EDGE('',*,*,#434,.T.);
#1134=ORIENTED_EDGE('',*,*,#746,.F.);
#1135=ORIENTED_EDGE('',*,*,#592,.F.);
#1136=EDGE_LOOP('',(#1116,#1117,#1123,#1124,#1125,#1126,#1132,#1133,#1134,#1135));
#1137=FACE_BOUND('',#1136,.T.);
#1138=ADVANCED_FACE('',(#1137),#1115,.F.);
#1139=CARTESIAN_POINT('',(0.,0.,1273.));
#1140=DIRECTION('',(0.,0.,1.));
#1141=DIRECTION('',(0.,1.,0.));
#1142=AXIS2_PLACEMENT_3D('',#1139,#1140,#1141);
#1143=PLANE('',#1142);
#1144=ORIENTED_EDGE('',*,*,#265,.F.);
#1145=ORIENTED_EDGE('',*,*,#1122,.T.);
#1146=ORIENTED_EDGE('',*,*,#193,.T.);
#1147=ORIENTED_EDGE('',*,*,#1060,.F.);
#1148=EDGE_LOOP('',(#1144,#1145,#1146,#1147));
#1149=FACE_BOUND('',#1148,.T.);
#1150=ADVANCED_FACE('',(#1149),#1143,.T.);
#1151=CARTESIAN_POINT('',(0.,0.,1273.));
#1152=DIRECTION('',(0.,0.,1.));
#1153=DIRECTION('',(0.,1.,0.));
#1154=AXIS2_PLACEMENT_3D('',#1151,#1152,#1153);
#1155=PLANE('',#1154);
#1156=ORIENTED_EDGE('',*,*,#442,.F.);
#1157=ORIENTED_EDGE('',*,*,#1131,.F.);
#1158=ORIENTED_EDGE('',*,*,#377,.T.);
#1159=ORIENTED_EDGE('',*,*,#1082,.T.);
#1160=EDGE_LOOP('',(#1156,#1157,#1158,#1159));
#1161=FACE_BOUND('',#1160,.T.);
#1162=ADVANCED_FACE('',(#1161),#1155,.T.);
#1163=CLOSED_SHELL('',(#82,#138,#219,#307,#395,#476,#548,#570,#610,#627,#658,#670,#710,#734,#758,#782,#800,#818,#836,#853,#871,#888,#906,#924,#936,#960,
#977,#1001,#1018,#1030,#1042,#1064,#1086,#1098,#1110,#1138,#1150,#1162));
#1164=MANIFOLD_SOLID_BREP('Body 137',#1163);
#1165=COLOUR_RGB('',0.627451003,0.627451003,0.643137276);
#1166=FILL_AREA_STYLE_COLOUR('',#1165);
#1167=FILL_AREA_STYLE('',(#1166));
#1168=SURFACE_STYLE_FILL_AREA(#1167);
#1169=SURFACE_SIDE_STYLE('',(#1168));
#1170=SURFACE_STYLE_USAGE(.BOTH.,#1169);
#1171=PRESENTATION_STYLE_ASSIGNMENT((#1170));
#26=STYLED_ITEM('',(#1171),#1164);
#16=SHAPE_REPRESENTATION('root',(#15),#10);
#17=ADVANCED_BREP_SHAPE_REPRESENTATION('root',(#1164),#10);
#1179=SHAPE_REPRESENTATION_RELATIONSHIP('','',#16,#17);
#1180=CARTESIAN_POINT('',(0.,0.,0.));
#1181=DIRECTION('',(0.,0.,1.));
#1182=DIRECTION('',(1.,0.,0.));
#1183=AXIS2_PLACEMENT_3D('',#1180,#1181,#1182);
#1185=MAPPED_ITEM('',#1184,#1183);
#1184=REPRESENTATION_MAP(#1183,#16);
#1186=APPLICATION_CONTEXT('Managed model based 3d engineering');
#1187=APPLICATION_PROTOCOL_DEFINITION('international standard','ap242_managed_model_based_3d_engineering',2014,#1186);
#1188=PRODUCT_CONTEXT('',#1186,'mechanical');
#1189=PRODUCT_DEFINITION_CONTEXT('part definition',#1186,'design');
#24=PRODUCT('root','root','',(#1188));
#1190=PRODUCT_RELATED_PRODUCT_CATEGORY('part','',(#24));
#1191=PRODUCT_DEFINITION_FORMATION_WITH_SPECIFIED_SOURCE('','',#24,.NOT_KNOWN.);
#25=PRODUCT_DEFINITION('design','',#1191,#1189);
#23=PRODUCT_DEFINITION_SHAPE('','',#25);
#1192=SHAPE_DEFINITION_REPRESENTATION(#23,#16);
#11=DRAUGHTING_MODEL('',(#1185),#10);
#1193=DESCRIPTIVE_REPRESENTATION_ITEM('KEY','/private/var/mobile/Containers/Data/Application/B920794F-3AFD-4D1B-B25D-647AFDE9D567/tmp/C52483EC-20DA-4C0A-9570-8C98E1E8E768.tmp');
#1194=PROPERTY_DEFINITION('KEY','',#25);
#1195=REPRESENTATION('',(#1193),#10);
#1196=PROPERTY_DEFINITION_REPRESENTATION(#1194,#1195);
#1197=GENERAL_PROPERTY('','KEY','');
#1198=GENERAL_PROPERTY_ASSOCIATION('','',#1197,#1194);
#1=MECHANICAL_DESIGN_GEOMETRIC_PRESENTATION_REPRESENTATION('',(#26),#10);
ENDSEC;
END-ISO-10303-21;
